<?xml version="1.0" standalone="no"?>
<!DOCTYPE svg PUBLIC "-//W3C//DTD SVG 1.1//EN" "http://www.w3.org/Graphics/SVG/1.1/DTD/svg11.dtd" >
<svg xmlns="http://www.w3.org/2000/svg" xmlns:xlink="http://www.w3.org/1999/xlink" version="1.1">
<metadata>
Created by FontForge 20160407 at Tue Aug  2 15:10:19 2016
 By Jimmy Wärting
Copyright (c) 2002, 2005 Parachute :, www.parachute.gr.  All rights reserved.
</metadata>
<defs>
<font id="PFDinTextPro-Regular" horiz-adv-x="1818" >
  <font-face 
    font-family="PF DinText Pro"
    font-weight="400"
    font-stretch="normal"
    units-per-em="1000"
    panose-1="2 0 5 6 2 0 0 2 0 4"
    ascent="750"
    descent="-250"
    x-height="496"
    cap-height="696"
    bbox="-392 -265 1760 933"
    underline-thickness="60"
    underline-position="-100"
    unicode-range="U+0020-FB05"
  />
<missing-glyph horiz-adv-x="440" 
d="M0 700h440v-700h-440v700zM360 650h-280l140 -255zM390 95v510l-140 -255zM360 50l-140 255l-140 -255h280zM50 95l140 255l-140 255v-510z" />
    <glyph glyph-name="ff" unicode="ff" horiz-adv-x="520" 
d="M515 731v-76h-55q-32 0 -42.5 -19t-10.5 -45v-95h104v-72h-104v-424h-83v424h-158v-424h-83v424h-61v72h61v60q0 47 14 78t38 49t55 25.5t65 7.5q58 0 102 -21q17 18 41.5 27t53.5 9h63zM166 496h158v105v10.5t1 10.5q-29 17 -75 17q-84 0 -84 -81v-62z" />
    <glyph glyph-name="fi" unicode="fi" horiz-adv-x="478" 
d="M324 0v424h-158v-424h-83v424h-61v72h61v80q0 47 14 78t38 49t55 25.5t65 7.5q104 0 159 -64l-56 -56q-17 20 -42.5 31.5t-65.5 11.5q-84 0 -84 -81v-82h241v-496h-83z" />
    <glyph glyph-name="fl" unicode="fl" horiz-adv-x="501" 
d="M447 0q-54 0 -88 25.5t-34 89.5v531q-22 8 -38 10.5t-37 2.5q-84 0 -84 -81v-82h107v-72h-107v-424h-83v424h-61v72h61v80q0 47 14 78t38 49t55 25.5t65 7.5q20 0 60.5 -6t91.5 -28v-580q0 -47 51 -47h24v-75h-35z" />
    <glyph glyph-name="ffi" unicode="ffi" horiz-adv-x="727" 
d="M565 0v424h-158v-424h-83v424h-158v-424h-83v424h-61v72h61v60q0 47 14 78t38 49t55 25.5t65 7.5q63 0 108 -24q25 25 59.5 34.5t73.5 9.5q104 0 159 -64l-56 -56q-17 20 -42.5 31.5t-65.5 11.5q-84 0 -84 -81v-82h241v-496h-83zM250 639q-84 0 -84 -81v-62h158v80
q0 26 4 45q-15 8 -34 13t-44 5z" />
    <glyph glyph-name="ffl" unicode="ffl" horiz-adv-x="741" 
d="M255 716q63 0 108 -24q25 25 59.5 34.5t73.5 9.5q20 0 60.5 -6t91.5 -28v-580q0 -47 51 -47h24v-75h-35q-54 0 -88 25.5t-34 89.5v531q-22 8 -38 10.5t-37 2.5q-84 0 -84 -81v-82h105v-72h-105v-424h-83v424h-158v-424h-83v424h-61v72h61v60q0 47 14 78t38 49t55 25.5
t65 7.5zM250 639q-84 0 -84 -81v-62h158v80q0 26 4 45q-15 8 -34 13t-44 5z" />
    <glyph glyph-name="ft" unicode="ft" horiz-adv-x="512" 
d="M166 424v-424h-83v424h-61v72h61v105q0 66 37 98t91 32h59v-76h-51q-32 0 -42.5 -19t-10.5 -45v-95h158v123h82v-123h76v-71h-76v-289q0 -23 9 -42.5t40 -19.5h43v-74h-59q-51 0 -83 29.5t-32 86.5v309z" />
    <glyph glyph-name="fj" unicode="fj" horiz-adv-x="478" 
d="M83 496v80q0 47 14 78t38 49t55 25.5t65 7.5q104 0 159 -64l-56 -56q-17 20 -42.5 31.5t-65.5 11.5q-84 0 -84 -81v-82h241v-563q0 -30 -10.5 -55t-29 -42.5t-44.5 -27.5t-57 -10h-30v75h6h10h9t5 1q27 1 42.5 17.5t15.5 47.5v485h-158v-424h-83v424h-61v72h61z" />
    <glyph glyph-name="ffj" unicode="ffj" horiz-adv-x="727" 
d="M407 496h241v-563q0 -30 -10.5 -55t-29 -42.5t-44.5 -27.5t-57 -10h-30v75h6h10h9t5 1q27 1 42.5 17.5t15.5 47.5v485h-158v-424h-83v424h-158v-424h-83v424h-61v72h61v60q0 47 14 78t38 49t55 25.5t65 7.5q63 0 108 -24q25 25 59.5 34.5t73.5 9.5q104 0 159 -64l-56 -56
q-17 20 -42.5 31.5t-65.5 11.5q-84 0 -84 -81v-82zM250 639q-84 0 -84 -81v-62h158v80q0 26 4 45q-15 8 -34 13t-44 5z" />
    <glyph glyph-name=".notdef" horiz-adv-x="440" 
d="M0 700h440v-700h-440v700zM360 650h-280l140 -255zM390 95v510l-140 -255zM360 50l-140 255l-140 -255h280zM50 95l140 255l-140 255v-510z" />
    <glyph glyph-name="quotedbl" unicode="&#x22;" horiz-adv-x="309" 
d="M182 494v202h64v-202h-64zM61 494v202h64v-202h-64z" />
    <glyph glyph-name="numbersign" unicode="#" horiz-adv-x="500" 
d="M15 273h100l21 152h-92v57h100l29 212h61l-29 -212h113l29 212h61l-29 -212h99v-57h-107l-21 -152h99v-57h-107l-29 -216h-61l29 216h-113l-29 -216h-61l29 216h-92v57zM176 273h113l21 152h-113z" />
    <glyph glyph-name="dollar" unicode="$" horiz-adv-x="500" 
d="M232 -5q-53 3 -104.5 22.5t-92.5 57.5q12 15 24.5 33t24.5 33q29 -27 67 -45t81 -23v236q-36 10 -68.5 25t-57.5 36.5t-40 52t-15 72.5q0 40 13 74.5t36.5 60t57 41.5t74.5 19v82h50v-83q42 -4 83.5 -18t73.5 -37q-10 -16 -20 -34.5t-20 -34.5q-26 17 -55.5 29t-61.5 17
v-228q41 -11 75 -25.5t58 -36.5t37 -54.5t13 -78.5q0 -85 -51 -135t-132 -58v-111h-50v111zM378 187q0 25 -8 42.5t-21.5 30.5t-31 21.5t-35.5 14.5v-222q46 7 71 36.5t25 76.5zM138 493q0 -20 8.5 -35.5t22 -27t30 -19.5t33.5 -14v216q-41 -5 -67.5 -35.5t-26.5 -84.5z" />
    <glyph glyph-name="ampersand" unicode="&#x26;" horiz-adv-x="636" 
d="M450 75q-38 -37 -84.5 -59t-97.5 -22q-50 0 -87 14t-61 38t-36 55t-12 66q0 66 34 117t109 99q-8 9 -15 19t-15 20q-22 29 -36.5 57t-14.5 63q0 34 11.5 64t34 52t57 34.5t80.5 12.5q41 0 83.5 -14.5t79.5 -46.5l-51 -59q-18 14 -33.5 23t-29.5 13.5t-28.5 6t-32.5 1.5
q-48 0 -68.5 -25t-20.5 -60q0 -23 8.5 -39.5t27.5 -42.5q50 -66 101 -132.5t101 -132.5q19 32 29.5 61t17.5 60l78 -12q-11 -45 -28.5 -88.5t-46.5 -84.5q25 -32 52 -67t52 -66h-98zM404 135q-37 48 -72.5 95.5t-73.5 95.5q-52 -32 -78 -69t-26 -85q0 -43 29.5 -72t87.5 -29
q19 0 38 6t36.5 15t32.5 20.5t26 22.5z" />
    <glyph glyph-name="quotesingle" unicode="'" horiz-adv-x="241" 
d="M85 494v202h63v-202h-63z" />
    <glyph glyph-name="parenleft" unicode="(" horiz-adv-x="290" 
d="M238 -120q-37 40 -70.5 88t-59.5 102t-41.5 113t-15.5 122q0 64 15 123.5t40.5 113.5t58.5 101t70 87l46 -28q-32 -41 -57.5 -88.5t-44 -98.5t-28.5 -103t-10 -102q0 -54 10.5 -108t29 -105t44 -98t55.5 -87l-42 -32v0z" />
    <glyph glyph-name="parenright" unicode=")" horiz-adv-x="290" 
d="M20 -88q30 40 55.5 87t44 98t29 105t10.5 108q0 50 -10 102t-28 103t-44 98.5t-57 88.5l45 28q37 -40 70.5 -87t59 -101t40.5 -113.5t15 -123.5q0 -63 -15.5 -122t-41.5 -113t-60 -102t-71 -88z" />
    <glyph glyph-name="asterisk" unicode="*" horiz-adv-x="361" 
d="M300 442q-14 -11 -27.5 -21.5t-28.5 -21.5l-62 104l-63 -105q-14 11 -28 21.5t-28 21.5l78 91q-28 7 -56.5 15t-56.5 15l19 65l111 -47l-10 120h68l-10 -120q27 11 55.5 23t55.5 24l19 -66l-114 -29z" />
    <glyph glyph-name="plus" unicode="+" horiz-adv-x="500" 
d="M282 262v-192h-64v192h-189v64h189v190h64v-190h188v-64h-188z" />
    <glyph glyph-name="comma" unicode="," horiz-adv-x="252" 
d="M115 -113h-51l32 113h-28v111h103v-109z" />
    <glyph glyph-name="hyphen" unicode="-" horiz-adv-x="392" 
d="M52 230v75h288v-75h-288z" />
    <glyph glyph-name="period" unicode="." horiz-adv-x="243" 
d="M70 0v111h103v-111h-103z" />
    <glyph glyph-name="slash" unicode="/" horiz-adv-x="317" 
d="M64 -42h-65l251 767h65z" />
    <glyph glyph-name="zero" unicode="0" horiz-adv-x="500" 
d="M444 190q0 -47 -16 -83.5t-43 -61.5t-62 -38t-73 -13t-73 13t-62 38t-43 61.5t-16 83.5v316q0 47 16 83.5t43 61.5t62 38t73 13t73 -13t62 -38t43 -61.5t16 -83.5v-316zM362 500q0 57 -30.5 89t-81.5 32t-81.5 -32t-30.5 -89v-304q0 -57 30.5 -89t81.5 -32t81.5 32
t30.5 89v304z" />
    <glyph glyph-name="one" unicode="1" horiz-adv-x="500" 
d="M299 0h-82v610l-91 -66l1 87l89 65h83v-696z" />
    <glyph glyph-name="two" unicode="2" horiz-adv-x="500" 
d="M50 0v82l270 341q39 49 39 99q0 40 -26 70t-80 30q-45 0 -75.5 -30t-37.5 -78l-84 12q6 40 24 72.5t44.5 55t60 34.5t70.5 12q40 0 75.5 -11t61 -33.5t40.5 -55.5t15 -76q0 -31 -13 -68t-38 -68l-243 -307h287v-81h-390z" />
    <glyph glyph-name="three" unicode="3" horiz-adv-x="500" 
d="M451 210q0 -48 -15 -87.5t-43 -68t-66.5 -44.5t-85.5 -16q-31 0 -62 7.5t-57 25t-45 46.5t-26 72l81 12q10 -45 40.5 -66t70.5 -21q28 0 51 10.5t39.5 29t25 43.5t8.5 54q0 59 -33.5 91t-85.5 32h-50v72h41q53 0 86.5 31t33.5 80q0 24 -8.5 44.5t-23.5 35.5t-35.5 23
t-44.5 8q-35 0 -66 -23t-42 -67l-82 11q7 34 24.5 63t42.5 50t56.5 32.5t66.5 11.5q51 0 88 -15.5t60.5 -41t35 -59.5t11.5 -71q0 -39 -18 -77.5t-68 -70.5q52 -30 73.5 -73t21.5 -84z" />
    <glyph glyph-name="four" unicode="4" horiz-adv-x="500" 
d="M412 106v-106h-81v106h-302v80l239 510h91l-242 -513h214v205h81v-205h58v-77h-58z" />
    <glyph glyph-name="five" unicode="5" horiz-adv-x="500" 
d="M446 220q0 -47 -13 -88t-38.5 -71.5t-64 -48t-89.5 -17.5q-35 0 -66.5 7t-57 24.5t-44 46t-27.5 72.5l82 14q9 -48 39.5 -69.5t73.5 -21.5q40 0 64.5 17t37.5 42.5t17 55.5t4 57q0 29 -4.5 56.5t-17 48.5t-35 34t-58.5 13q-32 0 -57 -17t-42 -45h-81v366h363v-78h-286
v-194q34 30 63.5 38t61.5 8q42 0 75 -15t55 -42t33.5 -65t11.5 -84v-44z" />
    <glyph glyph-name="six" unicode="6" horiz-adv-x="500" 
d="M450 210q0 -56 -17.5 -97t-46 -67.5t-65 -39t-74.5 -12.5q-43 0 -79 13t-61.5 39.5t-39.5 65.5t-14 90q0 31 8.5 69.5t28.5 78.5l180 346h91l-155 -303l3 -1q14 6 31 9t33 3q40 0 72.5 -15.5t55.5 -42t36 -62t13 -74.5zM363 204q0 31 -9 55t-24.5 40.5t-36 25t-44.5 8.5
q-21 0 -41.5 -8.5t-36.5 -25t-26 -40.5t-10 -55q0 -62 30.5 -98t83.5 -36q51 0 82.5 36.5t31.5 97.5z" />
    <glyph glyph-name="seven" unicode="7" horiz-adv-x="500" 
d="M203 0h-92l243 615h-217v-104h-82v185h389v-85z" />
    <glyph glyph-name="eight" unicode="8" horiz-adv-x="500" 
d="M459 199q0 -45 -16.5 -83t-45 -65t-66.5 -42t-81 -15t-81 15t-66.5 42t-45 65t-16.5 83q0 24 6.5 48t19 45.5t31 38.5t41.5 28q-45 22 -65 62t-20 84q0 41 15 77t41.5 62.5t62 42t77.5 15.5q46 0 82 -15.5t61.5 -42t39 -62.5t13.5 -77q0 -46 -22 -84.5t-60 -61.5
q24 -10 42 -27t30 -38.5t17.5 -46t5.5 -48.5zM364 507q0 28 -10 50t-26 37t-36.5 22.5t-41.5 7.5q-22 0 -42.5 -7.5t-36.5 -22.5t-25.5 -37t-9.5 -50t9.5 -49t25.5 -35.5t36.5 -21.5t42.5 -7q21 0 41.5 7t36.5 21.5t26 35.5t10 49zM377 200q0 27 -10.5 49.5t-28 39t-40.5 26
t-48 9.5t-48 -9.5t-41 -26t-28.5 -39t-10.5 -49.5t10.5 -50.5t28.5 -40.5t41 -27t48 -10t48 10t40.5 27t28 40.5t10.5 50.5z" />
    <glyph glyph-name="nine" unicode="9" horiz-adv-x="500" 
d="M51 482q0 58 17 100t45.5 68t65 38.5t76.5 12.5q36 0 71 -13t62 -39.5t44 -65.5t17 -90q0 -64 -26 -115l-195 -379h-91l162 312l-3 1q-12 -8 -31.5 -12t-35.5 -4q-40 0 -73 13.5t-56 38.5t-36 59t-13 75zM133 491q0 -31 9.5 -55t25 -40.5t36.5 -25t45 -8.5t44.5 8.5
t36 25t24.5 40.5t9 55q0 62 -30.5 98t-83.5 36q-51 0 -83.5 -36.5t-32.5 -97.5z" />
    <glyph glyph-name="colon" unicode=":" horiz-adv-x="238" 
d="M64 0v111h103v-111h-103zM64 285v111h103v-111h-103z" />
    <glyph glyph-name="semicolon" unicode=";" horiz-adv-x="238" 
d="M67 285v111h103v-111h-103zM114 -113h-51l32 113h-28v111h103v-109z" />
    <glyph glyph-name="less" unicode="&#x3c;" horiz-adv-x="500" 
d="M450 63l-407 202v60l407 203v-71l-326 -162l326 -161v-71z" />
    <glyph glyph-name="equal" unicode="=" horiz-adv-x="500" 
d="M29 357v67h441v-67h-441zM29 165v67h441v-67h-441z" />
    <glyph glyph-name="greater" unicode="&#x3e;" horiz-adv-x="500" 
d="M44 134l326 161l-326 162v71l407 -203v-60l-407 -202v71z" />
    <glyph glyph-name="question" unicode="?" horiz-adv-x="497" 
d="M457 517q-1 -30 -9 -54t-20 -44t-27.5 -37t-31.5 -34q-26 -27 -46.5 -53.5t-20.5 -60.5v-50h-87v52q0 35 13.5 65t37.5 55q15 16 32.5 34t32.5 37.5t25 40t10 41.5q0 15 -4.5 33.5t-17.5 35.5t-35 28.5t-57 11.5q-31 0 -53.5 -14t-38 -34t-23.5 -41t-10 -36l-85 15
q12 49 33.5 85.5t50.5 60t63.5 35t72.5 11.5q44 0 80 -14t61.5 -38.5t39.5 -58t14 -72.5zM212 0v98h90v-98h-90z" />
    <glyph glyph-name="at" unicode="@" horiz-adv-x="827" 
d="M542 262q0 -30 16.5 -47t39.5 -17q19 0 38 7.5t34.5 27.5t25.5 56.5t10 94.5q0 63 -23.5 111.5t-62.5 81.5t-88.5 50.5t-101.5 17.5q-68 0 -126 -24t-100 -65.5t-66 -98t-24 -121.5q0 -72 23 -130.5t64.5 -100t100.5 -64t131 -22.5q30 0 56 2t51 7.5t49.5 14t50.5 21.5
l21 -58q-51 -20 -106.5 -32.5t-116.5 -12.5q-84 0 -156 26t-124.5 74.5t-82 118t-29.5 156.5q0 78 28.5 145.5t79 117t120 78t152.5 28.5q73 0 137 -24t111 -67t74 -101.5t27 -128.5q0 -69 -15.5 -115.5t-41 -75.5t-59 -41.5t-68.5 -12.5q-10 0 -25 4t-30 12t-27.5 19.5
t-16.5 27.5h-5q-12 -22 -43 -37t-70 -15q-28 0 -52.5 7t-43 21t-29 35t-10.5 50q0 22 7.5 42t22.5 35.5t38 24.5t54 9h118v44q0 31 -23 47t-66 16q-29 0 -50 -12.5t-35 -26.5l-46 38q23 26 59.5 43t77.5 17q34 0 61 -6t46 -20.5t29 -38t10 -58.5v-155zM298 267
q0 -25 20.5 -41.5t62.5 -16.5q47 0 72.5 17.5t25.5 52.5v43h-104q-37 0 -57 -13.5t-20 -41.5z" />
    <glyph glyph-name="A" unicode="A" horiz-adv-x="598" 
d="M499 0l-56 160h-289l-56 -160h-92l255 696h76l255 -696h-93zM351 431l-51 148h-3l-49 -144l-69 -199h239z" />
    <glyph glyph-name="B" unicode="B" horiz-adv-x="598" 
d="M560 193q0 -44 -15.5 -80t-42 -61t-61 -38.5t-73.5 -13.5h-292v696h263q51 0 89 -13.5t64 -37.5t39 -57.5t13 -73.5q0 -21 -5.5 -43.5t-18.5 -43t-33 -38t-48 -27.5v-3q30 -7 53 -24t38 -40t22.5 -49.5t7.5 -52.5zM164 619v-225h164q64 0 96 32.5t32 80.5q0 47 -32 79.5
t-96 32.5h-164zM164 318v-237h179q33 0 57.5 10t40 26.5t23.5 38t8 44.5t-8 44.5t-23.5 38t-40 26t-57.5 9.5h-179z" />
    <glyph glyph-name="C" unicode="C" horiz-adv-x="543" 
d="M528 142q-26 -70 -85 -109t-144 -39q-62 0 -108.5 21t-77.5 56t-46 82t-15 99v192q0 51 15 97.5t46 82t77.5 56.5t108.5 21q85 0 143 -40t85 -107l-82 -37q-17 45 -54 72t-91 27q-41 0 -71 -15t-50 -39.5t-30 -56.5t-10 -65v-181q0 -35 10 -67.5t30 -57.5t50 -40.5
t71 -15.5q54 0 91.5 28.5t54.5 75.5z" />
    <glyph glyph-name="D" unicode="D" horiz-adv-x="618" 
d="M304 696q78 0 141 -30t96 -99q19 -38 23 -90t4 -117q0 -73 -4 -127t-21 -95q-17 -39 -43.5 -65.5t-59.5 -42.5t-72 -23t-81 -7h-211v696h228zM480 412q0 57 -13 96t-37 63t-57 34t-73 10h-136v-534h136q49 0 83.5 14t56 40t31 62.5t9.5 81.5v133z" />
    <glyph glyph-name="E" unicode="E" horiz-adv-x="543" 
d="M76 0v696h440v-81h-352v-225h300v-77h-300v-232h352v-81h-440z" />
    <glyph glyph-name="F" unicode="F" horiz-adv-x="524" 
d="M164 615v-230h300v-77h-300v-308h-88v696h440v-81h-352z" />
    <glyph glyph-name="G" unicode="G" horiz-adv-x="598" 
d="M299 72q34 0 63 13.5t50.5 36.5t33.5 53t12 63v55h-147v80h235v-135q0 -53 -18 -98t-51 -77.5t-78.5 -51t-100.5 -18.5q-63 0 -109.5 21t-77 56.5t-45.5 82.5t-15 99v192q0 51 14.5 97.5t44.5 82t75.5 56.5t107.5 21q85 0 143 -40t85 -107l-82 -37q-17 45 -55 72t-92 27
q-41 0 -70 -15t-47.5 -39.5t-27.5 -56.5t-9 -65v-187q0 -35 10 -67.5t30 -57.5t50 -40.5t71 -15.5z" />
    <glyph glyph-name="H" unicode="H" horiz-adv-x="636" 
d="M472 0v313h-308v-313h-88v696h88v-306h308v306h88v-696h-88z" />
    <glyph glyph-name="I" unicode="I" horiz-adv-x="241" 
d="M76 0v696h88v-696h-88z" />
    <glyph glyph-name="J" unicode="J" horiz-adv-x="467" 
d="M399 222q0 -64 -16.5 -107.5t-45.5 -70.5t-68 -38.5t-83 -11.5q-53 0 -98 20t-74 52l58 65q9 -9 22 -18.5t28 -17.5t31 -13t30 -5q25 0 48 6t41 22t28.5 44.5t10.5 73.5v473h88v-474z" />
    <glyph glyph-name="K" unicode="K" horiz-adv-x="618" 
d="M510 0l-212 353l-134 -161v-192h-88v696h89v-377l3 1l128 156l183 220h102l-227 -274l258 -422h-102z" />
    <glyph glyph-name="L" unicode="L" horiz-adv-x="543" 
d="M76 0v696h88v-615h352v-81h-440z" />
    <glyph glyph-name="M" unicode="M" horiz-adv-x="748" 
d="M595 0v496l-3 -2l-54 -131l-120 -260h-77l-122 268l-52 125l-3 -2v-494h-88v696h88l147 -325l69 -162h3l69 161l145 326h86v-696h-88z" />
    <glyph glyph-name="N" unicode="N" horiz-adv-x="673" 
d="M513 0l-254 392l-92 152l-3 -1v-543h-88v696h87l245 -379l101 -167l3 2v544h87v-696h-86z" />
    <glyph glyph-name="O" unicode="O" horiz-adv-x="595" 
d="M297 701q57 0 103 -19.5t78.5 -53.5t49.5 -81.5t17 -102.5v-192q0 -59 -17.5 -107t-50 -81.5t-78 -51.5t-102.5 -18q-62 0 -108.5 21t-77.5 56t-46 82t-15 99v192q0 51 15 97.5t46 82t77.5 56.5t108.5 21zM298 618q-41 0 -71 -15t-50 -39.5t-30 -56.5t-10 -65v-185
q0 -35 10 -67.5t30 -57.5t50 -40.5t71 -15.5q37 0 66.5 14t50 38t31.5 57t11 72v185q0 36 -11 68t-31.5 56t-50 38t-66.5 14z" />
    <glyph glyph-name="P" unicode="P" horiz-adv-x="572" 
d="M561 485q0 -36 -14.5 -73t-42 -66t-68 -47.5t-91.5 -18.5h-181v-280h-88v696h255q43 0 84.5 -12t73.5 -37.5t52 -65.5t20 -96zM469 488q0 64 -38.5 95.5t-97.5 31.5h-169v-254h173q33 0 58 11.5t41.5 29.5t24.5 40.5t8 45.5z" />
    <glyph glyph-name="Q" unicode="Q" horiz-adv-x="598" 
d="M298 701q57 0 103 -19.5t78.5 -53.5t49.5 -81.5t17 -102.5v-192q0 -76 -29 -134l91 -73l-48 -60l-89 71q-32 -30 -75.5 -46t-97.5 -16q-62 0 -108.5 21t-77.5 56t-46 82t-15 99v192q0 51 15 97.5t46 82t77.5 56.5t108.5 21zM299 616q-41 0 -71 -15t-50 -39.5t-30 -56.5
t-10 -65v-181q0 -35 10 -67.5t30 -57.5t50 -40.5t71 -15.5q30 0 55 9t45 26l-97 78l51 59l90 -73q7 19 11 39t4 43v181q0 36 -11 68t-31.5 56t-50 38t-66.5 14z" />
    <glyph glyph-name="R" unicode="R" horiz-adv-x="598" 
d="M454 0l-133 306h-157v-306h-88v696h284q42 0 79 -14t64 -39t42.5 -60t15.5 -77q0 -72 -41.5 -121.5t-108.5 -69.5l141 -315h-98zM473 506q0 59 -36 86t-93 27h-180v-236h176q57 0 95 31.5t38 91.5z" />
    <glyph glyph-name="S" unicode="S" horiz-adv-x="544" 
d="M519 198q0 -48 -18.5 -85.5t-51.5 -64t-79 -40.5t-101 -14q-33 0 -68.5 6t-71 18t-68 29.5t-59.5 41.5l56 71q42 -40 97 -61t118 -21q33 0 61.5 7t49 21.5t32.5 37.5t12 55q0 30 -13 49t-35 31.5t-51 20.5t-62 14q-41 8 -81 17.5t-72 29.5t-52 54.5t-20 91.5
q0 48 18.5 84.5t50.5 61.5t73.5 37.5t88.5 12.5q71 0 125 -16t98 -51l-49 -75q-38 26 -81.5 41t-92.5 15q-70 0 -107 -29t-37 -81q0 -27 12.5 -45.5t37.5 -31.5t61.5 -22.5t83.5 -18.5q33 -7 67.5 -17t63 -30.5t46.5 -54.5t18 -89z" />
    <glyph glyph-name="T" unicode="T" horiz-adv-x="486" 
d="M287 619v-619h-88v619h-198v77h484v-77h-198z" />
    <glyph glyph-name="U" unicode="U" horiz-adv-x="618" 
d="M557 696v-444q0 -59 -17.5 -107t-50 -81.5t-78 -51.5t-102.5 -18q-62 0 -108.5 21t-77.5 56t-46 82t-15 99v444h87v-437q0 -35 10 -67.5t30 -57.5t50 -40.5t71 -15.5q74 0 116.5 46.5t42.5 134.5v437h88z" />
    <glyph glyph-name="V" unicode="V" horiz-adv-x="543" 
d="M274 151q14 48 28.5 96t28.5 96l109 353h97l-231 -696h-72l-231 696h96l111 -355l59 -191z" />
    <glyph glyph-name="W" unicode="W" horiz-adv-x="823" 
d="M406 531l-45 -172l-97 -359h-77l-175 696h96l78 -341l42 -188l4 -1l46 187l95 343h72l98 -349l48 -182h3q9 42 18 89.5t18 89.5l80 352h96l-176 -696h-76l-94 346l-50 186z" />
    <glyph glyph-name="X" unicode="X" horiz-adv-x="523" 
d="M426 0l-165 289l-164 -289h-98l214 357l-200 339h98l150 -271l151 271h98l-200 -339l214 -357h-98z" />
    <glyph glyph-name="Y" unicode="Y" horiz-adv-x="508" 
d="M295 276v-276h-84v276l-209 420h93l97 -193l62 -133l65 139l94 187h91z" />
    <glyph glyph-name="Z" unicode="Z" horiz-adv-x="505" 
d="M33 0v77l339 542h-326v77h427v-70l-341 -545h341v-81h-440z" />
    <glyph glyph-name="bracketleft" unicode="[" horiz-adv-x="261" 
d="M73 -105v803h169v-56h-94v-691h94v-56h-169z" />
    <glyph glyph-name="backslash" unicode="\" horiz-adv-x="317" 
d="M-1 725h65l251 -767h-65z" />
    <glyph glyph-name="bracketright" unicode="]" horiz-adv-x="261" 
d="M27 -105v56h93v691h-93v56h168v-803h-168z" />
    <glyph glyph-name="asciicircum" unicode="^" horiz-adv-x="500" 
d="M23 328l202 367h60l203 -367h-71l-162 295l-161 -295h-71z" />
    <glyph glyph-name="underscore" unicode="_" horiz-adv-x="500" 
d="M0 -129v60h500v-60h-500z" />
    <glyph glyph-name="grave" unicode="`" horiz-adv-x="491" 
d="M294 551l-100 172l81 25l72 -177z" />
    <glyph glyph-name="a" unicode="a" horiz-adv-x="482" 
d="M232 501q40 0 76.5 -7.5t64 -25.5t43.5 -49t16 -78v-341h-83v43l-1 1q-14 -22 -50 -36t-87 -14q-85 0 -130.5 41.5t-45.5 105.5q0 29 10 55.5t29.5 46.5t49 32t69.5 12h156v56q0 41 -27 61t-87 20q-47 0 -74 -11.5t-44 -31.5l-52 55q28 32 72 48.5t95 16.5zM113 146
q0 -35 26.5 -56t81.5 -21q24 0 47 4t41 14.5t29 28t11 45.5v58h-136q-48 0 -74 -19t-26 -54z" />
    <glyph glyph-name="b" unicode="b" horiz-adv-x="496" 
d="M455 255q0 -47 -6.5 -94t-26 -84t-54 -60t-90.5 -23q-36 0 -73 12t-62 49h-2v-55h-82v726h82v-286h2q32 35 65.5 48t69.5 13q53 0 87 -21.5t53.5 -56t27.5 -78.5t9 -90zM370 248q0 30 -3.5 60.5t-15.5 55t-35 40t-61 15.5t-60.5 -16t-34.5 -41t-15.5 -55.5t-3.5 -58.5
q0 -27 3.5 -58.5t15.5 -58.5t34.5 -44.5t60.5 -17.5q39 0 62 17t34.5 43.5t15 58t3.5 60.5z" />
    <glyph glyph-name="c" unicode="c" horiz-adv-x="431" 
d="M416 64q-32 -32 -72 -51t-91 -19q-43 0 -83.5 14t-72 44.5t-50.5 78.5t-19 116q0 69 19 117t50.5 78.5t72 44.5t83.5 14q50 0 90 -19t72 -50l-53 -60q-20 23 -48 36.5t-57 13.5q-70 0 -108.5 -43t-38.5 -132q0 -88 38.5 -131.5t108.5 -43.5q32 0 59.5 15.5t45.5 35.5
l54 -59v0z" />
    <glyph glyph-name="d" unicode="d" horiz-adv-x="496" 
d="M361 0v48l-3 1q-33 -32 -67.5 -43.5t-71.5 -11.5q-53 0 -87 20t-53 54t-26 79.5t-7 95.5q0 48 8 94.5t30 82.5t59 58.5t96 22.5q37 0 69 -12.5t51 -37.5h2v275h82v-726h-82zM361 248q0 28 -3.5 58.5t-15 55.5t-34 41t-59.5 16q-39 0 -62 -15.5t-35 -40t-16 -55t-4 -60.5
q0 -35 3.5 -66t15 -55t34 -38t60.5 -14q37 0 60 17t35.5 42.5t16.5 56t4 57.5z" />
    <glyph glyph-name="e" unicode="e" horiz-adv-x="481" 
d="M125 220v-8q0 -29 8 -55t24 -45.5t40 -30.5t56 -11q24 0 55.5 12t56.5 35l53 -59q-35 -34 -79 -49t-90 -15q-38 0 -75.5 10.5t-67.5 38.5t-48.5 77t-18.5 126q0 73 19 122.5t49 79t67 42t72 12.5q41 0 77 -14.5t63 -42.5t42.5 -68.5t15.5 -92.5v-64h-319zM242 424
q-51 0 -82 -35t-35 -100h233q-3 67 -34 101t-82 34z" />
    <glyph glyph-name="f" unicode="f" horiz-adv-x="279" 
d="M166 424v-424h-83v424h-61v72h61v105q0 66 37 98t91 32h59v-76h-51q-32 0 -42.5 -19t-10.5 -45v-95h104v-72h-104z" />
    <glyph glyph-name="g" unicode="g" horiz-adv-x="511" 
d="M443 9q0 -56 -17.5 -96.5t-47 -66.5t-68.5 -38.5t-82 -12.5q-42 0 -85 13t-75 44l49 67q20 -17 52 -31t61 -14q56 0 93 32t37 92v58h-2q-31 -35 -64.5 -48t-70.5 -13q-53 0 -87 20.5t-54 54.5t-28 77.5t-8 89.5q0 48 6.5 95.5t26.5 85t56.5 61t95.5 23.5q36 0 71.5 -16
t55.5 -45h2v55h83v-487zM131 248q0 -34 3.5 -65t15 -54.5t34 -37.5t60.5 -14q37 0 60 16t35.5 41t16.5 55.5t4 58.5q0 25 -2.5 55t-14 56.5t-34.5 44t-63 17.5q-39 0 -62 -16t-34.5 -41t-15 -55.5t-3.5 -60.5z" />
    <glyph glyph-name="h" unicode="h" horiz-adv-x="506" 
d="M367 0v297q0 57 -23.5 90t-85.5 33q-25 0 -46.5 -8.5t-38 -24.5t-26 -39t-9.5 -51v-297h-82v726h82v-292h3q26 32 62 49.5t76 17.5q36 0 67 -10.5t54 -32t36 -54t13 -75.5v-329h-82z" />
    <glyph glyph-name="i" unicode="i" horiz-adv-x="224" 
d="M71 614v82h82v-82h-82zM71 0v496h82v-496h-82z" />
    <glyph glyph-name="j" unicode="j" horiz-adv-x="243" 
d="M81 614v82h83v-82h-83zM164 -67q0 -60 -32 -97.5t-95 -37.5h-44v75h30q27 1 42.5 18t15.5 48v557h83v-563z" />
    <glyph glyph-name="k" unicode="k" horiz-adv-x="506" 
d="M404 0l-164 249l-90 -99v-150h-82v726h82v-469h3l214 239h97l-169 -187l204 -309h-95z" />
    <glyph glyph-name="l" unicode="l" horiz-adv-x="243" 
d="M190 0q-54 0 -88 25.5t-34 89.5v611h82v-604q0 -47 51 -47h24v-75h-35z" />
    <glyph glyph-name="m" unicode="m" horiz-adv-x="817" 
d="M678 0v297q0 57 -25 91t-89 34q-50 0 -82 -34t-32 -91v-297h-83v297q0 57 -25 91t-89 34q-50 0 -82 -34t-32 -91v-297h-83v496h83v-61h2q25 32 61.5 49t76.5 17q51 0 86 -19t61 -52q0 1 1 0q35 38 74.5 54.5t88.5 16.5q36 0 67 -11.5t54 -33t36 -53.5t13 -73v-330h-82z
" />
    <glyph glyph-name="n" unicode="n" horiz-adv-x="506" 
d="M367 0v297q0 57 -24 90t-89 33q-50 0 -83 -33t-33 -90v-297h-82v497h82v-63h3q26 32 64.5 49.5t78.5 17.5q36 0 66 -10.5t52 -32t34.5 -54t12.5 -75.5v-329h-82z" />
    <glyph glyph-name="o" unicode="o" horiz-adv-x="514" 
d="M263 500q54 0 96 -21.5t68 -61.5q17 -27 25.5 -65.5t8.5 -86.5q0 -64 -7 -107.5t-24 -72.5q-26 -44 -72.5 -67.5t-105.5 -23.5q-54 0 -96 18.5t-68 56.5q-20 31 -28.5 74t-8.5 103q0 42 5.5 77.5t19.5 64.5q25 54 73.5 83t113.5 29zM260 426q-37 0 -65.5 -18.5
t-43.5 -51.5q-11 -23 -14 -50.5t-4 -60.5q0 -33 2.5 -59.5t12.5 -48.5q14 -32 41 -50t64 -18q40 0 71.5 21t45.5 67q5 18 6.5 41.5t1.5 63.5q0 29 -2.5 51.5t-10.5 40.5q-14 37 -42 54.5t-63 17.5z" />
    <glyph glyph-name="p" unicode="p" horiz-adv-x="499" 
d="M138 496v-55l3 -1q29 33 63.5 47t71.5 14q53 0 87.5 -21.5t54.5 -57t27.5 -80t7.5 -90.5q0 -48 -8 -94.5t-30 -82.5t-59.5 -58.5t-95.5 -22.5q-37 0 -67.5 12t-52.5 38h-2v-242h-82v694h82zM138 247q0 -28 3.5 -58.5t15 -55.5t33.5 -41t60 -16q39 0 62 15.5t35 40t16 55
t4 60.5q0 29 -3 59.5t-14 56t-33.5 41.5t-61.5 16q-38 0 -61 -17t-35.5 -42.5t-16.5 -56t-4 -57.5z" />
    <glyph glyph-name="q" unicode="q" horiz-adv-x="511" 
d="M56 240q0 55 9.5 102.5t31.5 82.5t59 55.5t92 20.5q36 0 68 -16.5t52 -46.5h2v58h82v-697h-82v256h-2q-32 -35 -67.5 -48t-71.5 -13q-53 0 -86.5 21.5t-52.5 56t-26 78.5t-8 90zM141 247q0 -30 3.5 -60.5t15.5 -55t35 -40t61 -15.5q37 0 59.5 16t34.5 41t16 55.5t4 58.5
q0 27 -3.5 58.5t-15.5 58.5t-34.5 44.5t-60.5 17.5q-39 0 -62 -17t-34.5 -43.5t-15 -58t-3.5 -60.5z" />
    <glyph glyph-name="r" unicode="r" horiz-adv-x="365" 
d="M333 401q-29 19 -70 19q-49 0 -81 -30t-32 -90v-300h-82v496h82v-63h4q26 38 58 53t72 15q26 0 48 -5.5t36 -15.5z" />
    <glyph glyph-name="s" unicode="s" horiz-adv-x="457" 
d="M421 147q0 -35 -14.5 -63t-40.5 -48t-61.5 -31t-78.5 -11q-54 0 -108 17t-99 55l50 63q35 -30 73.5 -45.5t87.5 -15.5q45 0 77 19t32 58q0 38 -31.5 51.5t-82.5 18.5q-29 3 -60 8.5t-57 19.5t-42.5 39.5t-16.5 67.5q0 35 14.5 63t39.5 47.5t58 30t69 10.5q57 0 99.5 -14
t77.5 -40l-44 -66q-29 20 -61 32t-72 12q-48 0 -74.5 -20t-26.5 -53q0 -34 34 -47.5t102 -20.5q26 -3 54 -10.5t50.5 -23t37 -41t14.5 -62.5z" />
    <glyph glyph-name="t" unicode="t" horiz-adv-x="308" 
d="M209 0q-51 0 -83 29.5t-32 86.5v309h-59v71h59v123h82v-123h76v-71h-76v-289q0 -23 9 -42.5t40 -19.5h43v-74h-59z" />
    <glyph glyph-name="u" unicode="u" horiz-adv-x="514" 
d="M367 0v56h-3q-25 -32 -61.5 -47t-74.5 -15t-70 9.5t-54.5 30.5t-35 54t-12.5 79v329h82v-298q0 -32 5 -56t18 -39.5t35 -23t56 -7.5q49 0 82 34.5t33 91.5v298h82v-496h-82z" />
    <glyph glyph-name="v" unicode="v" horiz-adv-x="452" 
d="M231 115q12 37 26.5 82t25.5 82q18 53 36 108.5t36 108.5h91l-183 -496h-72l-184 496h90q18 -52 36 -108t36 -108l58 -165h4z" />
    <glyph glyph-name="w" unicode="w" horiz-adv-x="719" 
d="M516 118q8 29 16 60t16 60l72 258h91l-159 -496h-78l-74 239l-43 138l-40 -137l-74 -240h-79l-158 496h90l75 -261l32 -111h4q8 27 16 54.5t16 53.5l82 264h76l80 -261l34 -117h5z" />
    <glyph glyph-name="x" unicode="x" horiz-adv-x="463" 
d="M349 0l-117 193l-117 -193h-99l169 254l-161 242h98l110 -186l110 186h99l-162 -243l169 -253h-99z" />
    <glyph glyph-name="y" unicode="y" horiz-adv-x="438" 
d="M225 -105q-11 -30 -25 -49t-31 -29t-36 -13.5t-39 -3.5h-42v72h41q20 0 35.5 12t26.5 44l27 82l-182 486h91l79 -225l51 -156h3l51 155l77 226h86z" />
    <glyph glyph-name="z" unicode="z" horiz-adv-x="434" 
d="M34 0v68l270 356h-255v72h351v-71l-268 -349h268v-76h-366z" />
    <glyph glyph-name="braceleft" unicode="{" horiz-adv-x="261" 
d="M185 -103q-39 0 -65.5 29t-26.5 78v139q0 53 -19 88t-59 40v51q20 3 34.5 14.5t24.5 29t14.5 40t4.5 46.5v136q0 50 26.5 79t65.5 29h68v-54h-41q-14 0 -22.5 -8t-14 -20.5t-7.5 -28t-2 -30.5v-125q0 -32 -9 -55.5t-21 -39.5t-24.5 -24.5t-20.5 -11.5v-3q8 -3 20.5 -11.5
t24.5 -24.5t21 -39t9 -54v-130q0 -15 2 -30.5t7.5 -28t14 -20.5t22.5 -8h41v-53h-68z" />
    <glyph glyph-name="bar" unicode="|" horiz-adv-x="204" 
d="M70 -162v878h65v-878h-65z" />
    <glyph glyph-name="braceright" unicode="}" horiz-adv-x="261" 
d="M249 271q-40 -5 -58.5 -40t-18.5 -88v-139q0 -49 -26.5 -78t-65.5 -29h-69v53h42q13 0 22 8t14 20.5t7.5 28t2.5 30.5v130q0 31 8.5 54t20.5 39t25 24.5t21 11.5v3q-8 3 -21 11.5t-25 24.5t-20.5 39.5t-8.5 55.5v125q0 15 -0.5 30.5t-5 28t-14 20.5t-26.5 8h-42v50h66
q48 0 71.5 -29.5t23.5 -74.5v-136q0 -24 4.5 -46.5t14 -40t24 -29t34.5 -14.5v-51v0z" />
    <glyph glyph-name="asciitilde" unicode="~" horiz-adv-x="500" 
d="M477 312q-28 -45 -58.5 -68t-76.5 -23q-20 0 -43.5 10t-47.5 22.5t-47.5 22.5t-44.5 10q-27 0 -42 -13t-34 -38l-57 39q27 46 61 66t73 20q23 0 46.5 -10t47 -22.5t46 -22.5t43.5 -10q25 0 41 16.5t36 43.5l57 -43v0z" />
    <glyph glyph-name="Adieresis" unicode="&#xc4;" horiz-adv-x="598" 
d="M499 0l-56 160h-289l-56 -160h-92l255 696h76l255 -696h-93zM351 431l-51 148h-3l-49 -144l-69 -199h239zM344 770v88h88v-88h-88zM164 770v88h88v-88h-88z" />
    <glyph glyph-name="Eacute" unicode="&#xc9;" horiz-adv-x="543" 
d="M76 0v696h440v-81h-352v-225h300v-77h-300v-232h352v-81h-440zM230 780l148 122l59 -61l-170 -103z" />
    <glyph glyph-name="Odieresis" unicode="&#xd6;" horiz-adv-x="595" 
d="M297 701q57 0 103 -19.5t78.5 -53.5t49.5 -81.5t17 -102.5v-192q0 -59 -17.5 -107t-50 -81.5t-78 -51.5t-102.5 -18q-62 0 -108.5 21t-77.5 56t-46 82t-15 99v192q0 51 15 97.5t46 82t77.5 56.5t108.5 21zM298 618q-41 0 -71 -15t-50 -39.5t-30 -56.5t-10 -65v-185
q0 -35 10 -67.5t30 -57.5t50 -40.5t71 -15.5q37 0 66.5 14t50 38t31.5 57t11 72v185q0 36 -11 68t-31.5 56t-50 38t-66.5 14zM339 770v88h88v-88h-88zM159 770v88h88v-88h-88z" />
    <glyph glyph-name="Udieresis" unicode="&#xdc;" horiz-adv-x="618" 
d="M557 696v-444q0 -59 -17.5 -107t-50 -81.5t-78 -51.5t-102.5 -18q-62 0 -108.5 21t-77.5 56t-46 82t-15 99v444h87v-437q0 -35 10 -67.5t30 -57.5t50 -40.5t71 -15.5q74 0 116.5 46.5t42.5 134.5v437h88zM356 770v88h88v-88h-88zM176 770v88h88v-88h-88z" />
    <glyph glyph-name="dieresistonos" unicode="&#x385;" horiz-adv-x="391" 
d="M292 589v89h87v-89h-87zM7 589v89h87v-89h-87zM127 571l72 177l81 -25l-100 -172z" />
    <glyph glyph-name="agrave" unicode="&#xe0;" horiz-adv-x="482" 
d="M232 501q40 0 76.5 -7.5t64 -25.5t43.5 -49t16 -78v-341h-83v43l-1 1q-14 -22 -50 -36t-87 -14q-85 0 -130.5 41.5t-45.5 105.5q0 29 10 55.5t29.5 46.5t49 32t69.5 12h156v56q0 41 -27 61t-87 20q-47 0 -74 -11.5t-44 -31.5l-52 55q28 32 72 48.5t95 16.5zM113 146
q0 -35 26.5 -56t81.5 -21q24 0 47 4t41 14.5t29 28t11 45.5v58h-136q-48 0 -74 -19t-26 -54zM234 551l-100 172l81 25l72 -177z" />
    <glyph glyph-name="acircumflex" unicode="&#xe2;" horiz-adv-x="482" 
d="M232 501q40 0 76.5 -7.5t64 -25.5t43.5 -49t16 -78v-341h-83v43l-1 1q-14 -22 -50 -36t-87 -14q-85 0 -130.5 41.5t-45.5 105.5q0 29 10 55.5t29.5 46.5t49 32t69.5 12h156v56q0 41 -27 61t-87 20q-47 0 -74 -11.5t-44 -31.5l-52 55q28 32 72 48.5t95 16.5zM113 146
q0 -35 26.5 -56t81.5 -21q24 0 47 4t41 14.5t29 28t11 45.5v58h-136q-48 0 -74 -19t-26 -54zM242 659l-134 -107l-39 38l150 153h53l143 -151l-40 -39z" />
    <glyph glyph-name="adieresis" unicode="&#xe4;" horiz-adv-x="482" 
d="M232 501q40 0 76.5 -7.5t64 -25.5t43.5 -49t16 -78v-341h-83v43l-1 1q-14 -22 -50 -36t-87 -14q-85 0 -130.5 41.5t-45.5 105.5q0 29 10 55.5t29.5 46.5t49 32t69.5 12h156v56q0 41 -27 61t-87 20q-47 0 -74 -11.5t-44 -31.5l-52 55q28 32 72 48.5t95 16.5zM113 146
q0 -35 26.5 -56t81.5 -21q24 0 47 4t41 14.5t29 28t11 45.5v58h-136q-48 0 -74 -19t-26 -54zM292 597v88h88v-88h-88zM112 597v88h88v-88h-88z" />
    <glyph glyph-name="tonos" unicode="&#x384;" horiz-adv-x="491" 
d="M193 571l72 177l81 -25l-100 -172z" />
    <glyph glyph-name="dieresis" unicode="&#xa8;" horiz-adv-x="491" 
d="M289 597v88h88v-88h-88zM109 597v88h88v-88h-88z" />
    <glyph glyph-name="ccedilla" unicode="&#xe7;" horiz-adv-x="431" 
d="M416 64q-32 -32 -72 -51t-91 -19h-2l-10 -33q29 -2 48 -10.5t30.5 -21t16.5 -26.5t5 -26q0 -13 -5.5 -27.5t-18 -27t-33 -20.5t-51.5 -8q-20 0 -41 3.5t-46 14.5l17 43q21 -9 38.5 -12t31.5 -3q20 0 33.5 10t13.5 26q0 19 -16 29.5t-42 10.5h-14l-20 21l19 61
q-36 6 -68.5 23.5t-57 48t-39 74.5t-14.5 103q0 69 19 117t50.5 78.5t72 44.5t83.5 14q50 0 90 -19t72 -50l-53 -60q-20 23 -48 36.5t-57 13.5q-70 0 -108.5 -43t-38.5 -132q0 -88 38.5 -131.5t108.5 -43.5q32 0 59.5 15.5t45.5 35.5l54 -59v0z" />
    <glyph glyph-name="eacute" unicode="&#xe9;" horiz-adv-x="481" 
d="M125 220v-8q0 -29 8 -55t24 -45.5t40 -30.5t56 -11q24 0 55.5 12t56.5 35l53 -59q-35 -34 -79 -49t-90 -15q-38 0 -75.5 10.5t-67.5 38.5t-48.5 77t-18.5 126q0 73 19 122.5t49 79t67 42t72 12.5q41 0 77 -14.5t63 -42.5t42.5 -68.5t15.5 -92.5v-64h-319zM242 424
q-51 0 -82 -35t-35 -100h233q-3 67 -34 101t-82 34zM202 571l72 177l81 -25l-100 -172z" />
    <glyph glyph-name="egrave" unicode="&#xe8;" horiz-adv-x="481" 
d="M125 220v-8q0 -29 8 -55t24 -45.5t40 -30.5t56 -11q24 0 55.5 12t56.5 35l53 -59q-35 -34 -79 -49t-90 -15q-38 0 -75.5 10.5t-67.5 38.5t-48.5 77t-18.5 126q0 73 19 122.5t49 79t67 42t72 12.5q41 0 77 -14.5t63 -42.5t42.5 -68.5t15.5 -92.5v-64h-319zM242 424
q-51 0 -82 -35t-35 -100h233q-3 67 -34 101t-82 34zM241 551l-100 172l81 25l72 -177z" />
    <glyph glyph-name="ecircumflex" unicode="&#xea;" horiz-adv-x="481" 
d="M125 220v-8q0 -29 8 -55t24 -45.5t40 -30.5t56 -11q24 0 55.5 12t56.5 35l53 -59q-35 -34 -79 -49t-90 -15q-38 0 -75.5 10.5t-67.5 38.5t-48.5 77t-18.5 126q0 73 19 122.5t49 79t67 42t72 12.5q41 0 77 -14.5t63 -42.5t42.5 -68.5t15.5 -92.5v-64h-319zM242 424
q-51 0 -82 -35t-35 -100h233q-3 67 -34 101t-82 34zM252 659l-134 -107l-39 38l150 153h53l143 -151l-40 -39z" />
    <glyph glyph-name="edieresis" unicode="&#xeb;" horiz-adv-x="481" 
d="M125 220v-8q0 -29 8 -55t24 -45.5t40 -30.5t56 -11q24 0 55.5 12t56.5 35l53 -59q-35 -34 -79 -49t-90 -15q-38 0 -75.5 10.5t-67.5 38.5t-48.5 77t-18.5 126q0 73 19 122.5t49 79t67 42t72 12.5q41 0 77 -14.5t63 -42.5t42.5 -68.5t15.5 -92.5v-64h-319zM242 424
q-51 0 -82 -35t-35 -100h233q-3 67 -34 101t-82 34zM299 597v88h88v-88h-88zM119 597v88h88v-88h-88z" />
    <glyph glyph-name="sterling" unicode="&#xa3;" horiz-adv-x="500" 
d="M44 362h69q-11 40 -26 78.5t-15 80.5q0 34 12.5 66.5t36.5 57.5t58 40t78 15q34 0 61.5 -3.5t51 -14t45 -29t43.5 -48.5l-72 -51q-28 42 -62 55.5t-69 13.5q-14 0 -29.5 -5.5t-29 -18t-22.5 -32t-9 -46.5q0 -21 4.5 -41t11 -39.5t13.5 -39t11 -39.5h159v-68h-152
q-2 -54 -14 -109.5t-47 -108.5h306v-76h-413v64q36 48 60.5 106t26.5 124h-87v68z" />
    <glyph glyph-name="trademark" unicode="&#x2122;" horiz-adv-x="844" 
d="M723 292l-1 254l-99 -195h-53l-100 195v-254h-62v403h62l129 -258l126 258h61v-403h-63zM224 638v-345h-63v345h-124v58h311v-58h-124z" />
    <glyph glyph-name="icircumflex" unicode="&#xee;" horiz-adv-x="306" 
d="M110 0v495h88v-495h-88zM153 659l-134 -107l-39 38l150 153h53l143 -151l-40 -39z" />
    <glyph glyph-name="idieresis" unicode="&#xef;" horiz-adv-x="228" 
d="M71 0v495h88v-495h-88zM160 597v88h88v-88h-88zM-20 597v88h88v-88h-88z" />
    <glyph glyph-name="bullet" unicode="&#x2022;" horiz-adv-x="408" 
d="M338 267q0 -27 -10.5 -51t-28.5 -41.5t-42 -28t-51 -10.5t-51 10.5t-42 28t-28 41.5t-10 51t10 51t28 41.5t42 28t51 10.5t51 -10.5t42 -28t28.5 -41.5t10.5 -51z" />
    <glyph glyph-name="ocircumflex" unicode="&#xf4;" horiz-adv-x="514" 
d="M263 500q54 0 96 -21.5t68 -61.5q17 -27 25.5 -65.5t8.5 -86.5q0 -64 -7 -107.5t-24 -72.5q-26 -44 -72.5 -67.5t-105.5 -23.5q-54 0 -96 18.5t-68 56.5q-20 31 -28.5 74t-8.5 103q0 42 5.5 77.5t19.5 64.5q25 54 73.5 83t113.5 29zM260 426q-37 0 -65.5 -18.5
t-43.5 -51.5q-11 -23 -14 -50.5t-4 -60.5q0 -33 2.5 -59.5t12.5 -48.5q14 -32 41 -50t64 -18q40 0 71.5 21t45.5 67q5 18 6.5 41.5t1.5 63.5q0 29 -2.5 51.5t-10.5 40.5q-14 37 -42 54.5t-63 17.5zM255 659l-134 -107l-39 38l150 153h53l143 -151l-40 -39z" />
    <glyph glyph-name="odieresis" unicode="&#xf6;" horiz-adv-x="514" 
d="M263 500q54 0 96 -21.5t68 -61.5q17 -27 25.5 -65.5t8.5 -86.5q0 -64 -7 -107.5t-24 -72.5q-26 -44 -72.5 -67.5t-105.5 -23.5q-54 0 -96 18.5t-68 56.5q-20 31 -28.5 74t-8.5 103q0 42 5.5 77.5t19.5 64.5q25 54 73.5 83t113.5 29zM260 426q-37 0 -65.5 -18.5
t-43.5 -51.5q-11 -23 -14 -50.5t-4 -60.5q0 -33 2.5 -59.5t12.5 -48.5q14 -32 41 -50t64 -18q40 0 71.5 21t45.5 67q5 18 6.5 41.5t1.5 63.5q0 29 -2.5 51.5t-10.5 40.5q-14 37 -42 54.5t-63 17.5zM299 597v88h88v-88h-88zM119 597v88h88v-88h-88z" />
    <glyph glyph-name="sfthyphen" unicode="&#xad;" horiz-adv-x="392" 
d="M52 230v75h288v-75h-288z" />
    <glyph glyph-name="ugrave" unicode="&#xf9;" horiz-adv-x="514" 
d="M367 0v56h-3q-25 -32 -61.5 -47t-74.5 -15t-70 9.5t-54.5 30.5t-35 54t-12.5 79v329h82v-298q0 -32 5 -56t18 -39.5t35 -23t56 -7.5q49 0 82 34.5t33 91.5v298h82v-496h-82zM244 551l-100 172l81 25l72 -177z" />
    <glyph glyph-name="ucircumflex" unicode="&#xfb;" horiz-adv-x="514" 
d="M367 0v56h-3q-25 -32 -61.5 -47t-74.5 -15t-70 9.5t-54.5 30.5t-35 54t-12.5 79v329h82v-298q0 -32 5 -56t18 -39.5t35 -23t56 -7.5q49 0 82 34.5t33 91.5v298h82v-496h-82zM252 659l-134 -107l-39 38l150 153h53l143 -151l-40 -39z" />
    <glyph glyph-name="udieresis" unicode="&#xfc;" horiz-adv-x="514" 
d="M367 0v56h-3q-25 -32 -61.5 -47t-74.5 -15t-70 9.5t-54.5 30.5t-35 54t-12.5 79v329h82v-298q0 -32 5 -56t18 -39.5t35 -23t56 -7.5q49 0 82 34.5t33 91.5v298h82v-496h-82zM289 597v88h88v-88h-88zM109 597v88h88v-88h-88z" />
    <glyph glyph-name="dagger" unicode="&#x2020;" horiz-adv-x="466" 
d="M273 390v-576h-80v576h-170v66h170v240h80v-240h170v-66h-170z" />
    <glyph glyph-name="Gamma" unicode="&#x393;" horiz-adv-x="524" 
d="M164 615v-615h-88v696h440v-81h-352z" />
    <glyph glyph-name="Delta" unicode="&#x394;" horiz-adv-x="598" 
d="M6 0l255 696h76l255 -696h-586zM352 428l-52 161h-3l-52 -162l-120 -350h347z" />
    <glyph glyph-name="Delta" unicode="&#x2206;" horiz-adv-x="598" 
d="M6 0l255 696h76l255 -696h-586zM352 428l-52 161h-3l-52 -162l-120 -350h347z" />
    <glyph glyph-name="Theta" unicode="&#x398;" horiz-adv-x="580" 
d="M289 701q57 0 103 -19.5t78.5 -53.5t49.5 -81.5t17 -102.5v-192q0 -59 -17.5 -107t-50 -81.5t-78 -51.5t-102.5 -18q-62 0 -108.5 21t-77.5 56t-46 82t-15 99v192q0 51 15 97.5t46 82t77.5 56.5t108.5 21zM290 616q-41 0 -71 -15t-50 -39.5t-30 -56.5t-10 -65v-181
q0 -35 10 -67.5t30 -57.5t50 -40.5t71 -15.5q37 0 66.5 14t50 38t31.5 57t11 72v181q0 36 -11 68t-31.5 56t-50 38t-66.5 14zM162 393h256v-75h-256v75z" />
    <glyph glyph-name="Lambda" unicode="&#x39b;" horiz-adv-x="598" 
d="M499 0l-61 176q-8 22 -18.5 52t-26.5 75t-39 110t-54 157h-3q-32 -92 -54.5 -157t-38 -110t-26.5 -75t-18 -52l-62 -176h-92l255 696h76l255 -696h-93z" />
    <glyph glyph-name="Xi" unicode="&#x39e;" horiz-adv-x="568" 
d="M57 615v81h450v-81h-450zM111 313v77h342v-77h-342zM57 0v81h450v-81h-450z" />
    <glyph glyph-name="Pi" unicode="&#x3a0;" horiz-adv-x="636" 
d="M472 0v619h-308v-619h-88v696h484v-696h-88z" />
    <glyph glyph-name="germandbls" unicode="&#xdf;" horiz-adv-x="517" 
d="M465 231q0 -42 -10.5 -84t-34 -75.5t-61.5 -54t-94 -20.5h-38v71h36q33 0 55 13.5t35.5 36.5t19 53t5.5 62q0 25 -5.5 50t-18.5 45.5t-33 33t-49 12.5h-35v71h31q21 0 37.5 8.5t28.5 23t18.5 33.5t6.5 39q0 21 -6 41t-18.5 35t-32 24.5t-47.5 9.5q-32 0 -52.5 -11
t-32.5 -28.5t-17 -38.5t-5 -41v-540h-82v536q0 45 14 80.5t39.5 61t61 39t79.5 13.5t77.5 -15t56.5 -39.5t35 -55.5t12 -63q0 -20 -4.5 -42t-14.5 -42t-24.5 -36.5t-35.5 -25.5q28 -8 47.5 -26t32 -43t18 -54t5.5 -57z" />
    <glyph glyph-name="registered" unicode="&#xae;" horiz-adv-x="560" 
d="M488 492q0 -45 -16 -82.5t-44 -65.5t-66 -43.5t-83 -15.5q-44 0 -82.5 15.5t-66.5 43.5t-44 65.5t-16 82.5t16 83.5t44 66.5t66.5 44t82.5 16q45 0 83 -16t66 -44t44 -66.5t16 -83.5zM448 492q0 37 -13 68.5t-35.5 54.5t-53.5 36t-67 13t-67 -13t-53.5 -36t-35.5 -54.5
t-13 -68.5q0 -36 13 -67.5t35.5 -54t53.5 -35.5t67 -13t67 13t53.5 35.5t35.5 54t13 67.5zM284 472h-42v-101h-41v242h100q30 0 51 -18.5t21 -50.5q0 -23 -13 -40.5t-34 -25.5l56 -107h-47zM242 576v-66h52q17 0 27.5 9t10.5 25q0 32 -37 32h-53z" />
    <glyph glyph-name="copyright" unicode="&#xa9;" horiz-adv-x="803" 
d="M553 215q-18 -46 -55 -72t-91 -26q-38 0 -67 13t-48.5 35t-29 51t-9.5 62v116q0 32 9.5 61t29 51t48.5 35t67 13q54 0 91 -26t54 -71l-59 -26q-11 27 -33 44.5t-52 17.5q-23 0 -40.5 -8.5t-29 -23t-17 -33t-5.5 -37.5v-109q0 -20 5.5 -38.5t17 -33.5t29 -24t40.5 -9
q31 0 52.5 18.5t32.5 47.5zM404 -8q-76 0 -139.5 26.5t-110 73.5t-72.5 110.5t-26 138.5t26.5 139.5t73.5 111.5t110.5 73.5t137.5 26.5t138 -26.5t111 -73.5t73.5 -111.5t26.5 -139.5t-26.5 -138.5t-73.5 -110.5t-111 -73.5t-138 -26.5zM404 631q-61 0 -113 -22t-90.5 -61
t-60 -92t-21.5 -115t21.5 -114.5t60 -91t90.5 -60.5t113 -22t113 22t90.5 60.5t60 91t21.5 114.5t-21.5 115t-60 92t-90.5 61t-113 22z" />
    <glyph glyph-name="Sigma" unicode="&#x3a3;" horiz-adv-x="505" 
d="M33 0v77l168 281l-167 268v70h427v-77h-324l167 -261l-169 -277h338v-81h-440z" />
    <glyph glyph-name="Iotadieresis" unicode="&#x3aa;" horiz-adv-x="241" 
d="M76 0v696h88v-696h-88zM166 770v88h88v-88h-88zM-14 770v88h88v-88h-88z" />
    <glyph glyph-name="section" unicode="&#xa7;" horiz-adv-x="466" 
d="M440 285q0 -61 -42 -108q13 -18 23.5 -41.5t10.5 -50.5q0 -35 -14 -64.5t-39.5 -51t-61.5 -33.5t-81 -12q-56 0 -107 21.5t-82 56.5l47 52q30 -32 67 -45.5t75 -13.5q54 0 85 20.5t31 68.5q0 36 -33 58t-90 41q-40 13 -71.5 27.5t-53 33t-33 43t-11.5 58.5
q0 30 13.5 58.5t33.5 50.5q-17 19 -28 41t-11 53q0 34 14 62.5t38 49t56.5 31.5t70.5 11q104 0 173 -60l-45 -58q-35 27 -67.5 37t-62.5 10q-48 0 -73 -21.5t-25 -55.5q0 -30 21.5 -47.5t54.5 -30t70.5 -24.5t70.5 -32t54.5 -52t21.5 -83zM170 415q-17 -11 -27 -27.5
t-10 -36.5q0 -29 23 -47.5t55.5 -32.5t67.5 -25t60 -24q29 24 29 64q0 21 -9.5 36t-27 26.5t-42 21t-55.5 20.5q-17 5 -29 10t-35 15z" />
    <glyph glyph-name="degree" unicode="&#xb0;" horiz-adv-x="385" 
d="M326 568q0 -28 -10.5 -52.5t-28.5 -42.5t-42.5 -28.5t-52.5 -10.5t-52.5 10.5t-42.5 28.5t-28.5 42.5t-10.5 52.5t10.5 52.5t28.5 42.5t42.5 28.5t52.5 10.5t52.5 -10.5t42.5 -28.5t28.5 -42.5t10.5 -52.5zM272 568q0 33 -23 56.5t-57 23.5q-33 0 -56.5 -23.5
t-23.5 -56.5t23.5 -56.5t56.5 -23.5q34 0 57 23.5t23 56.5z" />
    <glyph glyph-name="periodcentered" unicode="&#xb7;" horiz-adv-x="238" 
d="M67 212v111h103v-111h-103z" />
    <glyph glyph-name="Alpha" unicode="&#x391;" horiz-adv-x="598" 
d="M499 0l-56 160h-289l-56 -160h-92l255 696h76l255 -696h-93zM351 431l-51 148h-3l-49 -144l-69 -199h239z" />
    <glyph glyph-name="plusminus" unicode="&#xb1;" horiz-adv-x="500" 
d="M286 291v-174h-64v174h-184v64h184v174h64v-174h183v-64h-183zM38 0v64h431v-64h-431z" />
    <glyph glyph-name="yen" unicode="&#xa5;" horiz-adv-x="500" 
d="M254 365l138 331h88l-151 -334h119v-54h-145l-11 -26v-70h156v-54h-156v-158h-80v158h-155v54h155v70l-10 26h-145v54h118l-156 334h87l143 -331h5z" />
    <glyph glyph-name="Beta" unicode="&#x392;" horiz-adv-x="598" 
d="M560 193q0 -44 -15.5 -80t-42 -61t-61 -38.5t-73.5 -13.5h-292v696h263q51 0 89 -13.5t64 -37.5t39 -57.5t13 -73.5q0 -21 -5.5 -43.5t-18.5 -43t-33 -38t-48 -27.5v-3q30 -7 53 -24t38 -40t22.5 -49.5t7.5 -52.5zM164 619v-225h164q64 0 96 32.5t32 80.5q0 47 -32 79.5
t-96 32.5h-164zM164 318v-237h179q33 0 57.5 10t40 26.5t23.5 38t8 44.5t-8 44.5t-23.5 38t-40 26t-57.5 9.5h-179z" />
    <glyph glyph-name="Epsilon" unicode="&#x395;" horiz-adv-x="543" 
d="M76 0v696h440v-81h-352v-225h300v-77h-300v-232h352v-81h-440z" />
    <glyph glyph-name="Zeta" unicode="&#x396;" horiz-adv-x="505" 
d="M33 0v77l339 542h-326v77h427v-70l-341 -545h341v-81h-440z" />
    <glyph glyph-name="Eta" unicode="&#x397;" horiz-adv-x="636" 
d="M472 0v313h-308v-313h-88v696h88v-306h308v306h88v-696h-88z" />
    <glyph glyph-name="Iota" unicode="&#x399;" horiz-adv-x="241" 
d="M76 0v696h88v-696h-88z" />
    <glyph glyph-name="Kappa" unicode="&#x39a;" horiz-adv-x="618" 
d="M510 0l-212 353l-134 -161v-192h-88v696h89v-377l3 1l128 156l183 220h102l-227 -274l258 -422h-102z" />
    <glyph glyph-name="Mu" unicode="&#x39c;" horiz-adv-x="748" 
d="M595 0v496l-3 -2l-54 -131l-120 -260h-77l-122 268l-52 125l-3 -2v-494h-88v696h88l147 -325l69 -162h3l69 161l145 326h86v-696h-88z" />
    <glyph glyph-name="Phi" unicode="&#x3a6;" horiz-adv-x="732" 
d="M692 355q0 -63 -18 -116.5t-54 -93t-89 -63.5t-123 -27v-55h-87v55q-67 4 -119.5 27t-89 62t-55.5 92.5t-19 118.5q0 63 18 117.5t54 95t89 65.5t122 30v33h87v-33q76 -4 130 -28.5t88 -65t50 -95.5t16 -119zM408 129q49 1 86 19t62 48.5t37.5 71.5t12.5 87
q0 49 -11.5 91.5t-36 74t-62 50t-88.5 20.5v-462zM321 592q-52 -3 -89.5 -24t-61.5 -54t-35 -74.5t-11 -84.5q0 -48 13.5 -88t39 -69t62 -47t82.5 -22v463z" />
    <glyph glyph-name="Upsilondieresis" unicode="&#x3ab;" horiz-adv-x="508" 
d="M295 276v-276h-84v276l-209 420h93l97 -193l62 -133l65 139l94 187h91zM299 770v88h88v-88h-88zM119 770v88h88v-88h-88z" />
    <glyph glyph-name="Psi" unicode="&#x3a8;" horiz-adv-x="726" 
d="M664 382q0 -53 -19 -96t-53.5 -74t-81.5 -48.5t-103 -20.5v-143h-88v144q-57 1 -104.5 19t-81 50t-52.5 77.5t-19 101.5v304h88v-292q0 -39 12 -71.5t34.5 -55.5t53.5 -36t69 -14v469h88v-469q37 0 68 11.5t53.5 33t35 52.5t12.5 70v302h88v-314v0z" />
    <glyph glyph-name="Omega" unicode="&#x3a9;" horiz-adv-x="580" 
d="M346 95q50 17 76 64.5t26 110.5v173q0 36 -10 68.5t-30 57t-50 38.5t-69 14q-43 0 -73.5 -15.5t-50 -40.5t-28.5 -57t-9 -65v-173q0 -28 6.5 -55t19.5 -50t32.5 -41.5t46.5 -28.5l-1 -95h-205v81h88q-21 13 -35.5 34.5t-23 47.5t-12 54.5t-3.5 57.5v170q0 51 15 97.5
t46 82t77.5 56.5t108.5 21q57 0 103 -19.5t78.5 -53.5t49.5 -81.5t17 -102.5v-170q0 -62 -16 -112t-58 -82h89v-81h-205v95v0z" />
    <glyph glyph-name="alphatonos" unicode="&#x3ac;" horiz-adv-x="505" 
d="M48 244q0 50 8.5 96t30 81.5t57.5 57t92 21.5q36 0 68.5 -13t55.5 -47l2 1v54h82v-495h-82v55l-2 1q-32 -35 -65.5 -48.5t-69.5 -13.5q-53 0 -87 20.5t-54 55t-28 79.5t-8 95zM133 247q0 -30 3.5 -60.5t15.5 -55t35 -40t61 -15.5q37 0 59.5 17t34.5 43t16 55.5t4 55.5
q0 27 -3.5 57.5t-15.5 56t-34.5 42.5t-60.5 17q-39 0 -62 -16t-34.5 -41.5t-15 -56t-3.5 -59.5zM198 571l72 177l81 -25l-100 -172z" />
    <glyph glyph-name="Nu" unicode="&#x39d;" horiz-adv-x="673" 
d="M513 0l-254 392l-92 152l-3 -1v-543h-88v696h87l245 -379l101 -167l3 2v544h87v-696h-86z" />
    <glyph glyph-name="Omicron" unicode="&#x39f;" horiz-adv-x="595" 
d="M297 701q57 0 103 -19.5t78.5 -53.5t49.5 -81.5t17 -102.5v-192q0 -59 -17.5 -107t-50 -81.5t-78 -51.5t-102.5 -18q-62 0 -108.5 21t-77.5 56t-46 82t-15 99v192q0 51 15 97.5t46 82t77.5 56.5t108.5 21zM298 618q-41 0 -71 -15t-50 -39.5t-30 -56.5t-10 -65v-185
q0 -35 10 -67.5t30 -57.5t50 -40.5t71 -15.5q37 0 66.5 14t50 38t31.5 57t11 72v185q0 36 -11 68t-31.5 56t-50 38t-66.5 14z" />
    <glyph glyph-name="Rho" unicode="&#x3a1;" horiz-adv-x="581" 
d="M561 485q0 -36 -14.5 -73t-42 -66t-68 -47.5t-91.5 -18.5h-181v-280h-88v696h255q43 0 84.5 -12t73.5 -37.5t52 -65.5t20 -96zM469 488q0 64 -38.5 95.5t-97.5 31.5h-169v-254h173q33 0 58 11.5t41.5 29.5t24.5 40.5t8 45.5z" />
    <glyph glyph-name="Tau" unicode="&#x3a4;" horiz-adv-x="486" 
d="M287 619v-619h-88v619h-198v77h484v-77h-198z" />
    <glyph glyph-name="guillemotleft" unicode="&#xab;" horiz-adv-x="459" 
d="M343 46l-127 186l127 186h78l-123 -186l123 -186h-78zM171 46l-127 186l127 186h78l-124 -186l124 -186h-78z" />
    <glyph glyph-name="guillemotright" unicode="&#xbb;" horiz-adv-x="459" 
d="M45 46l123 186l-123 186h78l127 -186l-127 -186h-78zM217 46l124 186l-124 186h78l127 -186l-127 -186h-78z" />
    <glyph glyph-name="ellipsis" unicode="&#x2026;" horiz-adv-x="809" 
d="M83 0v111h103v-111h-103zM346 0v111h103v-111h-103zM616 0v111h103v-111h-103z" />
    <glyph glyph-name="Upsilon" unicode="&#x3a5;" horiz-adv-x="508" 
d="M295 276v-276h-84v276l-209 420h93l97 -193l62 -133l65 139l94 187h91z" />
    <glyph glyph-name="Chi" unicode="&#x3a7;" horiz-adv-x="523" 
d="M426 0l-165 289l-164 -289h-98l214 357l-200 339h98l150 -271l151 271h98l-200 -339l214 -357h-98z" />
    <glyph glyph-name="Alphatonos" unicode="&#x386;" horiz-adv-x="598" 
d="M499 0l-56 160h-289l-56 -160h-92l255 696h76l255 -696h-93zM351 431l-51 148h-3l-49 -144l-69 -199h239zM-36 551l72 177l81 -25l-100 -172z" />
    <glyph glyph-name="Epsilontonos" unicode="&#x388;" horiz-adv-x="543" 
d="M76 0v696h440v-81h-352v-225h300v-77h-300v-232h352v-81h-440zM-130 551l72 177l81 -25l-100 -172z" />
    <glyph glyph-name="oe" unicode="&#x153;" horiz-adv-x="828" 
d="M249 500q54 0 96.5 -21t68.5 -61v-1q31 46 74.5 65t87.5 19q40 0 77 -14.5t65 -42.5t44.5 -68.5t16.5 -91.5v-63h-325q0 -26 4 -46.5t14 -39.5q17 -31 46.5 -48t71.5 -17q25 0 57 12t56 34l52 -59q-35 -33 -76.5 -48t-86.5 -15q-24 0 -49 4t-48 13.5t-44 26t-37 40.5
q-29 -44 -73 -64t-95 -20q-54 0 -95.5 18.5t-67.5 56.5q-22 32 -31 76.5t-9 100.5q0 42 4 77.5t18 64.5q24 54 71.5 83t112.5 29zM695 288q-2 69 -34.5 103t-83.5 34q-52 0 -86 -35t-37 -102h241zM248 426q-37 0 -65 -18.5t-43 -51.5q-10 -23 -12.5 -50.5t-2.5 -60.5
t3 -59.5t13 -48.5q15 -32 42.5 -50t64.5 -18q40 0 70.5 21t44.5 67q5 18 6 39.5t1 49.5q0 35 -3.5 61.5t-11.5 46.5q-15 37 -43.5 54.5t-63.5 17.5z" />
    <glyph glyph-name="endash" unicode="&#x2013;" horiz-adv-x="500" 
d="M20 229v77h460v-77h-460z" />
    <glyph glyph-name="afii00208" unicode="&#x2015;" horiz-adv-x="1000" 
d="M20 230v77h960v-77h-960z" />
    <glyph glyph-name="quotedblleft" unicode="&#x201c;" horiz-adv-x="307" 
d="M84 737h51l-32 -113h28v-111h-103v109zM227 737h51l-32 -113h28v-111h-103v109z" />
    <glyph glyph-name="quotedblright" unicode="&#x201d;" horiz-adv-x="307" 
d="M232 513h-51l32 113h-28v111h103v-109zM89 513h-51l32 113h-28v111h103v-109z" />
    <glyph glyph-name="quoteleft" unicode="&#x2018;" horiz-adv-x="220" 
d="M114 737h51l-32 -113h28v-111h-103v109z" />
    <glyph glyph-name="quoteright" unicode="&#x2019;" horiz-adv-x="220" 
d="M109 513h-51l32 113h-28v111h103v-109z" />
    <glyph glyph-name="divide" unicode="&#xf7;" horiz-adv-x="500" 
d="M311 473q0 -23 -17 -40t-40 -17q-24 0 -40.5 17t-16.5 40t16.5 40t40.5 17q23 0 40 -17t17 -40zM28 262v63h451v-63h-451zM254 172q23 0 40 -16.5t17 -39.5q0 -24 -17 -40.5t-40 -16.5q-24 0 -40.5 16.5t-16.5 40.5q0 23 16.5 39.5t40.5 16.5z" />
    <glyph glyph-name="Etatonos" unicode="&#x389;" horiz-adv-x="636" 
d="M472 0v313h-308v-313h-88v696h88v-306h308v306h88v-696h-88zM-123 551l72 177l81 -25l-100 -172z" />
    <glyph glyph-name="Iotatonos" unicode="&#x38a;" horiz-adv-x="241" 
d="M76 0v696h88v-696h-88zM-125 551l72 177l81 -25l-100 -172z" />
    <glyph glyph-name="Omicrontonos" unicode="&#x38c;" horiz-adv-x="595" 
d="M297 701q57 0 103 -19.5t78.5 -53.5t49.5 -81.5t17 -102.5v-192q0 -59 -17.5 -107t-50 -81.5t-78 -51.5t-102.5 -18q-62 0 -108.5 21t-77.5 56t-46 82t-15 99v192q0 51 15 97.5t46 82t77.5 56.5t108.5 21zM298 618q-41 0 -71 -15t-50 -39.5t-30 -56.5t-10 -65v-185
q0 -35 10 -67.5t30 -57.5t50 -40.5t71 -15.5q37 0 66.5 14t50 38t31.5 57t11 72v185q0 36 -11 68t-31.5 56t-50 38t-66.5 14zM-107 551l72 177l81 -25l-100 -172z" />
    <glyph glyph-name="Upsilontonos" unicode="&#x38e;" horiz-adv-x="508" 
d="M295 276v-276h-84v276l-209 420h93l97 -193l62 -133l65 139l94 187h91zM-181 551l72 177l81 -25l-100 -172z" />
    <glyph glyph-name="epsilontonos" unicode="&#x3ad;" horiz-adv-x="440" 
d="M127 261q-38 14 -54 40t-16 58q0 27 11 53t33.5 45.5t56.5 31.5t79 12q51 0 96.5 -16t77.5 -47l-51 -62q-19 20 -53 32t-66 12q-50 0 -76 -20t-26 -47q0 -23 18 -40t61 -17h84v-73h-81q-42 0 -66.5 -21.5t-24.5 -53.5t30.5 -53.5t84.5 -21.5q16 0 33.5 3.5t35 10.5
t32.5 16t25 20l52 -59q-34 -32 -84 -50t-101 -18q-86 0 -137.5 38.5t-51.5 107.5q0 12 3.5 28.5t12.5 33t24 31.5t38 24v2zM193 571l72 177l81 -25l-100 -172z" />
    <glyph glyph-name="etatonos" unicode="&#x3ae;" horiz-adv-x="524" 
d="M376 0v297q0 57 -24 90t-89 33q-50 0 -83 -33t-33 -90v-297h-82v497h82v-63h3q26 32 62 49.5t76 17.5q36 0 67 -10.5t54 -32t36 -54t13 -75.5v-329h-82zM193 571l72 177l81 -25l-100 -172z" />
    <glyph glyph-name="iotatonos" unicode="&#x3af;" horiz-adv-x="225" 
d="M193 0q-8 -1 -11.5 -1h-9.5q-60 0 -82 25.5t-22 86.5v383h82v-379q0 -16 2 -25t7 -13.5t13.5 -5.5t22.5 -1zM77 571l72 177l81 -25l-100 -172z" />
    <glyph glyph-name="omicrontonos" unicode="&#x3cc;" horiz-adv-x="514" 
d="M263 500q54 0 96 -21.5t68 -61.5q17 -27 25.5 -65.5t8.5 -86.5q0 -64 -7 -107.5t-24 -72.5q-26 -44 -72.5 -67.5t-105.5 -23.5q-54 0 -96 18.5t-68 56.5q-20 31 -28.5 74t-8.5 103q0 42 5.5 77.5t19.5 64.5q25 54 73.5 83t113.5 29zM260 426q-37 0 -65.5 -18.5
t-43.5 -51.5q-11 -23 -14 -50.5t-4 -60.5q0 -33 2.5 -59.5t12.5 -48.5q14 -32 41 -50t64 -18q40 0 71.5 21t45.5 67q5 18 6.5 41.5t1.5 63.5q0 29 -2.5 51.5t-10.5 40.5q-14 37 -42 54.5t-63 17.5zM207 571l72 177l81 -25l-100 -172z" />
    <glyph glyph-name="Omegatonos" unicode="&#x38f;" horiz-adv-x="580" 
d="M346 95q50 17 76 64.5t26 110.5v173q0 36 -10 68.5t-30 57t-50 38.5t-69 14q-43 0 -73.5 -15.5t-50 -40.5t-28.5 -57t-9 -65v-173q0 -28 6.5 -55t19.5 -50t32.5 -41.5t46.5 -28.5l-1 -95h-205v81h88q-21 13 -35.5 34.5t-23 47.5t-12 54.5t-3.5 57.5v170q0 51 15 97.5
t46 82t77.5 56.5t108.5 21q57 0 103 -19.5t78.5 -53.5t49.5 -81.5t17 -102.5v-170q0 -62 -16 -112t-58 -82h89v-81h-205v95zM-107 551l72 177l81 -25l-100 -172z" />
    <glyph glyph-name="upsilontonos" unicode="&#x3cd;" horiz-adv-x="529" 
d="M462 173q0 -40 -14.5 -73t-41 -56.5t-63 -36.5t-79.5 -13q-44 0 -80 13t-62 37t-40 57t-14 72v323h82v-298q0 -57 32.5 -91t82.5 -34t82.5 34t32.5 91v298h82v-323zM213 571l72 177l81 -25l-100 -172z" />
    <glyph glyph-name="alpha" unicode="&#x3b1;" horiz-adv-x="505" 
d="M48 244q0 50 8.5 96t30 81.5t57.5 57t92 21.5q36 0 68.5 -13t55.5 -47l2 1v54h82v-495h-82v55l-2 1q-32 -35 -65.5 -48.5t-69.5 -13.5q-53 0 -87 20.5t-54 55t-28 79.5t-8 95zM133 247q0 -30 3.5 -60.5t15.5 -55t35 -40t61 -15.5q37 0 59.5 17t34.5 43t16 55.5t4 55.5
q0 27 -3.5 57.5t-15.5 56t-34.5 42.5t-60.5 17q-39 0 -62 -16t-34.5 -41.5t-15 -56t-3.5 -59.5z" />
    <glyph glyph-name="beta" unicode="&#x3b2;" horiz-adv-x="517" 
d="M466 233q0 -45 -8.5 -88t-29 -76.5t-55.5 -54t-89 -20.5q-35 0 -70 13t-64 47l-2 -1v-198h-82v678q0 90 48.5 142.5t140.5 52.5q51 0 86 -17.5t56 -44t30 -56.5t9 -54q0 -41 -14 -78t-54 -63q31 -6 50.5 -24.5t30 -44t14 -55.5t3.5 -58zM379 245q0 22 -4.5 46t-15 43
t-29 31.5t-48.5 12.5h-80v71h66q25 0 41.5 9.5t26 24.5t13.5 32.5t4 32.5q0 16 -5 35.5t-17 35.5t-31 27t-47 11q-32 0 -52.5 -11.5t-32 -29t-16 -38.5t-4.5 -41v-292q0 -28 4 -59t16.5 -57t35 -43t60.5 -17t61 17t35 42.5t15.5 56.5t3.5 60z" />
    <glyph glyph-name="psi" unicode="&#x3c8;" horiz-adv-x="625" 
d="M563 180q0 -42 -17 -75.5t-46 -57.5t-67 -37.5t-80 -15.5v-193h-82v193q-42 2 -79.5 16t-65.5 38t-44.5 56.5t-16.5 71.5v320h82v-296q0 -57 34 -91.5t90 -36.5v443h82v-443q57 2 92.5 35.5t35.5 92.5v296h82v-316v0z" />
    <glyph glyph-name="delta" unicode="&#x3b4;" horiz-adv-x="491" 
d="M247 435q-43 -4 -72.5 -27.5t-40.5 -55.5q-8 -23 -10.5 -52t-2.5 -58q0 -33 3 -60.5t13 -49.5q15 -32 42.5 -47.5t64.5 -15.5q40 0 70.5 21t44.5 67q5 18 6 38t1 48q0 35 -3.5 60t-11.5 45q-15 37 -40 56.5t-64 30.5zM259 729q46 0 83 -10t75 -30l-36 -71
q-32 18 -61.5 26.5t-61.5 8.5q-39 0 -62 -16.5t-23 -39.5q0 -27 30.5 -49.5t81.5 -45.5q34 -16 69.5 -38t55.5 -52q21 -32 30 -75.5t9 -95.5q0 -50 -8 -87.5t-25 -66.5q-28 -48 -74 -70.5t-100 -22.5t-95.5 18.5t-67.5 56.5q-22 32 -31 75t-9 99q0 42 5 75t19 62
q14 30 39 58t63 41q-34 18 -54.5 46.5t-20.5 65.5q0 33 13.5 59t36.5 43.5t53.5 26.5t65.5 9z" />
    <glyph glyph-name="epsilon" unicode="&#x3b5;" horiz-adv-x="440" 
d="M127 261q-38 14 -54 40t-16 58q0 27 11 53t33.5 45.5t56.5 31.5t79 12q51 0 96.5 -16t77.5 -47l-51 -62q-19 20 -53 32t-66 12q-50 0 -76 -20t-26 -47q0 -23 18 -40t61 -17h84v-73h-81q-42 0 -66.5 -21.5t-24.5 -53.5t30.5 -53.5t84.5 -21.5q16 0 33.5 3.5t35 10.5
t32.5 16t25 20l52 -59q-34 -32 -84 -50t-101 -18q-86 0 -137.5 38.5t-51.5 107.5q0 12 3.5 28.5t12.5 33t24 31.5t38 24v2z" />
    <glyph glyph-name="phi" unicode="&#x3c6;" horiz-adv-x="599" 
d="M340 69q40 0 77.5 21t51.5 67q5 18 6 41t1 51q0 35 -3.5 61.5t-11.5 46.5q-8 18 -21 31.5t-29.5 21.5t-34.5 12t-36 4v-357zM257 -6q-54 2 -101.5 19.5t-73.5 55.5q-22 32 -31 76.5t-9 100.5q0 42 6 81t21.5 71.5t43 56.5t70.5 36l24 -71q-28 -11 -44.5 -28.5t-25 -41
t-11 -50.5t-2.5 -55q0 -33 3 -59.5t13 -48.5q15 -32 47.5 -50.5t69.5 -18.5v433h88q54 0 101.5 -20t73.5 -60q21 -32 30 -75t9 -99q0 -50 -8 -90.5t-25 -69.5q-23 -39 -70 -64t-116 -29v-193h-83v193z" />
    <glyph glyph-name="gamma" unicode="&#x3b3;" horiz-adv-x="450" 
d="M235 150q29 88 58.5 175.5t63.5 170.5h88q-47 -117 -89 -230.5t-85 -241.5v-224h-82v209q-29 100 -58.5 188t-63.5 178q-7 17 -11 26.5t-9 14t-12 5.5t-19 1h-4l-7 69q28 9 50 9q34 0 52.5 -19t30.5 -51q11 -30 23 -65t24 -72t23 -73.5t21 -69.5h6z" />
    <glyph glyph-name="eta" unicode="&#x3b7;" horiz-adv-x="524" 
d="M376 0v297q0 57 -24 90t-89 33q-50 0 -83 -33t-33 -90v-297h-82v497h82v-63h3q26 32 62 49.5t76 17.5q36 0 67 -10.5t54 -32t36 -54t13 -75.5v-329h-82z" />
    <glyph glyph-name="iota" unicode="&#x3b9;" horiz-adv-x="225" 
d="M193 0q-8 -1 -11.5 -1h-9.5q-60 0 -82 25.5t-22 86.5v383h82v-379q0 -16 2 -25t7 -13.5t13.5 -5.5t22.5 -1z" />
    <glyph glyph-name="xi" unicode="&#x3be;" horiz-adv-x="413" 
d="M392 614q-38 23 -67.5 29.5t-56.5 6.5q-30 0 -53 -9t-38.5 -24t-24 -34.5t-8.5 -41.5q0 -23 11.5 -43t30 -35t42.5 -23.5t49 -8.5h91v-71h-114q-30 0 -54 -13t-40.5 -33.5t-25 -46.5t-8.5 -52q0 -51 28 -82t69 -45q54 -19 91 -32.5t59.5 -27.5t32.5 -31t10 -42
q0 -34 -23 -75t-51 -77l-65 33l37 70q3 7 6 13.5t3 12.5q0 13 -11 23t-31 17l-102 38q-30 11 -56 27t-45.5 39.5t-30.5 56t-11 77.5q0 18 5.5 42.5t19 50.5t35 50.5t54.5 41.5q-27 11 -45 29.5t-28.5 40t-15 42.5t-4.5 36q0 41 15.5 75.5t42.5 59t65 38.5t83 14
q13 0 32.5 -1.5t41.5 -6t46 -13t48 -23.5l-39 -72v0z" />
    <glyph glyph-name="kappa" unicode="&#x3ba;" horiz-adv-x="506" 
d="M404 0l-164 249l-90 -99v-150h-82v496h82v-239h3l214 239h97l-169 -187l204 -309h-95z" />
    <glyph glyph-name="lambda" unicode="&#x3bb;" horiz-adv-x="454" 
d="M458 -1q-13 -3 -24 -4t-21 -1q-30 0 -48.5 13.5t-29.5 45.5l-62 182l-44 139h-3l-55 -165l-77 -209h-91l184 492l-32 107q-8 26 -19.5 39t-43.5 13h-10.5t-11.5 -1l-5 74q28 6 51 6q48 0 73.5 -25t41.5 -73l169 -512q5 -16 9 -26t9.5 -16t14 -8t22.5 -2z" />
    <glyph glyph-name="mu" unicode="&#xb5;" horiz-adv-x="522" 
d="M379 0v56h-3q-25 -32 -61.5 -47t-75.5 -15q-22 0 -44 6.5t-42 20.5l-3 -1v-220h-82v696h82v-298q0 -57 25 -89.5t90 -32.5q49 0 81.5 32.5t32.5 89.5v298h82v-496h-82z" />
    <glyph glyph-name="mu" unicode="&#x3bc;" horiz-adv-x="522" 
d="M379 0v56h-3q-25 -32 -61.5 -47t-75.5 -15q-22 0 -44 6.5t-42 20.5l-3 -1v-220h-82v696h82v-298q0 -57 25 -89.5t90 -32.5q49 0 81.5 32.5t32.5 89.5v298h82v-496h-82z" />
    <glyph glyph-name="nu" unicode="&#x3bd;" horiz-adv-x="446" 
d="M258 0h-70l-183 496h87l73 -207l57 -172h3l56 171l72 208h88z" />
    <glyph glyph-name="omicron" unicode="&#x3bf;" horiz-adv-x="514" 
d="M263 500q54 0 96 -21.5t68 -61.5q17 -27 25.5 -65.5t8.5 -86.5q0 -64 -7 -107.5t-24 -72.5q-26 -44 -72.5 -67.5t-105.5 -23.5q-54 0 -96 18.5t-68 56.5q-20 31 -28.5 74t-8.5 103q0 42 5.5 77.5t19.5 64.5q25 54 73.5 83t113.5 29zM260 426q-37 0 -65.5 -18.5
t-43.5 -51.5q-11 -23 -14 -50.5t-4 -60.5q0 -33 2.5 -59.5t12.5 -48.5q14 -32 41 -50t64 -18q40 0 71.5 21t45.5 67q5 18 6.5 41.5t1.5 63.5q0 29 -2.5 51.5t-10.5 40.5q-14 37 -42 54.5t-63 17.5z" />
    <glyph glyph-name="pi" unicode="&#x3c0;" horiz-adv-x="529" 
d="M379 0v424h-229v-424h-82v496h393v-496h-82z" />
    <glyph glyph-name="omegatonos" unicode="&#x3ce;" horiz-adv-x="752" 
d="M540 500q48 -3 81 -22.5t53.5 -53t29.5 -78.5t9 -99q0 -57 -10.5 -103.5t-33 -79.5t-58.5 -51t-87 -18q-47 0 -82.5 18t-63.5 56q-29 -35 -63.5 -55t-81.5 -20q-51 0 -87 18t-58.5 51t-33 79.5t-10.5 103.5q0 55 10 100.5t31.5 78.5t55 52.5t81.5 22.5l9 -77
q-54 -6 -78.5 -53t-24.5 -125q0 -77 24.5 -125t78.5 -48q51 0 77 33.5t26 89.5v185h82v-185q0 -56 28 -89t82 -33t78.5 48t24.5 125q0 78 -24 124t-77 53zM330 571l72 177l81 -25l-100 -172z" />
    <glyph glyph-name="rho" unicode="&#x3c1;" horiz-adv-x="513" 
d="M261 500q54 0 96.5 -21t68.5 -61q21 -32 28.5 -75t7.5 -99q0 -50 -8 -89t-25 -68q-28 -48 -72.5 -70.5t-98.5 -22.5q-39 0 -66 14.5t-50 41.5l-2 -3v-247h-82v446q0 42 6 81.5t16 60.5q24 54 70 83t111 29zM259 426q-37 0 -62.5 -18.5t-41.5 -51.5q-10 -23 -13 -50.5
t-4 -60.5q0 -33 2.5 -59.5t12.5 -48.5q14 -32 39 -50t62 -18q40 0 71 21t45 67q6 18 7.5 39.5t1.5 49.5q2 70 -14 108q-14 37 -42.5 54.5t-63.5 17.5z" />
    <glyph glyph-name="sigma" unicode="&#x3c3;" horiz-adv-x="507" 
d="M393 421q28 -20 42 -60.5t14 -116.5q0 -126 -54.5 -188t-149.5 -62q-54 0 -92 17.5t-62.5 50.5t-35.5 79t-11 103t12.5 103.5t38 79.5t64 51t89.5 18h232v-73l-87 1v-3zM247 418q-62 0 -91.5 -47.5t-29.5 -124.5q0 -81 29.5 -128t91.5 -47q56 0 87.5 43t31.5 129
q0 87 -31.5 131t-87.5 44z" />
    <glyph glyph-name="tau" unicode="&#x3c4;" horiz-adv-x="367" 
d="M213 423v-287q0 -23 9 -41.5t40 -18.5h55v-76h-71q-51 0 -83 29.5t-32 86.5v307h-114v73h325v-73h-129z" />
    <glyph glyph-name="theta" unicode="&#x3b8;" horiz-adv-x="512" 
d="M264 731q54 0 93.5 -22.5t62.5 -62.5q8 -13 15.5 -33.5t13.5 -51.5t9.5 -74.5t3.5 -103.5q0 -122 -12 -191t-30 -103q-21 -42 -64.5 -68.5t-102.5 -26.5q-54 0 -94 20t-66 58q-10 15 -18 39t-13.5 59t-8.5 84.5t-3 115.5q0 97 12.5 161t23.5 86q25 54 69 84t109 30z
M367 160q4 17 12 62t6 128h-257q-1 -52 0.5 -87t4.5 -59t6.5 -39t7.5 -25q11 -34 37.5 -52.5t71.5 -18.5q87 0 111 91zM260 657q-37 0 -64 -18.5t-42 -51.5q-5 -10 -9 -22t-7.5 -30.5t-6 -45.5t-3.5 -67h257q0 38 -2.5 65t-6 45.5t-7 30t-5.5 20.5q-10 35 -38 54.5t-66 19.5
z" />
    <glyph glyph-name="omega" unicode="&#x3c9;" horiz-adv-x="752" 
d="M540 500q48 -3 81 -22.5t53.5 -53t29.5 -78.5t9 -99q0 -57 -10.5 -103.5t-33 -79.5t-58.5 -51t-87 -18q-47 0 -82.5 18t-63.5 56q-29 -35 -63.5 -55t-81.5 -20q-51 0 -87 18t-58.5 51t-33 79.5t-10.5 103.5q0 55 10 100.5t31.5 78.5t55 52.5t81.5 22.5l9 -77
q-54 -6 -78.5 -53t-24.5 -125q0 -77 24.5 -125t78.5 -48q51 0 77 33.5t26 89.5v185h82v-185q0 -56 28 -89t82 -33t78.5 48t24.5 125q0 78 -24 124t-77 53z" />
    <glyph glyph-name="sigma1" unicode="&#x3c2;" horiz-adv-x="430" 
d="M396 372q-26 26 -53 36.5t-55 10.5q-69 0 -108.5 -43t-39.5 -133q0 -54 19.5 -90.5t70.5 -57.5l114 -47q41 -17 58 -39.5t17 -51.5q0 -34 -21.5 -69t-50.5 -68l-63 36q9 14 16 25.5t12 21.5q5 11 8.5 20t3.5 17q0 14 -11 23.5t-34 18.5q-54 21 -95.5 39t-70.5 44.5
t-44 66.5t-15 105q0 70 19 120t50.5 82t72 47t82.5 15t86.5 -13.5t84.5 -51.5l-53 -64v0z" />
    <glyph glyph-name="chi" unicode="&#x3c7;" horiz-adv-x="463" 
d="M349 0l-117 193l-117 -193h-99l169 254l-161 242h98l110 -186l110 186h99l-162 -243l169 -253h-99z" />
    <glyph glyph-name="upsilon" unicode="&#x3c5;" horiz-adv-x="529" 
d="M462 173q0 -40 -14.5 -73t-41 -56.5t-63 -36.5t-79.5 -13q-44 0 -80 13t-62 37t-40 57t-14 72v323h82v-298q0 -57 32.5 -91t82.5 -34t82.5 34t32.5 91v298h82v-323z" />
    <glyph glyph-name="zeta" unicode="&#x3b6;" horiz-adv-x="398" 
d="M121 215q0 -26 7.5 -45t20 -33.5t30 -25t37.5 -18.5l115 -46q51 -20 65.5 -42t14.5 -49q0 -18 -9 -38.5t-22.5 -41t-28 -39.5t-25.5 -34l-64 35l41 69q4 8 7.5 17.5t3.5 16.5q0 22 -45 39l-93 36q-63 24 -102.5 73t-39.5 124q0 42 19.5 93.5t57 108t92.5 114t125 110.5
h-257v72h370v-68q-58 -45 -115.5 -100t-103 -113t-73.5 -113.5t-28 -101.5z" />
    <glyph glyph-name="iotadieresis" unicode="&#x3ca;" horiz-adv-x="225" 
d="M193 0q-8 -1 -11.5 -1h-9.5q-60 0 -82 25.5t-22 86.5v383h82v-379q0 -16 2 -25t7 -13.5t13.5 -5.5t22.5 -1zM147 597v88h88v-88h-88zM-33 597v88h88v-88h-88z" />
    <glyph glyph-name="upsilondieresis" unicode="&#x3cb;" horiz-adv-x="529" 
d="M462 173q0 -40 -14.5 -73t-41 -56.5t-63 -36.5t-79.5 -13q-44 0 -80 13t-62 37t-40 57t-14 72v323h82v-298q0 -57 32.5 -91t82.5 -34t82.5 34t32.5 91v298h82v-323zM308 597v88h88v-88h-88zM128 597v88h88v-88h-88z" />
    <glyph glyph-name="iotadieresistonos" unicode="&#x390;" horiz-adv-x="225" 
d="M193 0q-8 -1 -11.5 -1h-9.5q-60 0 -82 25.5t-22 86.5v383h82v-379q0 -16 2 -25t7 -13.5t13.5 -5.5t22.5 -1zM217 589v89h87v-89h-87zM-68 589v89h87v-89h-87zM52 571l72 177l81 -25l-100 -172z" />
    <glyph glyph-name="upsilondieresistonos" unicode="&#x3b0;" horiz-adv-x="529" 
d="M462 173q0 -40 -14.5 -73t-41 -56.5t-63 -36.5t-79.5 -13q-44 0 -80 13t-62 37t-40 57t-14 72v323h82v-298q0 -57 32.5 -91t82.5 -34t82.5 34t32.5 91v298h82v-323zM363 589v89h87v-89h-87zM78 589v89h87v-89h-87zM198 571l72 177l81 -25l-100 -172z" />
    <glyph glyph-name="space" unicode=" " horiz-adv-x="224" 
 />
    <glyph glyph-name="Euro" unicode="&#x20ac;" horiz-adv-x="500" 
d="M145 375v-56h210v-54h-210v-26q0 -75 37 -121.5t101 -46.5q52 0 83 24.5t57 70.5l74 -43q-35 -60 -86.5 -94.5t-128.5 -34.5q-54 0 -96 18.5t-70.5 51.5t-43 79t-14.5 102v20h-44v54h44v56h-44v54h44v23q0 51 15 96.5t44 79t70.5 53.5t94.5 20q77 0 131 -34.5t79 -101.5
l-81 -33q-17 43 -50.5 66.5t-77.5 23.5q-36 0 -62 -14.5t-43 -39t-25 -56t-8 -64.5v-19h210v-54h-210z" />
    <glyph glyph-name="logicalnot" unicode="&#xac;" horiz-adv-x="500" 
d="M469 70h-64v192h-376v64h441z" />
    <glyph glyph-name="brokenbar" unicode="&#xa6;" horiz-adv-x="204" 
d="M70 304v412h65v-412h-65zM135 246v-408h-65v408h65z" />
    <glyph glyph-name="exclam" unicode="!" horiz-adv-x="241" 
d="M150 177h-60l-9 519h79zM77 0v98h90v-98h-90z" />
    <glyph glyph-name="ae" unicode="&#xe6;" horiz-adv-x="799" 
d="M441 221q0 -26 4 -46.5t14 -39.5q17 -31 46.5 -48t71.5 -17q25 0 57 12t56 34l52 -59q-35 -33 -76.5 -48t-86.5 -15q-24 0 -48 3.5t-47 12.5t-43.5 24t-36.5 38q-24 -38 -71 -58t-112 -20q-85 0 -130.5 41.5t-45.5 105.5q0 29 10 55.5t29.5 46.5t49 32t69.5 12h156v56
q0 41 -27 61t-87 20q-47 0 -74 -11.5t-44 -31.5l-52 55q28 32 72 48.5t95 16.5q26 0 52 -3t49 -10t42.5 -19t33.5 -29q30 33 68 47t76 14q40 0 77 -14.5t65 -42.5t44.5 -68.5t16.5 -91.5v-63h-325zM123 146q0 -35 26.5 -56t81.5 -21q24 0 47 4t41 14.5t29 28t11 45.5v60
h-136q-48 0 -74 -20t-26 -55zM682 288q-2 69 -34.5 103t-83.5 34q-52 0 -86 -35t-37 -102h241z" />
    <glyph glyph-name="eth" unicode="&#xf0;" horiz-adv-x="491" 
d="M409 87q-29 -48 -74.5 -70.5t-99.5 -22.5t-95 18.5t-66 56.5q-22 32 -30.5 76.5t-6.5 100.5q1 42 7 69.5t17 48.5q26 54 72.5 83t111.5 29q13 0 31 -3.5t36 -11.5t34.5 -20.5t27.5 -30.5h4q0 18 -2 39t-6.5 42t-11.5 40t-17 32l-62 -44l-23 33l58 42q-15 18 -45 36
t-92 31l14 67q64 -5 112 -28.5t75 -54.5l76 56l27 -34l-75 -54q20 -30 31 -65t16 -74t6 -82t1 -89q0 -16 -2.5 -42.5t-8.5 -57.5t-16 -61.5t-24 -54.5zM244 402q-37 0 -65 -18.5t-44 -51.5q-5 -11 -10.5 -35t-5.5 -52q0 -33 2 -59.5t12 -48.5q14 -32 41.5 -50t64.5 -18
q40 0 72 21t46 67q6 18 8.5 41t2.5 48q0 35 -4.5 54t-9.5 30q-14 37 -44.5 54.5t-65.5 17.5z" />
    <glyph glyph-name="multiply" unicode="&#xd7;" horiz-adv-x="500" 
d="M294 274l164 -164l-45 -45l-164 164l-162 -162l-45 45l162 162l-163 163l45 45l163 -162l161 161l45 -45z" />
    <glyph glyph-name="cedilla" unicode="&#xb8;" horiz-adv-x="431" 
d="M265 36l-24 -75q29 -2 48 -10.5t30.5 -21t16.5 -26.5t5 -26q0 -13 -5.5 -27.5t-18 -27t-33 -20.5t-51.5 -8q-20 0 -41 3.5t-46 14.5l17 43q21 -9 38.5 -12t31.5 -3q20 0 33.5 10t13.5 26q0 19 -16 29.5t-42 10.5h-14l-20 21l32 103z" />
    <glyph glyph-name="florin" unicode="&#x192;" horiz-adv-x="500" 
d="M121 420h97l11 73q5 34 16.5 71t32.5 67t54.5 49.5t83.5 19.5q23 0 44 -4t36 -10q-5 -20 -9.5 -37.5t-9.5 -37.5q-14 5 -32.5 7.5t-32.5 2.5q-23 0 -39.5 -10t-27.5 -27.5t-18 -39.5t-10 -46l-11 -78h106v-69h-116l-32 -228q-7 -48 -18.5 -87t-31.5 -67t-49 -43.5
t-71 -15.5q-21 0 -47.5 5.5t-47.5 13.5q7 20 12.5 33.5t12.5 33.5q33 -13 60 -13q42 0 62 38t29 101l33 229h-87v69z" />
    <glyph glyph-name="circumflex" unicode="&#x2c6;" horiz-adv-x="491" 
d="M252 659l-134 -107l-39 38l150 153h53l143 -151l-40 -39z" />
    <glyph glyph-name="caron" unicode="&#x2c7;" horiz-adv-x="491" 
d="M385 743l40 -39l-143 -151h-53l-150 153l39 38l134 -107z" />
    <glyph glyph-name="breve" unicode="&#x2d8;" horiz-adv-x="511" 
d="M200 697q1 -10 6 -21t14 -20.5t22 -15.5t29 -6q18 0 31.5 6t22.5 15.5t13.5 20.5t4.5 21h71q-2 -20 -9 -42.5t-23.5 -41.5t-43 -32t-67.5 -13t-68.5 13t-44 32t-24 41.5t-7.5 42.5h73z" />
    <glyph glyph-name="tilde" unicode="&#x2dc;" horiz-adv-x="491" 
d="M178 699q18 0 36.5 -7.5t35.5 -16t33 -16t29 -7.5q15 0 30 10.5t31 34.5l52 -29q-22 -46 -48.5 -67.5t-58.5 -21.5q-18 0 -35.5 6.5t-34.5 14.5t-32.5 14.5t-30.5 6.5q-17 0 -30.5 -8.5t-32.5 -31.5l-52 29q20 42 49 65.5t59 23.5z" />
    <glyph glyph-name="Ntilde" unicode="&#xd1;" horiz-adv-x="673" 
d="M513 0l-254 392l-92 152l-3 -1v-543h-88v696h87l245 -379l101 -167l3 2v544h87v-696h-86zM270 869q18 0 36.5 -7.5t35.5 -16t33 -16t29 -7.5q15 0 30 10.5t31 34.5l52 -29q-22 -46 -48.5 -67.5t-58.5 -21.5q-18 0 -35.5 6.5t-34.5 14.5t-32.5 14.5t-30.5 6.5
q-17 0 -30.5 -8.5t-32.5 -31.5l-52 29q20 42 49 65.5t59 23.5z" />
    <glyph glyph-name="otilde" unicode="&#xf5;" horiz-adv-x="514" 
d="M263 500q54 0 96 -21.5t68 -61.5q17 -27 25.5 -65.5t8.5 -86.5q0 -64 -7 -107.5t-24 -72.5q-26 -44 -72.5 -67.5t-105.5 -23.5q-54 0 -96 18.5t-68 56.5q-20 31 -28.5 74t-8.5 103q0 42 5.5 77.5t19.5 64.5q25 54 73.5 83t113.5 29zM260 426q-37 0 -65.5 -18.5
t-43.5 -51.5q-11 -23 -14 -50.5t-4 -60.5q0 -33 2.5 -59.5t12.5 -48.5q14 -32 41 -50t64 -18q40 0 71.5 21t45.5 67q5 18 6.5 41.5t1.5 63.5q0 29 -2.5 51.5t-10.5 40.5q-14 37 -42 54.5t-63 17.5zM197 699q18 0 36.5 -7.5t35.5 -16t33 -16t29 -7.5q15 0 30 10.5t31 34.5
l52 -29q-22 -46 -48.5 -67.5t-58.5 -21.5q-18 0 -35.5 6.5t-34.5 14.5t-32.5 14.5t-30.5 6.5q-17 0 -30.5 -8.5t-32.5 -31.5l-52 29q20 42 49 65.5t59 23.5z" />
    <glyph glyph-name="Ccedilla" unicode="&#xc7;" horiz-adv-x="543" 
d="M528 142q-26 -69 -84.5 -108t-141.5 -40l-10 -33q29 -2 48 -10.5t30.5 -21t16.5 -26.5t5 -26q0 -13 -5.5 -27.5t-18 -27t-33 -20.5t-51.5 -8q-20 0 -41 3.5t-46 14.5l17 43q21 -9 38.5 -12t31.5 -3q20 0 33.5 10t13.5 26q0 19 -16 29.5t-42 10.5h-14l-20 21l18 60
q-52 6 -90.5 29t-64 57.5t-38 77.5t-12.5 91v192q0 51 15 97.5t46 82t77.5 56.5t108.5 21q85 0 143 -40t85 -107l-82 -37q-17 45 -54 72t-91 27q-41 0 -71 -15t-50 -39.5t-30 -56.5t-10 -65v-181q0 -35 10 -67.5t30 -57.5t50 -40.5t71 -15.5q54 0 91.5 28.5t54.5 75.5z" />
    <glyph glyph-name="acute" unicode="&#xb4;" horiz-adv-x="491" 
d="M193 571l72 177l81 -25l-100 -172z" />
    <glyph glyph-name="Dieresis" unicode="&#xf6cb;" horiz-adv-x="598" 
d="M344 770v88h88v-88h-88zM164 770v88h88v-88h-88z" />
    <glyph glyph-name="AE" unicode="&#xc6;" horiz-adv-x="977" 
d="M491 0v204h-259l-130 -204h-92l444 696h478v-81h-352v-225h300v-77h-300v-232h352v-81h-441zM280 280h211v332z" />
    <glyph glyph-name="quotesinglbase" unicode="&#x201a;" horiz-adv-x="252" 
d="M115 -113h-41l32 113h-28v111h93v-109z" />
    <glyph glyph-name="quotedblbase" unicode="&#x201e;" horiz-adv-x="405" 
d="M268 -113h-51l32 113h-28v111h103v-109zM125 -113h-51l32 113h-28v111h103v-109z" />
    <glyph glyph-name="daggerdbl" unicode="&#x2021;" horiz-adv-x="466" 
d="M193 390h-170v66h170v240h80v-240h170v-66h-170v-190h170v-66h-170v-320h-80v320h-170v66h170v190z" />
    <glyph glyph-name="guilsinglleft" unicode="&#x2039;" horiz-adv-x="300" 
d="M173 46l-127 186l127 186h78l-123 -186l123 -186h-78z" />
    <glyph glyph-name="emdash" unicode="&#x2014;" horiz-adv-x="1000" 
d="M20 230v77h960v-77h-960z" />
    <glyph glyph-name="guilsinglright" unicode="&#x203a;" horiz-adv-x="300" 
d="M45 46l123 186l-123 186h78l127 -186l-127 -186h-78z" />
    <glyph glyph-name="exclamdown" unicode="&#xa1;" horiz-adv-x="241" 
d="M89 313h70l4 -519h-79zM167 490v-98h-90v98h90z" />
    <glyph glyph-name="currency" unicode="&#xa4;" horiz-adv-x="556" 
d="M142 319q0 -27 10.5 -51.5t28.5 -42.5t42 -28.5t52 -10.5t52.5 10.5t42.5 28.5t28.5 42.5t10.5 51.5q0 28 -10.5 52.5t-28.5 42.5t-42.5 28.5t-52.5 10.5t-52 -10.5t-42 -28.5t-28.5 -42.5t-10.5 -52.5zM40 505q13 14 24.5 25t24.5 24l68 -68q29 19 58 28.5t61 9.5
t61 -9.5t58 -28.5l67 68l49 -50l-68 -67q38 -58 38 -118q0 -59 -38 -118q16 -15 34 -32t34 -34l-49 -50l-67 68q-56 -39 -119 -39q-64 0 -119 39l-68 -68q-10 11 -25 25.5t-24 23.5l69 67q-38 59 -38 118q0 60 38 118z" />
    <glyph glyph-name="paragraph" unicode="&#xb6;" horiz-adv-x="563" 
d="M236 324h-39q-38 0 -66.5 16t-48 41.5t-29.5 58.5t-10 68q0 36 11 71.5t33 63.5t56 45t79 17h291v-65h-43v-722h-74v722h-85v-722h-75v406z" />
    <glyph glyph-name="questiondown" unicode="&#xbf;" horiz-adv-x="449" 
d="M20 -26q1 30 9 54t20 44t27.5 37t31.5 34q26 27 46.5 53.5t20.5 60.5v50h87v-52q0 -35 -13.5 -65t-37.5 -55q-15 -16 -32.5 -34t-32.5 -37.5t-25 -40t-10 -41.5q0 -15 4.5 -33.5t17.5 -35.5t35 -28.5t57 -11.5q31 0 53.5 14t38 34t23.5 41t10 36l85 -15
q-12 -50 -33.5 -86t-50.5 -59.5t-63.5 -35t-72.5 -11.5q-44 0 -80 14t-61.5 38.5t-39.5 58t-14 72.5zM265 491v-98h-90v98h90z" />
    <glyph glyph-name="oslash" unicode="&#xf8;" horiz-adv-x="514" 
d="M263 500q34 0 64 -9t54 -26l42 59l38 -27l-46 -64l12 -16q17 -27 25.5 -65.5t8.5 -86.5q0 -64 -7 -107.5t-24 -72.5q-26 -44 -72.5 -67.5t-105.5 -23.5q-74 0 -123 33l-37 -52l-37 28l40 56q-4 4 -7 10q-20 31 -28.5 74t-8.5 103q0 42 5.5 77.5t19.5 64.5q25 54 73.5 83
t113.5 29zM365 354q-2 2 -2 4l-186 -262q30 -27 76 -27q40 0 71.5 21t45.5 67q5 18 6.5 41.5t1.5 63.5q0 29 -2.5 51.5t-10.5 40.5zM260 426q-37 0 -65.5 -18.5t-43.5 -51.5q-11 -23 -14 -50.5t-4 -60.5q0 -33 2.5 -59.5t12.5 -48.5v-2l187 264q-30 27 -75 27z" />
    <glyph glyph-name="Thorn" unicode="&#xde;" horiz-adv-x="572" 
d="M75 693h89v-126h167q43 0 84.5 -12t73.5 -37.5t52 -65.5t20 -96q0 -36 -14.5 -73t-42 -66t-68 -47.5t-91.5 -18.5h-181v-151h-88zM469 359q0 64 -38.5 95.5t-97.5 31.5h-169v-254h173q33 0 58 11.5t41.5 29.5t24.5 40.5t8 45.5z" />
    <glyph glyph-name="Eth" unicode="&#xd0;" horiz-adv-x="618" 
d="M6 391h70v305h228q78 0 141 -30t96 -99q19 -38 23 -90t4 -117q0 -73 -4 -127t-21 -95q-17 -39 -43.5 -65.5t-59.5 -42.5t-72 -23t-81 -7h-211v328h-70v63zM480 412q0 57 -13 96t-37 63t-57 34t-73 10h-136v-224h105v-63h-105v-247h136q49 0 83.5 14t56 40t31 62.5
t9.5 81.5v133z" />
    <glyph glyph-name="Oslash" unicode="&#xd8;" horiz-adv-x="595" 
d="M297 701q49 0 89.5 -14.5t72.5 -40.5l36 53l43 -29l-43 -63q24 -32 37 -73.5t13 -89.5v-192q0 -59 -17.5 -107t-50 -81.5t-78 -51.5t-102.5 -18t-101 17.5t-74 47.5l-42 -61l-42 29l50 74q-20 32 -29 70.5t-9 80.5v192q0 51 15 97.5t46 82t77.5 56.5t108.5 21zM457 442
q0 45 -17 84l-266 -390q20 -27 51 -43.5t73 -16.5q37 0 66.5 14t50 38t31.5 57t11 72v185zM298 618q-41 0 -71 -15t-50 -39.5t-30 -56.5t-10 -65v-185q0 -38 10 -69l262 384q-20 21 -48 33.5t-63 12.5z" />
    <glyph glyph-name="Acute" unicode="&#xf6c9;" horiz-adv-x="598" 
d="M250 780l148 122l59 -61l-170 -103z" />
    <glyph glyph-name="Caron" unicode="&#xf6ca;" horiz-adv-x="598" 
d="M439 908l30 -39l-143 -127h-53l-150 129l29 38l144 -87z" />
    <glyph glyph-name="DieresisAcute" unicode="&#xf6cc;" horiz-adv-x="391" 
d="M292 774v89h87v-89h-87zM7 774v89h87v-89h-87zM109 778l113 155l71 -45l-139 -141z" />
    <glyph glyph-name="DieresisGrave" unicode="&#xf6cd;" horiz-adv-x="391" 
d="M7 774v89h87v-89h-87zM292 774v89h87v-89h-87zM232 747l-139 141l71 45l113 -155z" />
    <glyph glyph-name="Grave" unicode="&#xf6ce;" horiz-adv-x="598" 
d="M314 738l-170 103l59 61l148 -122z" />
    <glyph glyph-name="Hungarumlaut" unicode="&#xf6cf;" horiz-adv-x="598" 
d="M310 780l148 122l59 -61l-170 -103zM157 780l148 122l59 -61l-170 -103z" />
    <glyph glyph-name="Macron" unicode="&#xf6d0;" horiz-adv-x="598" 
d="M165 780v75h268v-75h-268z" />
    <glyph glyph-name="cyrBreve" unicode="&#xf6d1;" horiz-adv-x="598" 
d="M229 860q1 -10 6 -21t14 -20.5t22 -15.5t29 -6q18 0 31.5 6t22.5 15.5t13.5 20.5t4.5 21h71q-2 -20 -9 -42.5t-23.5 -41.5t-43 -32t-67.5 -13t-68.5 13t-44 32t-24 41.5t-7.5 42.5h73z" />
    <glyph glyph-name="cyrbreve" unicode="&#xf6d4;" horiz-adv-x="511" 
d="M200 707q1 -10 6 -21t14 -20.5t22 -15.5t29 -6q18 0 31.5 6t22.5 15.5t13.5 20.5t4.5 21h71q-2 -20 -9 -42.5t-23.5 -41.5t-43 -32t-67.5 -13t-68.5 13t-44 32t-24 41.5t-7.5 42.5h73z" />
    <glyph glyph-name="macron" unicode="&#xaf;" horiz-adv-x="491" 
d="M127 600v75h268v-75h-268z" />
    <glyph glyph-name="ring" unicode="&#x2da;" horiz-adv-x="491" 
d="M274 546q-42 0 -70.5 28.5t-28.5 69.5t28.5 69.5t70.5 28.5q41 0 69.5 -28.5t28.5 -69.5t-28.5 -69.5t-69.5 -28.5zM274 699q-23 0 -39 -16t-16 -39t16 -39t39 -16t39 16t16 39t-16 39t-39 16z" />
    <glyph glyph-name="dotaccent" unicode="&#x2d9;" horiz-adv-x="491" 
d="M204 597v88h88v-88h-88z" />
    <glyph glyph-name="ogonek" unicode="&#x2db;" horiz-adv-x="281" 
d="M59 -92q0 20 8.5 42.5t29.5 51.5h58l1 -2q-32 -45 -32 -77q0 -21 12.5 -32.5t35.5 -11.5q12 0 26 2.5t32 10.5l19 -48q-15 -10 -38.5 -17t-48.5 -7q-48 0 -75.5 26t-27.5 62z" />
    <glyph glyph-name="hungarumlaut" unicode="&#x2dd;" horiz-adv-x="563" 
d="M153 571l72 177l81 -25l-100 -172zM283 571l72 177l81 -25l-100 -172z" />
    <glyph glyph-name="commaaccent" unicode="&#xf6c3;" horiz-adv-x="592" 
d="M299 -257h-51l39 88h-35v111h103v-109z" />
    <glyph glyph-name="Agrave" unicode="&#xc0;" horiz-adv-x="598" 
d="M499 0l-56 160h-289l-56 -160h-92l255 696h76l255 -696h-93zM351 431l-51 148h-3l-49 -144l-69 -199h239zM292 738l-170 103l59 61l148 -122z" />
    <glyph glyph-name="Aacute" unicode="&#xc1;" horiz-adv-x="598" 
d="M499 0l-56 160h-289l-56 -160h-92l255 696h76l255 -696h-93zM351 431l-51 148h-3l-49 -144l-69 -199h239zM250 780l148 122l59 -61l-170 -103z" />
    <glyph glyph-name="Acircumflex" unicode="&#xc2;" horiz-adv-x="598" 
d="M499 0l-56 160h-289l-56 -160h-92l255 696h76l255 -696h-93zM351 431l-51 148h-3l-49 -144l-69 -199h239zM300 826l-144 -87l-29 38l150 128h53l143 -126l-30 -39z" />
    <glyph glyph-name="Atilde" unicode="&#xc3;" horiz-adv-x="598" 
d="M499 0l-56 160h-289l-56 -160h-92l255 696h76l255 -696h-93zM351 431l-51 148h-3l-49 -144l-69 -199h239zM230 869q18 0 36.5 -7.5t35.5 -16t33 -16t29 -7.5q15 0 30 10.5t31 34.5l52 -29q-22 -46 -48.5 -67.5t-58.5 -21.5q-18 0 -35.5 6.5t-34.5 14.5t-32.5 14.5
t-30.5 6.5q-17 0 -30.5 -8.5t-32.5 -31.5l-52 29q20 42 49 65.5t59 23.5z" />
    <glyph glyph-name="Aring" unicode="&#xc5;" horiz-adv-x="598" 
d="M499 0l-56 160h-289l-56 -160h-92l255 696h76l255 -696h-93zM351 431l-51 148h-3l-49 -144l-69 -199h239zM299 714q-42 0 -70.5 28.5t-28.5 69.5t28.5 69.5t70.5 28.5q41 0 69.5 -28.5t28.5 -69.5t-28.5 -69.5t-69.5 -28.5zM299 867q-23 0 -39 -16t-16 -39t16 -39t39 -16
t39 16t16 39t-16 39t-39 16z" />
    <glyph glyph-name="Circumflex" unicode="&#xf6c0;" horiz-adv-x="600" 
d="M300 826l-144 -87l-29 38l150 128h53l143 -126l-30 -39z" />
    <glyph glyph-name="Egrave" unicode="&#xc8;" horiz-adv-x="543" 
d="M76 0v696h440v-81h-352v-225h300v-77h-300v-232h352v-81h-440zM310 738l-170 103l59 61l148 -122z" />
    <glyph glyph-name="Ecircumflex" unicode="&#xca;" horiz-adv-x="543" 
d="M76 0v696h440v-81h-352v-225h300v-77h-300v-232h352v-81h-440zM300 826l-144 -87l-29 38l150 128h53l143 -126l-30 -39z" />
    <glyph glyph-name="Edieresis" unicode="&#xcb;" horiz-adv-x="543" 
d="M76 0v696h440v-81h-352v-225h300v-77h-300v-232h352v-81h-440zM339 767v88h88v-88h-88zM159 767v88h88v-88h-88z" />
    <glyph glyph-name="Igrave" unicode="&#xcc;" horiz-adv-x="241" 
d="M76 0v696h88v-696h-88zM126 738l-170 103l59 61l148 -122z" />
    <glyph glyph-name="Iacute" unicode="&#xcd;" horiz-adv-x="241" 
d="M76 0v696h88v-696h-88zM88 780l148 122l59 -61l-170 -103z" />
    <glyph glyph-name="Icircumflex" unicode="&#xce;" horiz-adv-x="241" 
d="M76 0v696h88v-696h-88zM122 826l-144 -87l-29 38l150 128h53l143 -126l-30 -39z" />
    <glyph glyph-name="Idieresis" unicode="&#xcf;" horiz-adv-x="241" 
d="M76 0v696h88v-696h-88zM169 767v88h88v-88h-88zM-11 767v88h88v-88h-88z" />
    <glyph glyph-name="Ograve" unicode="&#xd2;" horiz-adv-x="595" 
d="M297 701q57 0 103 -19.5t78.5 -53.5t49.5 -81.5t17 -102.5v-192q0 -59 -17.5 -107t-50 -81.5t-78 -51.5t-102.5 -18q-62 0 -108.5 21t-77.5 56t-46 82t-15 99v192q0 51 15 97.5t46 82t77.5 56.5t108.5 21zM298 618q-41 0 -71 -15t-50 -39.5t-30 -56.5t-10 -65v-185
q0 -35 10 -67.5t30 -57.5t50 -40.5t71 -15.5q37 0 66.5 14t50 38t31.5 57t11 72v185q0 36 -11 68t-31.5 56t-50 38t-66.5 14zM322 738l-170 103l59 61l148 -122z" />
    <glyph glyph-name="Oacute" unicode="&#xd3;" horiz-adv-x="595" 
d="M297 701q57 0 103 -19.5t78.5 -53.5t49.5 -81.5t17 -102.5v-192q0 -59 -17.5 -107t-50 -81.5t-78 -51.5t-102.5 -18q-62 0 -108.5 21t-77.5 56t-46 82t-15 99v192q0 51 15 97.5t46 82t77.5 56.5t108.5 21zM298 618q-41 0 -71 -15t-50 -39.5t-30 -56.5t-10 -65v-185
q0 -35 10 -67.5t30 -57.5t50 -40.5t71 -15.5q37 0 66.5 14t50 38t31.5 57t11 72v185q0 36 -11 68t-31.5 56t-50 38t-66.5 14zM258 780l148 122l59 -61l-170 -103z" />
    <glyph glyph-name="Ocircumflex" unicode="&#xd4;" horiz-adv-x="595" 
d="M297 701q57 0 103 -19.5t78.5 -53.5t49.5 -81.5t17 -102.5v-192q0 -59 -17.5 -107t-50 -81.5t-78 -51.5t-102.5 -18q-62 0 -108.5 21t-77.5 56t-46 82t-15 99v192q0 51 15 97.5t46 82t77.5 56.5t108.5 21zM298 618q-41 0 -71 -15t-50 -39.5t-30 -56.5t-10 -65v-185
q0 -35 10 -67.5t30 -57.5t50 -40.5t71 -15.5q37 0 66.5 14t50 38t31.5 57t11 72v185q0 36 -11 68t-31.5 56t-50 38t-66.5 14zM298 826l-144 -87l-29 38l150 128h53l143 -126l-30 -39z" />
    <glyph glyph-name="Otilde" unicode="&#xd5;" horiz-adv-x="595" 
d="M297 701q57 0 103 -19.5t78.5 -53.5t49.5 -81.5t17 -102.5v-192q0 -59 -17.5 -107t-50 -81.5t-78 -51.5t-102.5 -18q-62 0 -108.5 21t-77.5 56t-46 82t-15 99v192q0 51 15 97.5t46 82t77.5 56.5t108.5 21zM298 618q-41 0 -71 -15t-50 -39.5t-30 -56.5t-10 -65v-185
q0 -35 10 -67.5t30 -57.5t50 -40.5t71 -15.5q37 0 66.5 14t50 38t31.5 57t11 72v185q0 36 -11 68t-31.5 56t-50 38t-66.5 14zM236 869q18 0 36.5 -7.5t35.5 -16t33 -16t29 -7.5q15 0 30 10.5t31 34.5l52 -29q-22 -46 -48.5 -67.5t-58.5 -21.5q-18 0 -35.5 6.5t-34.5 14.5
t-32.5 14.5t-30.5 6.5q-17 0 -30.5 -8.5t-32.5 -31.5l-52 29q20 42 49 65.5t59 23.5z" />
    <glyph glyph-name="Ugrave" unicode="&#xd9;" horiz-adv-x="618" 
d="M557 696v-444q0 -59 -17.5 -107t-50 -81.5t-78 -51.5t-102.5 -18q-62 0 -108.5 21t-77.5 56t-46 82t-15 99v444h87v-437q0 -35 10 -67.5t30 -57.5t50 -40.5t71 -15.5q74 0 116.5 46.5t42.5 134.5v437h88zM314 738l-170 103l59 61l148 -122z" />
    <glyph glyph-name="Uacute" unicode="&#xda;" horiz-adv-x="618" 
d="M557 696v-444q0 -59 -17.5 -107t-50 -81.5t-78 -51.5t-102.5 -18q-62 0 -108.5 21t-77.5 56t-46 82t-15 99v444h87v-437q0 -35 10 -67.5t30 -57.5t50 -40.5t71 -15.5q74 0 116.5 46.5t42.5 134.5v437h88zM250 780l148 122l59 -61l-170 -103z" />
    <glyph glyph-name="Ucircumflex" unicode="&#xdb;" horiz-adv-x="618" 
d="M557 696v-444q0 -59 -17.5 -107t-50 -81.5t-78 -51.5t-102.5 -18q-62 0 -108.5 21t-77.5 56t-46 82t-15 99v444h87v-437q0 -35 10 -67.5t30 -57.5t50 -40.5t71 -15.5q74 0 116.5 46.5t42.5 134.5v437h88zM309 826l-144 -87l-29 38l150 128h53l143 -126l-30 -39z" />
    <glyph glyph-name="Yacute" unicode="&#xdd;" horiz-adv-x="508" 
d="M295 276v-276h-84v276l-209 420h93l97 -193l62 -133l65 139l94 187h91zM193 780l148 122l59 -61l-170 -103z" />
    <glyph glyph-name="aacute" unicode="&#xe1;" horiz-adv-x="482" 
d="M232 501q40 0 76.5 -7.5t64 -25.5t43.5 -49t16 -78v-341h-83v43l-1 1q-14 -22 -50 -36t-87 -14q-85 0 -130.5 41.5t-45.5 105.5q0 29 10 55.5t29.5 46.5t49 32t69.5 12h156v56q0 41 -27 61t-87 20q-47 0 -74 -11.5t-44 -31.5l-52 55q28 32 72 48.5t95 16.5zM113 146
q0 -35 26.5 -56t81.5 -21q24 0 47 4t41 14.5t29 28t11 45.5v58h-136q-48 0 -74 -19t-26 -54zM226 571l72 177l81 -25l-100 -172z" />
    <glyph glyph-name="atilde" unicode="&#xe3;" horiz-adv-x="482" 
d="M232 501q40 0 76.5 -7.5t64 -25.5t43.5 -49t16 -78v-341h-83v43l-1 1q-14 -22 -50 -36t-87 -14q-85 0 -130.5 41.5t-45.5 105.5q0 29 10 55.5t29.5 46.5t49 32t69.5 12h156v56q0 41 -27 61t-87 20q-47 0 -74 -11.5t-44 -31.5l-52 55q28 32 72 48.5t95 16.5zM113 146
q0 -35 26.5 -56t81.5 -21q24 0 47 4t41 14.5t29 28t11 45.5v58h-136q-48 0 -74 -19t-26 -54zM179 699q18 0 36.5 -7.5t35.5 -16t33 -16t29 -7.5q15 0 30 10.5t31 34.5l52 -29q-22 -46 -48.5 -67.5t-58.5 -21.5q-18 0 -35.5 6.5t-34.5 14.5t-32.5 14.5t-30.5 6.5
q-17 0 -30.5 -8.5t-32.5 -31.5l-52 29q20 42 49 65.5t59 23.5z" />
    <glyph glyph-name="igrave" unicode="&#xec;" horiz-adv-x="200" 
d="M56 0v495h88v-495h-88zM95 551l-100 172l81 25l72 -177z" />
    <glyph glyph-name="iacute" unicode="&#xed;" horiz-adv-x="200" 
d="M56 0v495h88v-495h-88zM77 571l72 177l81 -25l-100 -172z" />
    <glyph glyph-name="ntilde" unicode="&#xf1;" horiz-adv-x="506" 
d="M367 0v297q0 57 -24 90t-89 33q-50 0 -83 -33t-33 -90v-297h-82v497h82v-63h3q26 32 64.5 49.5t78.5 17.5q36 0 66 -10.5t52 -32t34.5 -54t12.5 -75.5v-329h-82zM172 699q18 0 36.5 -7.5t35.5 -16t33 -16t29 -7.5q15 0 30 10.5t31 34.5l52 -29q-22 -46 -48.5 -67.5
t-58.5 -21.5q-18 0 -35.5 6.5t-34.5 14.5t-32.5 14.5t-30.5 6.5q-17 0 -30.5 -8.5t-32.5 -31.5l-52 29q20 42 49 65.5t59 23.5z" />
    <glyph glyph-name="ograve" unicode="&#xf2;" horiz-adv-x="514" 
d="M263 500q54 0 96 -21.5t68 -61.5q17 -27 25.5 -65.5t8.5 -86.5q0 -64 -7 -107.5t-24 -72.5q-26 -44 -72.5 -67.5t-105.5 -23.5q-54 0 -96 18.5t-68 56.5q-20 31 -28.5 74t-8.5 103q0 42 5.5 77.5t19.5 64.5q25 54 73.5 83t113.5 29zM260 426q-37 0 -65.5 -18.5
t-43.5 -51.5q-11 -23 -14 -50.5t-4 -60.5q0 -33 2.5 -59.5t12.5 -48.5q14 -32 41 -50t64 -18q40 0 71.5 21t45.5 67q5 18 6.5 41.5t1.5 63.5q0 29 -2.5 51.5t-10.5 40.5q-14 37 -42 54.5t-63 17.5zM252 551l-100 172l81 25l72 -177z" />
    <glyph glyph-name="oacute" unicode="&#xf3;" horiz-adv-x="514" 
d="M263 500q54 0 96 -21.5t68 -61.5q17 -27 25.5 -65.5t8.5 -86.5q0 -64 -7 -107.5t-24 -72.5q-26 -44 -72.5 -67.5t-105.5 -23.5q-54 0 -96 18.5t-68 56.5q-20 31 -28.5 74t-8.5 103q0 42 5.5 77.5t19.5 64.5q25 54 73.5 83t113.5 29zM260 426q-37 0 -65.5 -18.5
t-43.5 -51.5q-11 -23 -14 -50.5t-4 -60.5q0 -33 2.5 -59.5t12.5 -48.5q14 -32 41 -50t64 -18q40 0 71.5 21t45.5 67q5 18 6.5 41.5t1.5 63.5q0 29 -2.5 51.5t-10.5 40.5q-14 37 -42 54.5t-63 17.5zM230 571l72 177l81 -25l-100 -172z" />
    <glyph glyph-name="uacute" unicode="&#xfa;" horiz-adv-x="514" 
d="M367 0v56h-3q-25 -32 -61.5 -47t-74.5 -15t-70 9.5t-54.5 30.5t-35 54t-12.5 79v329h82v-298q0 -32 5 -56t18 -39.5t35 -23t56 -7.5q49 0 82 34.5t33 91.5v298h82v-496h-82zM212 571l72 177l81 -25l-100 -172z" />
    <glyph glyph-name="yacute" unicode="&#xfd;" horiz-adv-x="438" 
d="M225 -105q-11 -30 -25 -49t-31 -29t-36 -13.5t-39 -3.5h-42v72h41q20 0 35.5 12t26.5 44l27 82l-182 486h91l79 -225l51 -156h3l51 155l77 226h86zM187 571l72 177l81 -25l-100 -172z" />
    <glyph glyph-name="ydieresis" unicode="&#xff;" horiz-adv-x="438" 
d="M225 -105q-11 -30 -25 -49t-31 -29t-36 -13.5t-39 -3.5h-42v72h41q20 0 35.5 12t26.5 44l27 82l-182 486h91l79 -225l51 -156h3l51 155l77 226h86zM275 597v88h88v-88h-88zM95 597v88h88v-88h-88z" />
    <glyph glyph-name="aring" unicode="&#xe5;" horiz-adv-x="482" 
d="M232 501q40 0 76.5 -7.5t64 -25.5t43.5 -49t16 -78v-341h-83v43l-1 1q-14 -22 -50 -36t-87 -14q-85 0 -130.5 41.5t-45.5 105.5q0 29 10 55.5t29.5 46.5t49 32t69.5 12h156v56q0 41 -27 61t-87 20q-47 0 -74 -11.5t-44 -31.5l-52 55q28 32 72 48.5t95 16.5zM113 146
q0 -35 26.5 -56t81.5 -21q24 0 47 4t41 14.5t29 28t11 45.5v58h-136q-48 0 -74 -19t-26 -54zM254 546q-42 0 -70.5 28.5t-28.5 69.5t28.5 69.5t70.5 28.5q41 0 69.5 -28.5t28.5 -69.5t-28.5 -69.5t-69.5 -28.5zM254 699q-23 0 -39 -16t-16 -39t16 -39t39 -16t39 16t16 39
t-16 39t-39 16z" />
    <glyph glyph-name="thorn" unicode="&#xfe;" horiz-adv-x="514" 
d="M138 696v-255l3 -1q29 33 63.5 47t71.5 14q53 0 87.5 -21.5t54.5 -57t27.5 -80t7.5 -90.5q0 -48 -8 -94.5t-30 -82.5t-59.5 -58.5t-95.5 -22.5q-37 0 -64 11t-56 39h-2v-242h-82v894h82zM138 247q0 -28 3.5 -58.5t15.5 -55.5t34.5 -41t60.5 -16q39 0 61.5 15.5t34.5 40
t15.5 55t3.5 60.5q0 29 -3.5 59.5t-15 56t-34.5 41.5t-62 16q-38 0 -60.5 -17t-34.5 -42.5t-15.5 -56t-3.5 -57.5z" />
    <glyph glyph-name="OE" unicode="&#x152;" horiz-adv-x="811" 
d="M349 0q-29 -6 -60 -6q-62 0 -108.5 21t-77.5 56t-46 82t-15 99v192q0 51 15 97.5t46 82t77.5 56.5t108.5 21q14 0 27.5 -1.5t27.5 -3.5h440v-81h-352v-225h300v-77h-300v-232h352v-81h-435zM290 76q28 0 54 9v524q-26 9 -54 9q-41 0 -71 -15t-50 -39.5t-30 -56.5t-10 -65
v-185q0 -35 10 -67.5t30 -57.5t50 -40.5t71 -15.5z" />
    <glyph glyph-name="Ydieresis" unicode="&#x178;" horiz-adv-x="508" 
d="M295 276v-276h-84v276l-209 420h93l97 -193l62 -133l65 139l94 187h91zM300 770v88h88v-88h-88zM120 770v88h88v-88h-88z" />
    <glyph glyph-name="Amacron" unicode="&#x100;" horiz-adv-x="598" 
d="M499 0l-56 160h-289l-56 -160h-92l255 696h76l255 -696h-93zM351 431l-51 148h-3l-49 -144l-69 -199h239zM165 780v75h268v-75h-268z" />
    <glyph glyph-name="amacron" unicode="&#x101;" horiz-adv-x="482" 
d="M232 501q40 0 76.5 -7.5t64 -25.5t43.5 -49t16 -78v-341h-83v43l-1 1q-14 -22 -50 -36t-87 -14q-85 0 -130.5 41.5t-45.5 105.5q0 29 10 55.5t29.5 46.5t49 32t69.5 12h156v56q0 41 -27 61t-87 20q-47 0 -74 -11.5t-44 -31.5l-52 55q28 32 72 48.5t95 16.5zM113 146
q0 -35 26.5 -56t81.5 -21q24 0 47 4t41 14.5t29 28t11 45.5v58h-136q-48 0 -74 -19t-26 -54zM117 600v75h268v-75h-268z" />
    <glyph glyph-name="Abreve" unicode="&#x102;" horiz-adv-x="598" 
d="M499 0l-56 160h-289l-56 -160h-92l255 696h76l255 -696h-93zM351 431l-51 148h-3l-49 -144l-69 -199h239zM229 860q1 -10 6 -21t14 -20.5t22 -15.5t29 -6q18 0 31.5 6t22.5 15.5t13.5 20.5t4.5 21h71q-2 -20 -9 -42.5t-23.5 -41.5t-43 -32t-67.5 -13t-68.5 13t-44 32
t-24 41.5t-7.5 42.5h73z" />
    <glyph glyph-name="abreve" unicode="&#x103;" horiz-adv-x="482" 
d="M232 501q40 0 76.5 -7.5t64 -25.5t43.5 -49t16 -78v-341h-83v43l-1 1q-14 -22 -50 -36t-87 -14q-85 0 -130.5 41.5t-45.5 105.5q0 29 10 55.5t29.5 46.5t49 32t69.5 12h156v56q0 41 -27 61t-87 20q-47 0 -74 -11.5t-44 -31.5l-52 55q28 32 72 48.5t95 16.5zM113 146
q0 -35 26.5 -56t81.5 -21q24 0 47 4t41 14.5t29 28t11 45.5v58h-136q-48 0 -74 -19t-26 -54zM190 697q1 -10 6 -21t14 -20.5t22 -15.5t29 -6q18 0 31.5 6t22.5 15.5t13.5 20.5t4.5 21h71q-2 -20 -9 -42.5t-23.5 -41.5t-43 -32t-67.5 -13t-68.5 13t-44 32t-24 41.5t-7.5 42.5
h73z" />
    <glyph glyph-name="Aogonek" unicode="&#x104;" horiz-adv-x="598" 
d="M462 -92q0 20 8.5 42t28.5 50l-56 160h-289l-56 -160h-92l255 696h76l255 -696h-33q-32 -45 -32 -77q0 -21 12.5 -32.5t35.5 -11.5q12 0 26 2.5t32 10.5l19 -48q-15 -10 -38.5 -17t-48.5 -7q-48 0 -75.5 26t-27.5 62zM351 431l-51 148h-3l-49 -144l-69 -199h239z" />
    <glyph glyph-name="aogonek" unicode="&#x105;" horiz-adv-x="482" 
d="M312 -92q0 20 8.5 42t28.5 50v43l-1 1q-14 -22 -50 -36t-87 -14q-85 0 -130.5 41.5t-45.5 105.5q0 29 10 55.5t29.5 46.5t49 32t69.5 12h156v56q0 41 -27 61t-87 20q-47 0 -74 -11.5t-44 -31.5l-52 55q28 32 72 48.5t95 16.5q40 0 76.5 -7.5t64 -25.5t43.5 -49t16 -78
v-341h-23q-32 -45 -32 -77q0 -21 12.5 -32.5t35.5 -11.5q12 0 26 2.5t32 10.5l19 -48q-15 -10 -38.5 -17t-48.5 -7q-48 0 -75.5 26t-27.5 62zM113 146q0 -35 26.5 -56t81.5 -21q24 0 47 4t41 14.5t29 28t11 45.5v58h-136q-48 0 -74 -19t-26 -54z" />
    <glyph glyph-name="Cacute" unicode="&#x106;" horiz-adv-x="543" 
d="M528 142q-26 -70 -85 -109t-144 -39q-62 0 -108.5 21t-77.5 56t-46 82t-15 99v192q0 51 15 97.5t46 82t77.5 56.5t108.5 21q85 0 143 -40t85 -107l-82 -37q-17 45 -54 72t-91 27q-41 0 -71 -15t-50 -39.5t-30 -56.5t-10 -65v-181q0 -35 10 -67.5t30 -57.5t50 -40.5
t71 -15.5q54 0 91.5 28.5t54.5 75.5zM230 780l148 122l59 -61l-170 -103z" />
    <glyph glyph-name="cacute" unicode="&#x107;" horiz-adv-x="431" 
d="M416 64q-32 -32 -72 -51t-91 -19q-43 0 -83.5 14t-72 44.5t-50.5 78.5t-19 116q0 69 19 117t50.5 78.5t72 44.5t83.5 14q50 0 90 -19t72 -50l-53 -60q-20 23 -48 36.5t-57 13.5q-70 0 -108.5 -43t-38.5 -132q0 -88 38.5 -131.5t108.5 -43.5q32 0 59.5 15.5t45.5 35.5z
M193 571l72 177l81 -25l-100 -172z" />
    <glyph glyph-name="Ccircumflex" unicode="&#x108;" horiz-adv-x="543" 
d="M528 142q-26 -70 -85 -109t-144 -39q-62 0 -108.5 21t-77.5 56t-46 82t-15 99v192q0 51 15 97.5t46 82t77.5 56.5t108.5 21q85 0 143 -40t85 -107l-82 -37q-17 45 -54 72t-91 27q-41 0 -71 -15t-50 -39.5t-30 -56.5t-10 -65v-181q0 -35 10 -67.5t30 -57.5t50 -40.5
t71 -15.5q54 0 91.5 28.5t54.5 75.5zM300 826l-144 -87l-29 38l150 128h53l143 -126l-30 -39z" />
    <glyph glyph-name="ccircumflex" unicode="&#x109;" horiz-adv-x="431" 
d="M416 64q-32 -32 -72 -51t-91 -19q-43 0 -83.5 14t-72 44.5t-50.5 78.5t-19 116q0 69 19 117t50.5 78.5t72 44.5t83.5 14q50 0 90 -19t72 -50l-53 -60q-20 23 -48 36.5t-57 13.5q-70 0 -108.5 -43t-38.5 -132q0 -88 38.5 -131.5t108.5 -43.5q32 0 59.5 15.5t45.5 35.5z
M242 659l-134 -107l-39 38l150 153h53l143 -151l-40 -39z" />
    <glyph glyph-name="Cdotaccent" unicode="&#x10a;" horiz-adv-x="543" 
d="M528 142q-26 -70 -85 -109t-144 -39q-62 0 -108.5 21t-77.5 56t-46 82t-15 99v192q0 51 15 97.5t46 82t77.5 56.5t108.5 21q85 0 143 -40t85 -107l-82 -37q-17 45 -54 72t-91 27q-41 0 -71 -15t-50 -39.5t-30 -56.5t-10 -65v-181q0 -35 10 -67.5t30 -57.5t50 -40.5
t71 -15.5q54 0 91.5 28.5t54.5 75.5zM247 767v88h88v-88h-88z" />
    <glyph glyph-name="cdotaccent" unicode="&#x10b;" horiz-adv-x="431" 
d="M416 64q-32 -32 -72 -51t-91 -19q-43 0 -83.5 14t-72 44.5t-50.5 78.5t-19 116q0 69 19 117t50.5 78.5t72 44.5t83.5 14q50 0 90 -19t72 -50l-53 -60q-20 23 -48 36.5t-57 13.5q-70 0 -108.5 -43t-38.5 -132q0 -88 38.5 -131.5t108.5 -43.5q32 0 59.5 15.5t45.5 35.5z
M207 597v88h88v-88h-88z" />
    <glyph glyph-name="Ccaron" unicode="&#x10c;" horiz-adv-x="543" 
d="M528 142q-26 -70 -85 -109t-144 -39q-62 0 -108.5 21t-77.5 56t-46 82t-15 99v192q0 51 15 97.5t46 82t77.5 56.5t108.5 21q85 0 143 -40t85 -107l-82 -37q-17 45 -54 72t-91 27q-41 0 -71 -15t-50 -39.5t-30 -56.5t-10 -65v-181q0 -35 10 -67.5t30 -57.5t50 -40.5
t71 -15.5q54 0 91.5 28.5t54.5 75.5zM439 908l30 -39l-143 -127h-53l-150 129l29 38l144 -87z" />
    <glyph glyph-name="ccaron" unicode="&#x10d;" horiz-adv-x="431" 
d="M416 64q-32 -32 -72 -51t-91 -19q-43 0 -83.5 14t-72 44.5t-50.5 78.5t-19 116q0 69 19 117t50.5 78.5t72 44.5t83.5 14q50 0 90 -19t72 -50l-53 -60q-20 23 -48 36.5t-57 13.5q-70 0 -108.5 -43t-38.5 -132q0 -88 38.5 -131.5t108.5 -43.5q32 0 59.5 15.5t45.5 35.5z
M375 743l40 -39l-143 -151h-53l-150 153l39 38l134 -107z" />
    <glyph glyph-name="Dcaron" unicode="&#x10e;" horiz-adv-x="618" 
d="M304 696q78 0 141 -30t96 -99q19 -38 23 -90t4 -117q0 -73 -4 -127t-21 -95q-17 -39 -43.5 -65.5t-59.5 -42.5t-72 -23t-81 -7h-211v696h228zM480 412q0 57 -13 96t-37 63t-57 34t-73 10h-136v-534h136q49 0 83.5 14t56 40t31 62.5t9.5 81.5v133zM418 908l30 -39
l-143 -127h-53l-150 129l29 38l144 -87z" />
    <glyph glyph-name="dcaron" unicode="&#x10f;" horiz-adv-x="613" 
d="M550 525h-51l39 88h-35v111h103v-109zM361 0v48l-3 1q-33 -32 -67.5 -43.5t-71.5 -11.5q-53 0 -87 20t-53 54t-26 79.5t-7 95.5q0 48 8 94.5t30 82.5t59 58.5t96 22.5q37 0 69 -12.5t51 -37.5h2v275h82v-726h-82zM361 248q0 28 -3.5 58.5t-15 55.5t-34 41t-59.5 16
q-39 0 -62 -15.5t-35 -40t-16 -55t-4 -60.5q0 -35 3.5 -66t15 -55t34 -38t60.5 -14q37 0 60 17t35.5 42.5t16.5 56t4 57.5z" />
    <glyph glyph-name="Dcroat" unicode="&#x110;" horiz-adv-x="618" 
d="M6 391h70v305h228q78 0 141 -30t96 -99q19 -38 23 -90t4 -117q0 -73 -4 -127t-21 -95q-17 -39 -43.5 -65.5t-59.5 -42.5t-72 -23t-81 -7h-211v328h-70v63zM480 412q0 57 -13 96t-37 63t-57 34t-73 10h-136v-224h105v-63h-105v-247h136q49 0 83.5 14t56 40t31 62.5
t9.5 81.5v133z" />
    <glyph glyph-name="dcroat" unicode="&#x111;" horiz-adv-x="496" 
d="M274 624h87v102h82v-102h53v-57h-53v-567h-82v48l-3 1q-33 -32 -67.5 -43.5t-71.5 -11.5q-53 0 -87 20t-53 54t-26 79.5t-7 95.5q0 48 8 94.5t30 82.5t59 58.5t96 22.5q37 0 69 -12.5t51 -37.5h2v116h-87v57zM361 248q0 28 -3.5 58.5t-15 55.5t-34 41t-59.5 16
q-39 0 -62 -15.5t-35 -40t-16 -55t-4 -60.5q0 -35 3.5 -66t15 -55t34 -38t60.5 -14q37 0 60 17t35.5 42.5t16.5 56t4 57.5z" />
    <glyph glyph-name="Emacron" unicode="&#x112;" horiz-adv-x="543" 
d="M76 0v696h440v-81h-352v-225h300v-77h-300v-232h352v-81h-440zM165 780v75h268v-75h-268z" />
    <glyph glyph-name="emacron" unicode="&#x113;" horiz-adv-x="481" 
d="M125 220v-8q0 -29 8 -55t24 -45.5t40 -30.5t56 -11q24 0 55.5 12t56.5 35l53 -59q-35 -34 -79 -49t-90 -15q-38 0 -75.5 10.5t-67.5 38.5t-48.5 77t-18.5 126q0 73 19 122.5t49 79t67 42t72 12.5q41 0 77 -14.5t63 -42.5t42.5 -68.5t15.5 -92.5v-64h-319zM242 424
q-51 0 -82 -35t-35 -100h233q-3 67 -34 101t-82 34zM127 600v75h268v-75h-268z" />
    <glyph glyph-name="Ebreve" unicode="&#x114;" horiz-adv-x="543" 
d="M76 0v696h440v-81h-352v-225h300v-77h-300v-232h352v-81h-440zM229 860q1 -10 6 -21t14 -20.5t22 -15.5t29 -6q18 0 31.5 6t22.5 15.5t13.5 20.5t4.5 21h71q-2 -20 -9 -42.5t-23.5 -41.5t-43 -32t-67.5 -13t-68.5 13t-44 32t-24 41.5t-7.5 42.5h73z" />
    <glyph glyph-name="ebreve" unicode="&#x115;" horiz-adv-x="481" 
d="M125 220v-8q0 -29 8 -55t24 -45.5t40 -30.5t56 -11q24 0 55.5 12t56.5 35l53 -59q-35 -34 -79 -49t-90 -15q-38 0 -75.5 10.5t-67.5 38.5t-48.5 77t-18.5 126q0 73 19 122.5t49 79t67 42t72 12.5q41 0 77 -14.5t63 -42.5t42.5 -68.5t15.5 -92.5v-64h-319zM242 424
q-51 0 -82 -35t-35 -100h233q-3 67 -34 101t-82 34zM180 697q1 -10 6 -21t14 -20.5t22 -15.5t29 -6q18 0 31.5 6t22.5 15.5t13.5 20.5t4.5 21h71q-2 -20 -9 -42.5t-23.5 -41.5t-43 -32t-67.5 -13t-68.5 13t-44 32t-24 41.5t-7.5 42.5h73z" />
    <glyph glyph-name="Edotaccent" unicode="&#x116;" horiz-adv-x="543" 
d="M76 0v696h440v-81h-352v-225h300v-77h-300v-232h352v-81h-440zM247 767v88h88v-88h-88z" />
    <glyph glyph-name="edotaccent" unicode="&#x117;" horiz-adv-x="481" 
d="M125 220v-8q0 -29 8 -55t24 -45.5t40 -30.5t56 -11q24 0 55.5 12t56.5 35l53 -59q-35 -34 -79 -49t-90 -15q-38 0 -75.5 10.5t-67.5 38.5t-48.5 77t-18.5 126q0 73 19 122.5t49 79t67 42t72 12.5q41 0 77 -14.5t63 -42.5t42.5 -68.5t15.5 -92.5v-64h-319zM242 424
q-51 0 -82 -35t-35 -100h233q-3 67 -34 101t-82 34zM204 597v88h88v-88h-88z" />
    <glyph glyph-name="Eogonek" unicode="&#x118;" horiz-adv-x="543" 
d="M419 -92q0 20 8 41.5t28 50.5h-379v696h440v-81h-352v-225h300v-77h-300v-232h352v-81q-32 -45 -32 -77q0 -21 12.5 -32.5t35.5 -11.5q12 0 26 2.5t32 10.5l19 -48q-15 -10 -38.5 -17t-48.5 -7q-48 0 -75.5 26t-27.5 62z" />
    <glyph glyph-name="eogonek" unicode="&#x119;" horiz-adv-x="481" 
d="M289 -65q0 15 4 31t15 34q-29 -6 -59 -6q-38 0 -75.5 10.5t-67.5 38.5t-48.5 77t-18.5 126q0 73 19 122.5t49 79t67 42t72 12.5q41 0 77 -14.5t63 -42.5t42.5 -68.5t15.5 -92.5v-64h-319v-8q0 -29 8 -55t24 -45.5t40 -30.5t56 -11q24 0 55.5 12t56.5 35l53 -59
q-17 -17 -38 -29h5l1 -2q-32 -45 -32 -77q0 -21 12.5 -32.5t35.5 -11.5q12 0 26 2.5t32 10.5l19 -48q-15 -10 -38.5 -17t-48.5 -7q-48 0 -75.5 26t-27.5 62zM242 424q-51 0 -82 -35t-35 -100h233q-3 67 -34 101t-82 34z" />
    <glyph glyph-name="Ecaron" unicode="&#x11a;" horiz-adv-x="543" 
d="M76 0v696h440v-81h-352v-225h300v-77h-300v-232h352v-81h-440zM432 908l30 -39l-143 -127h-53l-150 129l29 38l144 -87z" />
    <glyph glyph-name="ecaron" unicode="&#x11b;" horiz-adv-x="481" 
d="M125 220v-8q0 -29 8 -55t24 -45.5t40 -30.5t56 -11q24 0 55.5 12t56.5 35l53 -59q-35 -34 -79 -49t-90 -15q-38 0 -75.5 10.5t-67.5 38.5t-48.5 77t-18.5 126q0 73 19 122.5t49 79t67 42t72 12.5q41 0 77 -14.5t63 -42.5t42.5 -68.5t15.5 -92.5v-64h-319zM242 424
q-51 0 -82 -35t-35 -100h233q-3 67 -34 101t-82 34zM381 743l40 -39l-143 -151h-53l-150 153l39 38l134 -107z" />
    <glyph glyph-name="Gcircumflex" unicode="&#x11c;" horiz-adv-x="598" 
d="M299 72q34 0 63 13.5t50.5 36.5t33.5 53t12 63v55h-147v80h235v-135q0 -53 -18 -98t-51 -77.5t-78.5 -51t-100.5 -18.5q-63 0 -109.5 21t-77 56.5t-45.5 82.5t-15 99v192q0 51 14.5 97.5t44.5 82t75.5 56.5t107.5 21q85 0 143 -40t85 -107l-82 -37q-17 45 -55 72t-92 27
q-41 0 -70 -15t-47.5 -39.5t-27.5 -56.5t-9 -65v-187q0 -35 10 -67.5t30 -57.5t50 -40.5t71 -15.5zM300 826l-144 -87l-29 38l150 128h53l143 -126l-30 -39z" />
    <glyph glyph-name="gcircumflex" unicode="&#x11d;" horiz-adv-x="511" 
d="M443 9q0 -56 -17.5 -96.5t-47 -66.5t-68.5 -38.5t-82 -12.5q-42 0 -85 13t-75 44l49 67q20 -17 52 -31t61 -14q56 0 93 32t37 92v58h-2q-31 -35 -64.5 -48t-70.5 -13q-53 0 -87 20.5t-54 54.5t-28 77.5t-8 89.5q0 48 6.5 95.5t26.5 85t56.5 61t95.5 23.5q36 0 71.5 -16
t55.5 -45h2v55h83v-487zM131 248q0 -34 3.5 -65t15 -54.5t34 -37.5t60.5 -14q37 0 60 16t35.5 41t16.5 55.5t4 58.5q0 25 -2.5 55t-14 56.5t-34.5 44t-63 17.5q-39 0 -62 -16t-34.5 -41t-15 -55.5t-3.5 -60.5zM252 659l-134 -107l-39 38l150 153h53l143 -151l-40 -39z" />
    <glyph glyph-name="Gbreve" unicode="&#x11e;" horiz-adv-x="598" 
d="M299 72q34 0 63 13.5t50.5 36.5t33.5 53t12 63v55h-147v80h235v-135q0 -53 -18 -98t-51 -77.5t-78.5 -51t-100.5 -18.5q-63 0 -109.5 21t-77 56.5t-45.5 82.5t-15 99v192q0 51 14.5 97.5t44.5 82t75.5 56.5t107.5 21q85 0 143 -40t85 -107l-82 -37q-17 45 -55 72t-92 27
q-41 0 -70 -15t-47.5 -39.5t-27.5 -56.5t-9 -65v-187q0 -35 10 -67.5t30 -57.5t50 -40.5t71 -15.5zM229 860q1 -10 6 -21t14 -20.5t22 -15.5t29 -6q18 0 31.5 6t22.5 15.5t13.5 20.5t4.5 21h71q-2 -20 -9 -42.5t-23.5 -41.5t-43 -32t-67.5 -13t-68.5 13t-44 32t-24 41.5
t-7.5 42.5h73z" />
    <glyph glyph-name="gbreve" unicode="&#x11f;" horiz-adv-x="511" 
d="M443 9q0 -56 -17.5 -96.5t-47 -66.5t-68.5 -38.5t-82 -12.5q-42 0 -85 13t-75 44l49 67q20 -17 52 -31t61 -14q56 0 93 32t37 92v58h-2q-31 -35 -64.5 -48t-70.5 -13q-53 0 -87 20.5t-54 54.5t-28 77.5t-8 89.5q0 48 6.5 95.5t26.5 85t56.5 61t95.5 23.5q36 0 71.5 -16
t55.5 -45h2v55h83v-487zM131 248q0 -34 3.5 -65t15 -54.5t34 -37.5t60.5 -14q37 0 60 16t35.5 41t16.5 55.5t4 58.5q0 25 -2.5 55t-14 56.5t-34.5 44t-63 17.5q-39 0 -62 -16t-34.5 -41t-15 -55.5t-3.5 -60.5zM200 697q1 -10 6 -21t14 -20.5t22 -15.5t29 -6q18 0 31.5 6
t22.5 15.5t13.5 20.5t4.5 21h71q-2 -20 -9 -42.5t-23.5 -41.5t-43 -32t-67.5 -13t-68.5 13t-44 32t-24 41.5t-7.5 42.5h73z" />
    <glyph glyph-name="Gdotaccent" unicode="&#x120;" horiz-adv-x="598" 
d="M299 72q34 0 63 13.5t50.5 36.5t33.5 53t12 63v55h-147v80h235v-135q0 -53 -18 -98t-51 -77.5t-78.5 -51t-100.5 -18.5q-63 0 -109.5 21t-77 56.5t-45.5 82.5t-15 99v192q0 51 14.5 97.5t44.5 82t75.5 56.5t107.5 21q85 0 143 -40t85 -107l-82 -37q-17 45 -55 72t-92 27
q-41 0 -70 -15t-47.5 -39.5t-27.5 -56.5t-9 -65v-187q0 -35 10 -67.5t30 -57.5t50 -40.5t71 -15.5zM259 767v88h88v-88h-88z" />
    <glyph glyph-name="gdotaccent" unicode="&#x121;" horiz-adv-x="511" 
d="M443 9q0 -56 -17.5 -96.5t-47 -66.5t-68.5 -38.5t-82 -12.5q-42 0 -85 13t-75 44l49 67q20 -17 52 -31t61 -14q56 0 93 32t37 92v58h-2q-31 -35 -64.5 -48t-70.5 -13q-53 0 -87 20.5t-54 54.5t-28 77.5t-8 89.5q0 48 6.5 95.5t26.5 85t56.5 61t95.5 23.5q36 0 71.5 -16
t55.5 -45h2v55h83v-487zM131 248q0 -34 3.5 -65t15 -54.5t34 -37.5t60.5 -14q37 0 60 16t35.5 41t16.5 55.5t4 58.5q0 25 -2.5 55t-14 56.5t-34.5 44t-63 17.5q-39 0 -62 -16t-34.5 -41t-15 -55.5t-3.5 -60.5zM214 597v88h88v-88h-88z" />
    <glyph glyph-name="Gcommaaccent" unicode="&#x122;" horiz-adv-x="598" 
d="M299 72q34 0 63 13.5t50.5 36.5t33.5 53t12 63v55h-147v80h235v-135q0 -53 -18 -98t-51 -77.5t-78.5 -51t-100.5 -18.5q-63 0 -109.5 21t-77 56.5t-45.5 82.5t-15 99v192q0 51 14.5 97.5t44.5 82t75.5 56.5t107.5 21q85 0 143 -40t85 -107l-82 -37q-17 45 -55 72t-92 27
q-41 0 -70 -15t-47.5 -39.5t-27.5 -56.5t-9 -65v-187q0 -35 10 -67.5t30 -57.5t50 -40.5t71 -15.5zM299 -257h-51l39 88h-35v111h103v-109z" />
    <glyph glyph-name="gcommaaccent" unicode="&#x123;" horiz-adv-x="511" 
d="M266 752h51l-39 -88h35v-111h-103v109zM443 9q0 -56 -17.5 -96.5t-47 -66.5t-68.5 -38.5t-82 -12.5q-42 0 -85 13t-75 44l49 67q20 -17 52 -31t61 -14q56 0 93 32t37 92v58h-2q-31 -35 -64.5 -48t-70.5 -13q-53 0 -87 20.5t-54 54.5t-28 77.5t-8 89.5q0 48 6.5 95.5
t26.5 85t56.5 61t95.5 23.5q36 0 71.5 -16t55.5 -45h2v55h83v-487zM131 248q0 -34 3.5 -65t15 -54.5t34 -37.5t60.5 -14q37 0 60 16t35.5 41t16.5 55.5t4 58.5q0 25 -2.5 55t-14 56.5t-34.5 44t-63 17.5q-39 0 -62 -16t-34.5 -41t-15 -55.5t-3.5 -60.5z" />
    <glyph glyph-name="Hcircumflex" unicode="&#x124;" horiz-adv-x="636" 
d="M472 0v313h-308v-313h-88v696h88v-306h308v306h88v-696h-88zM316 826l-144 -87l-29 38l150 128h53l143 -126l-30 -39z" />
    <glyph glyph-name="hcircumflex" unicode="&#x125;" horiz-adv-x="551" 
d="M412 0v297q0 57 -23.5 90t-85.5 33q-25 0 -46.5 -8.5t-38 -24.5t-26 -39t-9.5 -51v-297h-82v726h82v-292h3q26 32 62 49.5t76 17.5q36 0 67 -10.5t54 -32t36 -54t13 -75.5v-329h-82zM138 826l-144 -87l-29 38l150 128h53l143 -126l-30 -39z" />
    <glyph glyph-name="Hbar" unicode="&#x126;" horiz-adv-x="636" 
d="M472 0v313h-308v-313h-88v535h-50v60h50v101h88v-101h308v101h88v-101h51v-60h-51v-535h-88zM472 390v145h-308v-145h308z" />
    <glyph glyph-name="hbar" unicode="&#x127;" horiz-adv-x="521" 
d="M13 639h61v87h82v-87h216v-67h-216v-144h3q26 32 63.5 49.5t77.5 17.5q36 0 66.5 -10.5t53 -32t35 -54t12.5 -75.5v-323h-82v291q0 57 -23.5 90t-85.5 33q-25 0 -46.5 -8.5t-38 -24.5t-26 -39t-9.5 -51v-291h-82v572h-61v67z" />
    <glyph glyph-name="Itilde" unicode="&#x128;" horiz-adv-x="241" 
d="M76 0v696h88v-696h-88zM52 869q18 0 36.5 -7.5t35.5 -16t33 -16t29 -7.5q15 0 30 10.5t31 34.5l52 -29q-22 -46 -48.5 -67.5t-58.5 -21.5q-18 0 -35.5 6.5t-34.5 14.5t-32.5 14.5t-30.5 6.5q-17 0 -30.5 -8.5t-32.5 -31.5l-52 29q20 42 49 65.5t59 23.5z" />
    <glyph glyph-name="itilde" unicode="&#x129;" horiz-adv-x="315" 
d="M113 0v495h88v-495h-88zM88 699q18 0 36.5 -7.5t35.5 -16t33 -16t29 -7.5q15 0 30 10.5t31 34.5l52 -29q-22 -46 -48.5 -67.5t-58.5 -21.5q-18 0 -35.5 6.5t-34.5 14.5t-32.5 14.5t-30.5 6.5q-17 0 -30.5 -8.5t-32.5 -31.5l-52 29q20 42 49 65.5t59 23.5z" />
    <glyph glyph-name="Imacron" unicode="&#x12a;" horiz-adv-x="241" 
d="M76 0v696h88v-696h-88zM-11 780v75h268v-75h-268z" />
    <glyph glyph-name="imacron" unicode="&#x12b;" horiz-adv-x="248" 
d="M80 0v495h88v-495h-88zM-9 600v75h268v-75h-268z" />
    <glyph glyph-name="Ibreve" unicode="&#x12c;" horiz-adv-x="271" 
d="M68 860q1 -10 6 -21t14 -20.5t22 -15.5t29 -6q18 0 31.5 6t22.5 15.5t13.5 20.5t4.5 21h71q-2 -20 -9 -42.5t-23.5 -41.5t-43 -32t-67.5 -13t-68.5 13t-44 32t-24 41.5t-7.5 42.5h73zM92 0v696h88v-696h-88z" />
    <glyph glyph-name="ibreve" unicode="&#x12d;" horiz-adv-x="247" 
d="M79 0v495h88v-495h-88zM53 703q1 -10 6 -21t14 -20.5t22 -15.5t29 -6q18 0 31.5 6t22.5 15.5t13.5 20.5t4.5 21h71q-2 -20 -9 -42.5t-23.5 -41.5t-43 -32t-67.5 -13t-68.5 13t-44 32t-24 41.5t-7.5 42.5h73z" />
    <glyph glyph-name="Iogonek" unicode="&#x12e;" horiz-adv-x="241" 
d="M39 -92q0 20 8.5 42t28.5 50v696h88v-696h-28q-32 -45 -32 -77q0 -21 12.5 -32.5t35.5 -11.5q12 0 26 2.5t32 10.5l19 -48q-15 -10 -38.5 -17t-48.5 -7q-48 0 -75.5 26t-27.5 62z" />
    <glyph glyph-name="iogonek" unicode="&#x12f;" horiz-adv-x="224" 
d="M35 -91q0 20 8 41.5t28 49.5v496h82v-496h-22q-31 -44 -31 -76q0 -21 12.5 -32.5t35.5 -11.5q12 0 26 2.5t32 10.5l19 -48q-15 -10 -38.5 -17t-48.5 -7q-48 0 -75.5 26t-27.5 62zM71 614v82h82v-82h-82z" />
    <glyph glyph-name="Idotaccent" unicode="&#x130;" horiz-adv-x="241" 
d="M76 0v696h88v-696h-88zM75 767v88h88v-88h-88z" />
    <glyph glyph-name="dotlessi" unicode="&#x131;" horiz-adv-x="200" 
d="M56 0v495h88v-495h-88z" />
    <glyph glyph-name="IJ" unicode="&#x132;" horiz-adv-x="674" 
d="M75 0v696h88v-696h-88zM606 222q0 -64 -16.5 -107.5t-45.5 -70.5t-68 -38.5t-83 -11.5q-53 0 -98 20t-74 52l58 65q9 -9 22 -18.5t28 -17.5t31 -13t30 -5q25 0 48 6t41 22t28.5 44.5t10.5 73.5v473h88v-474z" />
    <glyph glyph-name="ij" unicode="&#x133;" horiz-adv-x="438" 
d="M71 614v82h82v-82h-82zM71 0v496h82v-496h-82zM276 614v82h83v-82h-83zM359 -67q0 -60 -32 -97.5t-95 -37.5h-44v75h30q27 1 42.5 18t15.5 48v557h83v-563z" />
    <glyph glyph-name="Jcircumflex" unicode="&#x134;" horiz-adv-x="467" 
d="M399 223q0 -64 -16.5 -107.5t-45.5 -70.5t-68 -38.5t-83 -11.5q-53 0 -98 20t-74 52l58 65q9 -9 22 -18.5t28 -17.5t31 -13t30 -5q25 0 48 6t41 22t28.5 44.5t10.5 73.5v473h88v-474zM353 828l-144 -87l-29 38l150 128h53l143 -126l-30 -39z" />
    <glyph glyph-name="jcircumflex" unicode="&#x135;" horiz-adv-x="306" 
d="M194 -67q0 -30 -10.5 -55t-29 -42.5t-44.5 -27.5t-57 -10h-30v75h6h10h9t5 1q27 1 42.5 17.5t15.5 47.5v556h83v-562zM153 659l-134 -107l-39 38l150 153h53l143 -151l-40 -39z" />
    <glyph glyph-name="kcommaaccent" unicode="&#x137;" horiz-adv-x="506" 
d="M404 0l-164 249l-90 -99v-150h-82v726h82v-469h3l214 239h97l-169 -187l204 -309h-95zM263 -257h-51l39 88h-35v111h103v-109z" />
    <glyph glyph-name="kgreenlandic" unicode="&#x138;" horiz-adv-x="506" 
d="M404 0l-164 249l-90 -99v-150h-82v496h82v-239h3l214 239h97l-169 -187l204 -309h-95z" />
    <glyph glyph-name="Lacute" unicode="&#x139;" horiz-adv-x="543" 
d="M76 0v696h88v-615h352v-81h-440zM80 780l148 122l59 -61l-170 -103z" />
    <glyph glyph-name="lacute" unicode="&#x13a;" horiz-adv-x="243" 
d="M190 0q-54 0 -88 25.5t-34 89.5v611h82v-604q0 -47 51 -47h24v-75h-35zM70 790l148 122l59 -61l-170 -103z" />
    <glyph glyph-name="Lcommaaccent" unicode="&#x13b;" horiz-adv-x="543" 
d="M76 0v696h88v-615h352v-81h-440zM289 -257h-51l39 88h-35v111h103v-109z" />
    <glyph glyph-name="lcommaaccent" unicode="&#x13c;" horiz-adv-x="243" 
d="M190 0q-54 0 -88 25.5t-34 89.5v611h82v-604q0 -47 51 -47h24v-75h-35zM141 -257h-51l39 88h-35v111h103v-109z" />
    <glyph glyph-name="Lcaron" unicode="&#x13d;" horiz-adv-x="543" 
d="M76 0v696h88v-615h352v-81h-440zM390 497h-51l39 88h-35v111h103v-109z" />
    <glyph glyph-name="lcaron" unicode="&#x13e;" horiz-adv-x="313" 
d="M257 526h-51l39 88h-35v111h103v-109zM190 0q-54 0 -88 25.5t-34 89.5v611h82v-604q0 -47 51 -47h24v-75h-35z" />
    <glyph glyph-name="Ldot" unicode="&#x13f;" horiz-adv-x="543" 
d="M76 0v696h88v-615h352v-81h-440zM310 311v88h88v-88h-88z" />
    <glyph glyph-name="ldot" unicode="&#x140;" horiz-adv-x="322" 
d="M225 338v88h88v-88h-88zM190 0q-54 0 -88 25.5t-34 89.5v611h82v-604q0 -47 51 -47h24v-75h-35z" />
    <glyph glyph-name="Lslash" unicode="&#x141;" horiz-adv-x="574" 
d="M107 0v242l-82 -47l-33 58l115 67v376h88v-325l127 74l33 -58l-160 -93v-213h352v-81h-440z" />
    <glyph glyph-name="lslash" unicode="&#x142;" horiz-adv-x="326" 
d="M234 0q-54 0 -88 25.5t-34 89.5v175l-79 -45l-33 58l112 64v359h82v-311l99 57l33 -58l-132 -76v-216q0 -47 51 -47h24v-75h-35z" />
    <glyph glyph-name="Nacute" unicode="&#x143;" horiz-adv-x="673" 
d="M513 0l-254 392l-92 152l-3 -1v-543h-88v696h87l245 -379l101 -167l3 2v544h87v-696h-86zM280 780l148 122l59 -61l-170 -103z" />
    <glyph glyph-name="nacute" unicode="&#x144;" horiz-adv-x="506" 
d="M367 0v297q0 57 -24 90t-89 33q-50 0 -83 -33t-33 -90v-297h-82v497h82v-63h3q26 32 64.5 49.5t78.5 17.5q36 0 66 -10.5t52 -32t34.5 -54t12.5 -75.5v-329h-82zM193 571l72 177l81 -25l-100 -172z" />
    <glyph glyph-name="Ncommaaccent" unicode="&#x145;" horiz-adv-x="673" 
d="M513 0l-254 392l-92 152l-3 -1v-543h-88v696h87l245 -379l101 -167l3 2v544h87v-696h-86zM329 -237h-51l39 88h-35v111h103v-109z" />
    <glyph glyph-name="ncommaaccent" unicode="&#x146;" horiz-adv-x="506" 
d="M367 0v297q0 57 -24 90t-89 33q-50 0 -83 -33t-33 -90v-297h-82v497h82v-63h3q26 32 64.5 49.5t78.5 17.5q36 0 66 -10.5t52 -32t34.5 -54t12.5 -75.5v-329h-82zM245 -257h-51l39 88h-35v111h103v-109z" />
    <glyph glyph-name="Ncaron" unicode="&#x147;" horiz-adv-x="673" 
d="M513 0l-254 392l-92 152l-3 -1v-543h-88v696h87l245 -379l101 -167l3 2v544h87v-696h-86zM479 908l30 -39l-143 -127h-53l-150 129l29 38l144 -87z" />
    <glyph glyph-name="ncaron" unicode="&#x148;" horiz-adv-x="506" 
d="M367 0v297q0 57 -24 90t-89 33q-50 0 -83 -33t-33 -90v-297h-82v497h82v-63h3q26 32 64.5 49.5t78.5 17.5q36 0 66 -10.5t52 -32t34.5 -54t12.5 -75.5v-329h-82zM385 743l40 -39l-143 -151h-53l-150 153l39 38l134 -107z" />
    <glyph glyph-name="napostrophe" unicode="&#x149;" horiz-adv-x="587" 
d="M448 0v297q0 57 -24 90t-89 33q-50 0 -83 -33t-33 -90v-297h-82v497h82v-63h3q26 32 64.5 49.5t78.5 17.5q36 0 66 -10.5t52 -32t34.5 -54t12.5 -75.5v-329h-82zM61 470h-51l39 88h-35v111h103v-109z" />
    <glyph glyph-name="Eng" unicode="&#x14a;" horiz-adv-x="673" 
d="M599 -72q0 -56 -29.5 -81t-72.5 -25t-88 21l21 59q17 -5 30 -8t24 -3q17 0 25 9t8 32v63l-258 397l-92 152l-3 -1v-543h-88v696h87l245 -379l101 -167l3 2v544h87v-768z" />
    <glyph glyph-name="eng" unicode="&#x14b;" horiz-adv-x="506" 
d="M449 -72q0 -56 -29.5 -81t-72.5 -25t-88 21l21 59q17 -5 30 -8t24 -3q17 0 25 9t8 32v365q0 57 -26.5 89.5t-87.5 32.5q-50 0 -82 -33.5t-32 -88.5v-297h-83v496h83v-60h4q25 32 62.5 48.5t77.5 16.5q34 0 64.5 -11.5t53 -33t35.5 -53.5t13 -73v-402z" />
    <glyph glyph-name="Omacron" unicode="&#x14c;" horiz-adv-x="595" 
d="M297 701q57 0 103 -19.5t78.5 -53.5t49.5 -81.5t17 -102.5v-192q0 -59 -17.5 -107t-50 -81.5t-78 -51.5t-102.5 -18q-62 0 -108.5 21t-77.5 56t-46 82t-15 99v192q0 51 15 97.5t46 82t77.5 56.5t108.5 21zM298 618q-41 0 -71 -15t-50 -39.5t-30 -56.5t-10 -65v-185
q0 -35 10 -67.5t30 -57.5t50 -40.5t71 -15.5q37 0 66.5 14t50 38t31.5 57t11 72v185q0 36 -11 68t-31.5 56t-50 38t-66.5 14zM173 780v75h268v-75h-268z" />
    <glyph glyph-name="omacron" unicode="&#x14d;" horiz-adv-x="514" 
d="M263 500q54 0 96 -21.5t68 -61.5q17 -27 25.5 -65.5t8.5 -86.5q0 -64 -7 -107.5t-24 -72.5q-26 -44 -72.5 -67.5t-105.5 -23.5q-54 0 -96 18.5t-68 56.5q-20 31 -28.5 74t-8.5 103q0 42 5.5 77.5t19.5 64.5q25 54 73.5 83t113.5 29zM260 426q-37 0 -65.5 -18.5
t-43.5 -51.5q-11 -23 -14 -50.5t-4 -60.5q0 -33 2.5 -59.5t12.5 -48.5q14 -32 41 -50t64 -18q40 0 71.5 21t45.5 67q5 18 6.5 41.5t1.5 63.5q0 29 -2.5 51.5t-10.5 40.5q-14 37 -42 54.5t-63 17.5zM127 600v75h268v-75h-268z" />
    <glyph glyph-name="Obreve" unicode="&#x14e;" horiz-adv-x="595" 
d="M297 701q57 0 103 -19.5t78.5 -53.5t49.5 -81.5t17 -102.5v-192q0 -59 -17.5 -107t-50 -81.5t-78 -51.5t-102.5 -18q-62 0 -108.5 21t-77.5 56t-46 82t-15 99v192q0 51 15 97.5t46 82t77.5 56.5t108.5 21zM298 618q-41 0 -71 -15t-50 -39.5t-30 -56.5t-10 -65v-185
q0 -35 10 -67.5t30 -57.5t50 -40.5t71 -15.5q37 0 66.5 14t50 38t31.5 57t11 72v185q0 36 -11 68t-31.5 56t-50 38t-66.5 14zM232 860q1 -10 6 -21t14 -20.5t22 -15.5t29 -6q18 0 31.5 6t22.5 15.5t13.5 20.5t4.5 21h71q-2 -20 -9 -42.5t-23.5 -41.5t-43 -32t-67.5 -13
t-68.5 13t-44 32t-24 41.5t-7.5 42.5h73z" />
    <glyph glyph-name="obreve" unicode="&#x14f;" horiz-adv-x="514" 
d="M263 500q54 0 96 -21.5t68 -61.5q17 -27 25.5 -65.5t8.5 -86.5q0 -64 -7 -107.5t-24 -72.5q-26 -44 -72.5 -67.5t-105.5 -23.5q-54 0 -96 18.5t-68 56.5q-20 31 -28.5 74t-8.5 103q0 42 5.5 77.5t19.5 64.5q25 54 73.5 83t113.5 29zM260 426q-37 0 -65.5 -18.5
t-43.5 -51.5q-11 -23 -14 -50.5t-4 -60.5q0 -33 2.5 -59.5t12.5 -48.5q14 -32 41 -50t64 -18q40 0 71.5 21t45.5 67q5 18 6.5 41.5t1.5 63.5q0 29 -2.5 51.5t-10.5 40.5q-14 37 -42 54.5t-63 17.5zM190 697q1 -10 6 -21t14 -20.5t22 -15.5t29 -6q18 0 31.5 6t22.5 15.5
t13.5 20.5t4.5 21h71q-2 -20 -9 -42.5t-23.5 -41.5t-43 -32t-67.5 -13t-68.5 13t-44 32t-24 41.5t-7.5 42.5h73z" />
    <glyph glyph-name="Ohungarumlaut" unicode="&#x150;" horiz-adv-x="595" 
d="M297 701q57 0 103 -19.5t78.5 -53.5t49.5 -81.5t17 -102.5v-192q0 -59 -17.5 -107t-50 -81.5t-78 -51.5t-102.5 -18q-62 0 -108.5 21t-77.5 56t-46 82t-15 99v192q0 51 15 97.5t46 82t77.5 56.5t108.5 21zM298 618q-41 0 -71 -15t-50 -39.5t-30 -56.5t-10 -65v-185
q0 -35 10 -67.5t30 -57.5t50 -40.5t71 -15.5q37 0 66.5 14t50 38t31.5 57t11 72v185q0 36 -11 68t-31.5 56t-50 38t-66.5 14zM328 780l148 122l59 -61l-170 -103zM175 780l148 122l59 -61l-170 -103z" />
    <glyph glyph-name="ohungarumlaut" unicode="&#x151;" horiz-adv-x="514" 
d="M263 500q54 0 96 -21.5t68 -61.5q17 -27 25.5 -65.5t8.5 -86.5q0 -64 -7 -107.5t-24 -72.5q-26 -44 -72.5 -67.5t-105.5 -23.5q-54 0 -96 18.5t-68 56.5q-20 31 -28.5 74t-8.5 103q0 42 5.5 77.5t19.5 64.5q25 54 73.5 83t113.5 29zM260 426q-37 0 -65.5 -18.5
t-43.5 -51.5q-11 -23 -14 -50.5t-4 -60.5q0 -33 2.5 -59.5t12.5 -48.5q14 -32 41 -50t64 -18q40 0 71.5 21t45.5 67q5 18 6.5 41.5t1.5 63.5q0 29 -2.5 51.5t-10.5 40.5q-14 37 -42 54.5t-63 17.5zM153 571l72 177l81 -25l-100 -172zM283 571l72 177l81 -25l-100 -172z" />
    <glyph glyph-name="Racute" unicode="&#x154;" horiz-adv-x="598" 
d="M454 0l-133 306h-157v-306h-88v696h284q42 0 79 -14t64 -39t42.5 -60t15.5 -77q0 -72 -41.5 -121.5t-108.5 -69.5l141 -315h-98zM473 506q0 59 -36 86t-93 27h-180v-236h176q57 0 95 31.5t38 91.5zM230 780l148 122l59 -61l-170 -103z" />
    <glyph glyph-name="racute" unicode="&#x155;" horiz-adv-x="365" 
d="M333 401q-29 19 -70 19q-49 0 -81 -30t-32 -90v-300h-82v496h82v-63h4q26 38 58 53t72 15q26 0 48 -5.5t36 -15.5zM150 571l72 177l81 -25l-100 -172z" />
    <glyph glyph-name="Rcommaaccent" unicode="&#x156;" horiz-adv-x="598" 
d="M454 0l-133 306h-157v-306h-88v696h284q42 0 79 -14t64 -39t42.5 -60t15.5 -77q0 -72 -41.5 -121.5t-108.5 -69.5l141 -315h-98zM473 506q0 59 -36 86t-93 27h-180v-236h176q57 0 95 31.5t38 91.5zM299 -237h-51l39 88h-35v111h103v-109z" />
    <glyph glyph-name="rcommaaccent" unicode="&#x157;" horiz-adv-x="365" 
d="M333 401q-29 19 -70 19q-49 0 -81 -30t-32 -90v-300h-82v496h82v-63h4q26 38 58 53t72 15q26 0 48 -5.5t36 -15.5zM111 -257h-51l39 88h-35v111h103v-109z" />
    <glyph glyph-name="Rcaron" unicode="&#x158;" horiz-adv-x="598" 
d="M454 0l-133 306h-157v-306h-88v696h284q42 0 79 -14t64 -39t42.5 -60t15.5 -77q0 -72 -41.5 -121.5t-108.5 -69.5l141 -315h-98zM473 506q0 59 -36 86t-93 27h-180v-236h176q57 0 95 31.5t38 91.5zM419 908l30 -39l-143 -127h-53l-150 129l29 38l144 -87z" />
    <glyph glyph-name="rcaron" unicode="&#x159;" horiz-adv-x="365" 
d="M333 401q-29 19 -70 19q-49 0 -81 -30t-32 -90v-300h-82v496h82v-63h4q26 38 58 53t72 15q26 0 48 -5.5t36 -15.5zM322 743l40 -39l-143 -151h-53l-150 153l39 38l134 -107z" />
    <glyph glyph-name="Sacute" unicode="&#x15a;" horiz-adv-x="544" 
d="M519 198q0 -48 -18.5 -85.5t-51.5 -64t-79 -40.5t-101 -14q-33 0 -68.5 6t-71 18t-68 29.5t-59.5 41.5l56 71q42 -40 97 -61t118 -21q33 0 61.5 7t49 21.5t32.5 37.5t12 55q0 30 -13 49t-35 31.5t-51 20.5t-62 14q-41 8 -81 17.5t-72 29.5t-52 54.5t-20 91.5
q0 48 18.5 84.5t50.5 61.5t73.5 37.5t88.5 12.5q71 0 125 -16t98 -51l-49 -75q-38 26 -81.5 41t-92.5 15q-70 0 -107 -29t-37 -81q0 -27 12.5 -45.5t37.5 -31.5t61.5 -22.5t83.5 -18.5q33 -7 67.5 -17t63 -30.5t46.5 -54.5t18 -89zM210 780l148 122l59 -61l-170 -103z" />
    <glyph glyph-name="sacute" unicode="&#x15b;" horiz-adv-x="457" 
d="M421 147q0 -35 -14.5 -63t-40.5 -48t-61.5 -31t-78.5 -11q-54 0 -108 17t-99 55l50 63q35 -30 73.5 -45.5t87.5 -15.5q45 0 77 19t32 58q0 38 -31.5 51.5t-82.5 18.5q-29 3 -60 8.5t-57 19.5t-42.5 39.5t-16.5 67.5q0 35 14.5 63t39.5 47.5t58 30t69 10.5q57 0 99.5 -14
t77.5 -40l-44 -66q-29 20 -61 32t-72 12q-48 0 -74.5 -20t-26.5 -53q0 -34 34 -47.5t102 -20.5q26 -3 54 -10.5t50.5 -23t37 -41t14.5 -62.5zM193 571l72 177l81 -25l-100 -172z" />
    <glyph glyph-name="Scircumflex" unicode="&#x15c;" horiz-adv-x="544" 
d="M519 198q0 -48 -18.5 -85.5t-51.5 -64t-79 -40.5t-101 -14q-33 0 -68.5 6t-71 18t-68 29.5t-59.5 41.5l56 71q42 -40 97 -61t118 -21q33 0 61.5 7t49 21.5t32.5 37.5t12 55q0 30 -13 49t-35 31.5t-51 20.5t-62 14q-41 8 -81 17.5t-72 29.5t-52 54.5t-20 91.5
q0 48 18.5 84.5t50.5 61.5t73.5 37.5t88.5 12.5q71 0 125 -16t98 -51l-49 -75q-38 26 -81.5 41t-92.5 15q-70 0 -107 -29t-37 -81q0 -27 12.5 -45.5t37.5 -31.5t61.5 -22.5t83.5 -18.5q33 -7 67.5 -17t63 -30.5t46.5 -54.5t18 -89zM270 826l-144 -87l-29 38l150 128h53
l143 -126l-30 -39z" />
    <glyph glyph-name="scircumflex" unicode="&#x15d;" horiz-adv-x="457" 
d="M421 147q0 -35 -14.5 -63t-40.5 -48t-61.5 -31t-78.5 -11q-54 0 -108 17t-99 55l50 63q35 -30 73.5 -45.5t87.5 -15.5q45 0 77 19t32 58q0 38 -31.5 51.5t-82.5 18.5q-29 3 -60 8.5t-57 19.5t-42.5 39.5t-16.5 67.5q0 35 14.5 63t39.5 47.5t58 30t69 10.5q57 0 99.5 -14
t77.5 -40l-44 -66q-29 20 -61 32t-72 12q-48 0 -74.5 -20t-26.5 -53q0 -34 34 -47.5t102 -20.5q26 -3 54 -10.5t50.5 -23t37 -41t14.5 -62.5zM232 659l-134 -107l-39 38l150 153h53l143 -151l-40 -39z" />
    <glyph glyph-name="Scedilla" unicode="&#x15e;" horiz-adv-x="544" 
d="M519 198q0 -47 -17.5 -84t-49 -63t-75.5 -41t-98 -16l-10 -33q29 -2 48 -10.5t30.5 -21t16.5 -26.5t5 -26q0 -13 -5.5 -27.5t-18 -27t-33 -20.5t-51.5 -8q-20 0 -41 3.5t-46 14.5l17 43q21 -9 38.5 -12t31.5 -3q20 0 33.5 10t13.5 26q0 19 -16 29.5t-42 10.5h-14l-20 21
l18 59q-60 5 -122.5 28t-109.5 65l56 71q42 -40 97 -61t118 -21q33 0 61.5 7t49 21.5t32.5 37.5t12 55q0 30 -13 49t-35 31.5t-51 20.5t-62 14q-41 8 -81 17.5t-72 29.5t-52 54.5t-20 91.5q0 48 18.5 84.5t50.5 61.5t73.5 37.5t88.5 12.5q71 0 125 -16t98 -51l-49 -75
q-38 26 -81.5 41t-92.5 15q-70 0 -107 -29t-37 -81q0 -27 12.5 -45.5t37.5 -31.5t61.5 -22.5t83.5 -18.5q33 -7 67.5 -17t63 -30.5t46.5 -54.5t18 -89z" />
    <glyph glyph-name="scedilla" unicode="&#x15f;" horiz-adv-x="457" 
d="M421 147q0 -34 -14 -61.5t-39 -47.5t-59.5 -31.5t-75.5 -12.5l-10 -33q29 -2 48 -10.5t30.5 -21t16.5 -26.5t5 -26q0 -13 -5.5 -27.5t-18 -27t-33 -20.5t-51.5 -8q-20 0 -41 3.5t-46 14.5l17 43q21 -9 38.5 -12t31.5 -3q20 0 33.5 10t13.5 26q0 19 -16 29.5t-42 10.5h-14
l-20 21l18 59q-45 5 -88.5 21.5t-80.5 48.5l50 63q35 -30 73.5 -45.5t87.5 -15.5q45 0 77 19t32 58q0 38 -31.5 51.5t-82.5 18.5q-29 3 -60 8.5t-57 19.5t-42.5 39.5t-16.5 67.5q0 35 14.5 63t39.5 47.5t58 30t69 10.5q57 0 99.5 -14t77.5 -40l-44 -66q-29 20 -61 32t-72 12
q-48 0 -74.5 -20t-26.5 -53q0 -34 34 -47.5t102 -20.5q26 -3 54 -10.5t50.5 -23t37 -41t14.5 -62.5z" />
    <glyph glyph-name="Tcommaaccent" unicode="&#x162;" horiz-adv-x="486" 
d="M287 619v-619h-88v619h-198v77h484v-77h-198zM239 -257h-51l39 88h-35v111h103v-109z" />
    <glyph glyph-name="tcommaaccent" unicode="&#x163;" horiz-adv-x="298" 
d="M209 0q-51 0 -83 29.5t-32 86.5v309h-59v71h59v123h82v-123h76v-71h-76v-289q0 -23 9 -42.5t40 -19.5h43v-74h-59zM151 -257h-51l39 88h-35v111h103v-109z" />
    <glyph glyph-name="Tcaron" unicode="&#x164;" horiz-adv-x="486" 
d="M287 619v-619h-88v619h-198v77h484v-77h-198zM386 908l30 -39l-143 -127h-53l-150 129l29 38l144 -87z" />
    <glyph glyph-name="tcaron" unicode="&#x165;" horiz-adv-x="342" 
d="M288 552h-51l39 88h-35v111h103v-109zM209 0q-51 0 -83 29.5t-32 86.5v309h-59v71h59v123h82v-123h76v-71h-76v-289q0 -23 9 -42.5t40 -19.5h43v-74h-59z" />
    <glyph glyph-name="Tbar" unicode="&#x166;" horiz-adv-x="486" 
d="M287 619v-216h144v-70h-144v-333h-88v333h-146v70h146v216h-198v77h484v-77h-198z" />
    <glyph glyph-name="tbar" unicode="&#x167;" horiz-adv-x="298" 
d="M209 0q-51 0 -83 29.5t-32 86.5v128h-57v67h57v114h-59v71h59v123h82v-123h76v-71h-76v-114h78v-67h-78v-108q0 -23 9 -42.5t40 -19.5h43v-74h-59z" />
    <glyph glyph-name="Utilde" unicode="&#x168;" horiz-adv-x="618" 
d="M557 696v-444q0 -59 -17.5 -107t-50 -81.5t-78 -51.5t-102.5 -18q-62 0 -108.5 21t-77.5 56t-46 82t-15 99v444h87v-437q0 -35 10 -67.5t30 -57.5t50 -40.5t71 -15.5q74 0 116.5 46.5t42.5 134.5v437h88zM238 869q18 0 36.5 -7.5t35.5 -16t33 -16t29 -7.5q15 0 30 10.5
t31 34.5l52 -29q-22 -46 -48.5 -67.5t-58.5 -21.5q-18 0 -35.5 6.5t-34.5 14.5t-32.5 14.5t-30.5 6.5q-17 0 -30.5 -8.5t-32.5 -31.5l-52 29q20 42 49 65.5t59 23.5z" />
    <glyph glyph-name="utilde" unicode="&#x169;" horiz-adv-x="514" 
d="M367 0v56h-3q-25 -32 -61.5 -47t-74.5 -15t-70 9.5t-54.5 30.5t-35 54t-12.5 79v329h82v-298q0 -32 5 -56t18 -39.5t35 -23t56 -7.5q49 0 82 34.5t33 91.5v298h82v-496h-82zM178 699q18 0 36.5 -7.5t35.5 -16t33 -16t29 -7.5q15 0 30 10.5t31 34.5l52 -29
q-22 -46 -48.5 -67.5t-58.5 -21.5q-18 0 -35.5 6.5t-34.5 14.5t-32.5 14.5t-30.5 6.5q-17 0 -30.5 -8.5t-32.5 -31.5l-52 29q20 42 49 65.5t59 23.5z" />
    <glyph glyph-name="Umacron" unicode="&#x16a;" horiz-adv-x="618" 
d="M557 696v-444q0 -59 -17.5 -107t-50 -81.5t-78 -51.5t-102.5 -18q-62 0 -108.5 21t-77.5 56t-46 82t-15 99v444h87v-437q0 -35 10 -67.5t30 -57.5t50 -40.5t71 -15.5q74 0 116.5 46.5t42.5 134.5v437h88zM165 780v75h268v-75h-268z" />
    <glyph glyph-name="umacron" unicode="&#x16b;" horiz-adv-x="514" 
d="M367 0v56h-3q-25 -32 -61.5 -47t-74.5 -15t-70 9.5t-54.5 30.5t-35 54t-12.5 79v329h82v-298q0 -32 5 -56t18 -39.5t35 -23t56 -7.5q49 0 82 34.5t33 91.5v298h82v-496h-82zM127 600v75h268v-75h-268z" />
    <glyph glyph-name="Ubreve" unicode="&#x16c;" horiz-adv-x="618" 
d="M557 696v-444q0 -59 -17.5 -107t-50 -81.5t-78 -51.5t-102.5 -18q-62 0 -108.5 21t-77.5 56t-46 82t-15 99v444h87v-437q0 -35 10 -67.5t30 -57.5t50 -40.5t71 -15.5q74 0 116.5 46.5t42.5 134.5v437h88zM241 847q1 -10 6 -21t14 -20.5t22 -15.5t29 -6q18 0 31.5 6
t22.5 15.5t13.5 20.5t4.5 21h71q-2 -20 -9 -42.5t-23.5 -41.5t-43 -32t-67.5 -13t-68.5 13t-44 32t-24 41.5t-7.5 42.5h73z" />
    <glyph glyph-name="ubreve" unicode="&#x16d;" horiz-adv-x="514" 
d="M367 0v56h-3q-25 -32 -61.5 -47t-74.5 -15t-70 9.5t-54.5 30.5t-35 54t-12.5 79v329h82v-298q0 -32 5 -56t18 -39.5t35 -23t56 -7.5q49 0 82 34.5t33 91.5v298h82v-496h-82zM184 697q1 -10 6 -21t14 -20.5t22 -15.5t29 -6q18 0 31.5 6t22.5 15.5t13.5 20.5t4.5 21h71
q-2 -20 -9 -42.5t-23.5 -41.5t-43 -32t-67.5 -13t-68.5 13t-44 32t-24 41.5t-7.5 42.5h73z" />
    <glyph glyph-name="Uring" unicode="&#x16e;" horiz-adv-x="618" 
d="M557 696v-444q0 -59 -17.5 -107t-50 -81.5t-78 -51.5t-102.5 -18q-62 0 -108.5 21t-77.5 56t-46 82t-15 99v444h87v-437q0 -35 10 -67.5t30 -57.5t50 -40.5t71 -15.5q74 0 116.5 46.5t42.5 134.5v437h88zM313 708q-42 0 -70.5 28.5t-28.5 69.5t28.5 69.5t70.5 28.5
q41 0 69.5 -28.5t28.5 -69.5t-28.5 -69.5t-69.5 -28.5zM313 861q-23 0 -39 -16t-16 -39t16 -39t39 -16t39 16t16 39t-16 39t-39 16z" />
    <glyph glyph-name="uring" unicode="&#x16f;" horiz-adv-x="514" 
d="M367 0v56h-3q-25 -32 -61.5 -47t-74.5 -15t-70 9.5t-54.5 30.5t-35 54t-12.5 79v329h82v-298q0 -32 5 -56t18 -39.5t35 -23t56 -7.5q49 0 82 34.5t33 91.5v298h82v-496h-82zM255 546q-42 0 -70.5 28.5t-28.5 69.5t28.5 69.5t70.5 28.5q41 0 69.5 -28.5t28.5 -69.5
t-28.5 -69.5t-69.5 -28.5zM255 699q-23 0 -39 -16t-16 -39t16 -39t39 -16t39 16t16 39t-16 39t-39 16z" />
    <glyph glyph-name="Uhungarumlaut" unicode="&#x170;" horiz-adv-x="618" 
d="M557 696v-444q0 -59 -17.5 -107t-50 -81.5t-78 -51.5t-102.5 -18q-62 0 -108.5 21t-77.5 56t-46 82t-15 99v444h87v-437q0 -35 10 -67.5t30 -57.5t50 -40.5t71 -15.5q74 0 116.5 46.5t42.5 134.5v437h88zM310 780l148 122l59 -61l-170 -103zM157 780l148 122l59 -61
l-170 -103z" />
    <glyph glyph-name="uhungarumlaut" unicode="&#x171;" horiz-adv-x="514" 
d="M367 0v56h-3q-25 -32 -61.5 -47t-74.5 -15t-70 9.5t-54.5 30.5t-35 54t-12.5 79v329h82v-298q0 -32 5 -56t18 -39.5t35 -23t56 -7.5q49 0 82 34.5t33 91.5v298h82v-496h-82zM153 571l72 177l81 -25l-100 -172zM283 571l72 177l81 -25l-100 -172z" />
    <glyph glyph-name="Uogonek" unicode="&#x172;" horiz-adv-x="618" 
d="M256 -90q0 19 7 39t24 46q-57 3 -99 25t-70 57t-42 80t-14 95v444h87v-437q0 -35 10 -67.5t30 -57.5t50 -40.5t71 -15.5q74 0 116.5 46.5t42.5 134.5v437h88v-444q0 -109 -55.5 -176t-152.5 -79q-14 -22 -21 -38.5t-7 -33.5q0 -21 12.5 -32.5t35.5 -11.5q12 0 26 2.5
t32 10.5l19 -48q-15 -10 -38.5 -17t-48.5 -7q-48 0 -75.5 26t-27.5 62z" />
    <glyph glyph-name="uogonek" unicode="&#x173;" horiz-adv-x="514" 
d="M331 -90q0 20 8 41.5t28 49.5v55h-3q-25 -32 -61.5 -47t-74.5 -15t-70 9.5t-54.5 30.5t-35 54t-12.5 79v329h82v-298q0 -32 5 -56t18 -39.5t35 -23t56 -7.5q49 0 82 34.5t33 91.5v298h82v-496h-23q-30 -43 -30 -75q0 -21 12.5 -32.5t35.5 -11.5q12 0 26 2.5t32 10.5
l19 -48q-15 -10 -38.5 -17t-48.5 -7q-48 0 -75.5 26t-27.5 62z" />
    <glyph glyph-name="Wcircumflex" unicode="&#x174;" horiz-adv-x="823" 
d="M406 531l-45 -172l-97 -359h-77l-175 696h96l78 -341l42 -188l4 -1l46 187l95 343h72l98 -349l48 -182h3q9 42 18 89.5t18 89.5l80 352h96l-176 -696h-76l-94 346l-50 186zM412 826l-144 -87l-29 38l150 128h53l143 -126l-30 -39z" />
    <glyph glyph-name="wcircumflex" unicode="&#x175;" horiz-adv-x="719" 
d="M516 118q8 29 16 60t16 60l72 258h91l-159 -496h-78l-74 239l-43 138l-40 -137l-74 -240h-79l-158 496h90l75 -261l32 -111h4q8 27 16 54.5t16 53.5l82 264h76l80 -261l34 -117h5zM357 659l-134 -107l-39 38l150 153h53l143 -151l-40 -39z" />
    <glyph glyph-name="Ycircumflex" unicode="&#x176;" horiz-adv-x="508" 
d="M295 276v-276h-84v276l-209 420h93l97 -193l62 -133l65 139l94 187h91zM252 826l-144 -87l-29 38l150 128h53l143 -126l-30 -39z" />
    <glyph glyph-name="ycircumflex" unicode="&#x177;" horiz-adv-x="438" 
d="M225 -105q-11 -30 -25 -49t-31 -29t-36 -13.5t-39 -3.5h-42v72h41q20 0 35.5 12t26.5 44l27 82l-182 486h91l79 -225l51 -156h3l51 155l77 226h86zM221 659l-134 -107l-39 38l150 153h53l143 -151l-40 -39z" />
    <glyph glyph-name="Zacute" unicode="&#x179;" horiz-adv-x="505" 
d="M33 0v77l339 542h-326v77h427v-70l-341 -545h341v-81h-440zM192 780l148 122l59 -61l-170 -103z" />
    <glyph glyph-name="zacute" unicode="&#x17a;" horiz-adv-x="434" 
d="M34 0v68l270 356h-255v72h351v-71l-268 -349h268v-76h-366zM193 571l72 177l81 -25l-100 -172z" />
    <glyph glyph-name="Zdotaccent" unicode="&#x17b;" horiz-adv-x="505" 
d="M33 0v77l339 542h-326v77h427v-70l-341 -545h341v-81h-440zM225 767v88h88v-88h-88z" />
    <glyph glyph-name="zdotaccent" unicode="&#x17c;" horiz-adv-x="434" 
d="M34 0v68l270 356h-255v72h351v-71l-268 -349h268v-76h-366zM179 597v88h88v-88h-88z" />
    <glyph glyph-name="AEacute" unicode="&#x1fc;" horiz-adv-x="977" 
d="M491 0v204h-259l-130 -204h-92l444 696h478v-81h-352v-225h300v-77h-300v-232h352v-81h-441zM280 280h211v332zM599 780l148 122l59 -61l-170 -103z" />
    <glyph glyph-name="aeacute" unicode="&#x1fd;" horiz-adv-x="799" 
d="M441 221q0 -26 4 -46.5t14 -39.5q17 -31 46.5 -48t71.5 -17q25 0 57 12t56 34l52 -59q-35 -33 -76.5 -48t-86.5 -15q-24 0 -48 3.5t-47 12.5t-43.5 24t-36.5 38q-24 -38 -71 -58t-112 -20q-85 0 -130.5 41.5t-45.5 105.5q0 29 10 55.5t29.5 46.5t49 32t69.5 12h156v56
q0 41 -27 61t-87 20q-47 0 -74 -11.5t-44 -31.5l-52 55q28 32 72 48.5t95 16.5q26 0 52 -3t49 -10t42.5 -19t33.5 -29q30 33 68 47t76 14q40 0 77 -14.5t65 -42.5t44.5 -68.5t16.5 -91.5v-63h-325zM123 146q0 -35 26.5 -56t81.5 -21q24 0 47 4t41 14.5t29 28t11 45.5v60
h-136q-48 0 -74 -20t-26 -55zM682 288q-2 69 -34.5 103t-83.5 34q-52 0 -86 -35t-37 -102h241zM393 571l72 177l81 -25l-100 -172z" />
    <glyph glyph-name="Oslashacute" unicode="&#x1fe;" horiz-adv-x="595" 
d="M297 701q49 0 89.5 -14.5t72.5 -40.5l36 53l43 -29l-43 -63q24 -32 37 -73.5t13 -89.5v-192q0 -59 -17.5 -107t-50 -81.5t-78 -51.5t-102.5 -18t-101 17.5t-74 47.5l-42 -61l-42 29l50 74q-20 32 -29 70.5t-9 80.5v192q0 51 15 97.5t46 82t77.5 56.5t108.5 21zM457 442
q0 45 -17 84l-266 -390q20 -27 51 -43.5t73 -16.5q37 0 66.5 14t50 38t31.5 57t11 72v185zM298 618q-41 0 -71 -15t-50 -39.5t-30 -56.5t-10 -65v-185q0 -38 10 -69l262 384q-20 21 -48 33.5t-63 12.5zM258 780l148 122l59 -61l-170 -103z" />
    <glyph glyph-name="oslashacute" unicode="&#x1ff;" horiz-adv-x="514" 
d="M263 500q34 0 64 -9t54 -26l42 59l38 -27l-46 -64l12 -16q17 -27 25.5 -65.5t8.5 -86.5q0 -64 -7 -107.5t-24 -72.5q-26 -44 -72.5 -67.5t-105.5 -23.5q-74 0 -123 33l-37 -52l-37 28l40 56q-4 4 -7 10q-20 31 -28.5 74t-8.5 103q0 42 5.5 77.5t19.5 64.5q25 54 73.5 83
t113.5 29zM365 354q-2 2 -2 4l-186 -262q30 -27 76 -27q40 0 71.5 21t45.5 67q5 18 6.5 41.5t1.5 63.5q0 29 -2.5 51.5t-10.5 40.5zM260 426q-37 0 -65.5 -18.5t-43.5 -51.5q-11 -23 -14 -50.5t-4 -60.5q0 -33 2.5 -59.5t12.5 -48.5v-2l187 264q-30 27 -75 27zM213 571
l72 177l81 -25l-100 -172z" />
    <glyph glyph-name="Scaron" unicode="&#x160;" horiz-adv-x="544" 
d="M519 198q0 -48 -18.5 -85.5t-51.5 -64t-79 -40.5t-101 -14q-33 0 -68.5 6t-71 18t-68 29.5t-59.5 41.5l56 71q42 -40 97 -61t118 -21q33 0 61.5 7t49 21.5t32.5 37.5t12 55q0 30 -13 49t-35 31.5t-51 20.5t-62 14q-41 8 -81 17.5t-72 29.5t-52 54.5t-20 91.5
q0 48 18.5 84.5t50.5 61.5t73.5 37.5t88.5 12.5q71 0 125 -16t98 -51l-49 -75q-38 26 -81.5 41t-92.5 15q-70 0 -107 -29t-37 -81q0 -27 12.5 -45.5t37.5 -31.5t61.5 -22.5t83.5 -18.5q33 -7 67.5 -17t63 -30.5t46.5 -54.5t18 -89zM419 908l30 -39l-143 -127h-53l-150 129
l29 38l144 -87z" />
    <glyph glyph-name="Zcaron" unicode="&#x17d;" horiz-adv-x="505" 
d="M33 0v77l339 542h-326v77h427v-70l-341 -545h341v-81h-440zM405 908l30 -39l-143 -127h-53l-150 129l29 38l144 -87z" />
    <glyph glyph-name="scaron" unicode="&#x161;" horiz-adv-x="457" 
d="M421 147q0 -35 -14.5 -63t-40.5 -48t-61.5 -31t-78.5 -11q-54 0 -108 17t-99 55l50 63q35 -30 73.5 -45.5t87.5 -15.5q45 0 77 19t32 58q0 38 -31.5 51.5t-82.5 18.5q-29 3 -60 8.5t-57 19.5t-42.5 39.5t-16.5 67.5q0 35 14.5 63t39.5 47.5t58 30t69 10.5q57 0 99.5 -14
t77.5 -40l-44 -66q-29 20 -61 32t-72 12q-48 0 -74.5 -20t-26.5 -53q0 -34 34 -47.5t102 -20.5q26 -3 54 -10.5t50.5 -23t37 -41t14.5 -62.5zM358 743l40 -39l-143 -151h-53l-150 153l39 38l134 -107z" />
    <glyph glyph-name="zcaron" unicode="&#x17e;" horiz-adv-x="434" 
d="M34 0v68l270 356h-255v72h351v-71l-268 -349h268v-76h-366zM355 743l40 -39l-143 -151h-53l-150 153l39 38l134 -107z" />
    <glyph glyph-name="Kcommaaccent" unicode="&#x136;" horiz-adv-x="618" 
d="M510 0l-212 353l-134 -161v-192h-88v696h89v-377l3 1l128 156l183 220h102l-227 -274l258 -422h-102zM319 -237h-51l39 88h-35v111h103v-109z" />
    <glyph glyph-name="afii10051" unicode="&#x402;" horiz-adv-x="706" 
d="M289 408q32 29 75.5 45t90.5 16q40 0 78 -13t68 -41.5t48 -72.5t18 -107q0 -54 -14 -100.5t-43 -81t-73.5 -54.5t-106.5 -20q-8 0 -16.5 0.5t-17.5 1.5v71h18q81 0 122.5 43.5t41.5 131.5q0 42 -11.5 72t-30.5 49.5t-44 29t-53 9.5q-39 0 -79 -18.5t-73 -52.5v-316h-88
v619h-198v77h549v-77h-263v-211h2z" />
    <glyph glyph-name="afii10053" unicode="&#x404;" horiz-adv-x="543" 
d="M528 142q-26 -70 -85 -109t-144 -39q-62 0 -108.5 21t-77.5 56t-46 82t-15 99v192q0 51 15 97.5t46 82t77.5 56.5t108.5 21q85 0 143 -40t85 -107l-82 -37q-17 45 -54 72t-91 27q-41 0 -71 -15t-50 -39.5t-30 -56.5t-10 -65v-50h240v-77h-240v-54q0 -35 10 -67.5
t30 -57.5t50 -40.5t71 -15.5q54 0 91.5 28.5t54.5 75.5z" />
    <glyph glyph-name="afii10058" unicode="&#x409;" horiz-adv-x="916" 
d="M415 619h-184v-331q0 -83 -15 -137t-42 -88t-63 -51t-78 -25l-23 74q30 11 54.5 22.5t42.5 35t28 64.5t10 110v403h358v-301h181q51 0 91.5 -16t68 -43t42 -61.5t14.5 -70.5q0 -52 -20 -90.5t-52 -63.5t-73.5 -37.5t-84.5 -12.5h-255v619zM808 202q0 22 -8 42.5t-24.5 37
t-41.5 26.5t-58 10h-173v-237h169q59 0 97.5 31.5t38.5 89.5z" />
    <glyph glyph-name="afii10059" unicode="&#x40a;" horiz-adv-x="937" 
d="M436 0v314h-272v-314h-88v696h88v-301h272v301h88v-301h170q51 0 93 -14.5t72 -40t46 -61t16 -77.5q0 -53 -19.5 -91.5t-51.5 -63t-73 -36t-84 -11.5h-257zM829 199q0 22 -8.5 42.5t-26 36.5t-43 26t-58.5 10h-169v-233h169q59 0 97.5 28.5t38.5 89.5z" />
    <glyph glyph-name="afii10060" unicode="&#x40b;" horiz-adv-x="727" 
d="M468 472q40 0 75 -10.5t61 -32.5t41 -55.5t15 -79.5v-294h-87v263q0 61 -27.5 94.5t-95.5 33.5q-79 0 -163 -69v-322h-88v619h-198v77h549v-77h-263v-209h2q39 29 85 45.5t94 16.5z" />
    <glyph glyph-name="afii10145" unicode="&#x40f;" horiz-adv-x="636" 
d="M560 696v-696h-194v-163h-96v163h-194v696h88v-615h308v615h88z" />
    <glyph glyph-name="afii10018" unicode="&#x411;" horiz-adv-x="596" 
d="M76 0v696h421v-81h-333v-220h170q54 0 96 -14.5t71 -40t44.5 -61t15.5 -77.5q0 -53 -19.5 -91.5t-51.5 -63t-73 -36t-84 -11.5h-257zM469 199q0 22 -8 42.5t-24.5 36.5t-42.5 26t-61 10h-169v-233h169q59 0 97.5 28.5t38.5 89.5z" />
    <glyph glyph-name="afii10021" unicode="&#x414;" horiz-adv-x="708" 
d="M74 78q29 19 46 45.5t26 64.5t12 90.5t6 124.5l9 293h445l1 -619h64v-226h-86v149h-490v-149h-87v215zM254 619l-7 -212q-2 -60 -4.5 -110t-8.5 -91t-16 -73t-27 -56h339v542h-276z" />
    <glyph glyph-name="afii10024" unicode="&#x416;" horiz-adv-x="905" 
d="M408 697h89v-305h98q16 0 34.5 3t35.5 13.5t32 30.5t25 55l64 200h87l-63 -203q-14 -51 -40 -85.5t-59 -45.5q44 -14 68 -50t39 -87l67 -223h-95l-61 209q-11 34 -25 55.5t-30.5 33t-35 15.5t-38.5 4h-103v-317h-89v317h-103q-20 0 -38.5 -4t-35 -15.5t-30.5 -33
t-25 -55.5l-61 -209h-95l67 223q15 51 39 87t68 50q-33 11 -59 45.5t-40 85.5l-63 203h87l64 -200q10 -35 25 -55t32 -30.5t35 -13.5t35 -3h98v305z" />
    <glyph glyph-name="afii10025" unicode="&#x417;" horiz-adv-x="554" 
d="M258 -5q-44 0 -83 10t-71 28.5t-56 46t-37 62.5l82 40q9 -23 26 -43t40 -34t49 -22t53 -8q70 0 113.5 34t43.5 94q0 59 -34.5 93.5t-102.5 34.5h-74v78h72q58 0 93.5 30t35.5 79q0 45 -37 71.5t-97 26.5q-54 0 -98 -26t-66 -73l-82 37q27 67 90.5 106.5t154.5 39.5
q58 0 100 -14t70 -38t41.5 -56.5t13.5 -69.5q0 -19 -5.5 -41t-17.5 -42.5t-31 -38t-46 -27.5v-5q34 -12 56 -31.5t34.5 -42.5t17 -46.5t4.5 -43.5q0 -44 -17.5 -82.5t-50 -66.5t-79.5 -44t-105 -16z" />
    <glyph glyph-name="afii10026" unicode="&#x418;" horiz-adv-x="673" 
d="M75 0v696h87v-548l3 -2l359 550h74v-696h-88v523l-3 1l-346 -524h-86z" />
    <glyph glyph-name="afii10029" unicode="&#x41b;" horiz-adv-x="651" 
d="M483 619h-257v-331q0 -83 -15 -137t-42 -88t-63 -51t-78 -25l-23 74q30 11 54.5 23t42.5 35.5t28 64t10 109.5v403h431v-696h-88v619z" />
    <glyph glyph-name="afii10037" unicode="&#x423;" horiz-adv-x="547" 
d="M319 117q-15 -40 -32 -65t-36 -39t-40.5 -19t-45.5 -5h-57v82h39q26 0 44.5 9.5t35.5 44.5l8 23l-208 547h95l89 -252l73 -191h4l68 192l89 253h91z" />
    <glyph glyph-name="afii10040" unicode="&#x426;" horiz-adv-x="660" 
d="M548 0h-472v696h88v-615h308v615h88v-617h74v-228h-86v149z" />
    <glyph glyph-name="afii10041" unicode="&#x427;" horiz-adv-x="610" 
d="M142 696v-198q0 -77 39 -112.5t105 -35.5q31 0 75.5 12.5t84.5 46.5v287h88v-696h-88v325h-2q-45 -29 -89.5 -41t-88.5 -12q-50 0 -89 16t-66 44.5t-41.5 68.5t-14.5 88v207h87z" />
    <glyph glyph-name="afii10042" unicode="&#x428;" horiz-adv-x="900" 
d="M830 696v-696h-760v696h88v-615h247v615h88v-615h249v615h88z" />
    <glyph glyph-name="afii10043" unicode="&#x429;" horiz-adv-x="928" 
d="M816 0h-748v696h88v-615h247v615h88v-615h249v615h88v-617h74v-228h-86v149z" />
    <glyph glyph-name="afii10044" unicode="&#x42a;" horiz-adv-x="720" 
d="M710 202q0 -53 -19.5 -91.5t-51.5 -63t-73 -36t-84 -11.5h-257v615h-219v81h307v-301h170q51 0 93 -14.5t72 -40t46 -61t16 -77.5zM618 199q0 22 -8.5 42.5t-26 36.5t-43 26t-58.5 10h-169v-233h169q59 0 97.5 28.5t38.5 89.5z" />
    <glyph glyph-name="afii10045" unicode="&#x42b;" horiz-adv-x="794" 
d="M84 0v696h88v-301h170q51 0 93 -14.5t72 -40t46 -61t16 -77.5q0 -53 -19.5 -91.5t-51.5 -63t-73 -36t-84 -11.5h-257zM638 0v696h88v-696h-88zM477 199q0 22 -8.5 42.5t-26 36.5t-43 26t-58.5 10h-169v-233h169q59 0 97.5 28.5t38.5 89.5z" />
    <glyph glyph-name="afii10046" unicode="&#x42c;" horiz-adv-x="572" 
d="M76 0v696h88v-301h170q51 0 93 -14.5t72 -40t46 -61t16 -77.5q0 -53 -19.5 -91.5t-51.5 -63t-73 -36t-84 -11.5h-257zM469 199q0 22 -8.5 42.5t-26 36.5t-43 26t-58.5 10h-169v-233h169q59 0 97.5 28.5t38.5 89.5z" />
    <glyph glyph-name="afii10047" unicode="&#x42d;" horiz-adv-x="555" 
d="M167 400h241v40q0 33 -7.5 65t-25.5 56.5t-47 39.5t-72 15q-54 0 -94 -27t-57 -72l-82 37q27 67 88.5 107t146.5 40q67 0 112.5 -21t73 -56.5t39.5 -82t12 -97.5v-192q0 -52 -15.5 -99t-46 -82t-77 -56t-108.5 -21q-85 0 -144 39t-85 109l82 40q17 -47 54.5 -75.5
t91.5 -28.5q46 0 76.5 15.5t49.5 40.5t27 57.5t8 67.5v64h-241v77z" />
    <glyph glyph-name="afii10048" unicode="&#x42e;" horiz-adv-x="774" 
d="M491 701q61 0 105 -19t72.5 -53t42 -81t13.5 -102v-197q0 -58 -16 -105t-46 -80.5t-73 -51.5t-98 -18q-64 0 -108.5 21.5t-72 57t-39.5 82t-12 97.5v61h-96v-313h-88v696h88v-306h96v53q0 51 14 97.5t42.5 82.5t72 57t103.5 21zM492 618q-43 0 -71.5 -17t-45 -43
t-23 -57.5t-6.5 -61.5v-182q0 -35 7 -67.5t24 -57.5t45 -40.5t70 -15.5q39 0 66.5 14t45 38t25 57t7.5 72v182q0 33 -7.5 65t-24 57.5t-44.5 41t-68 15.5z" />
    <glyph glyph-name="afii10049" unicode="&#x42f;" horiz-adv-x="608" 
d="M148 493q0 -30 11 -50.5t30.5 -34t45.5 -19.5t56 -6h154v236h-163q-62 0 -98 -33.5t-36 -92.5zM445 308h-124q-20 0 -41 -5.5t-40 -18.5t-35.5 -36t-26.5 -57l-55 -191h-95l57 201q15 51 35.5 82t59.5 45q-36 9 -59 27.5t-36.5 41.5t-19 48t-5.5 47q0 42 14 79.5t41 65
t66 43.5t89 16h263v-696h-88v308z" />
    <glyph glyph-name="afii10066" unicode="&#x431;" horiz-adv-x="514" 
d="M260 410q-35 0 -60 -15t-39 -39t-20 -56.5t-6 -60.5q0 -33 3 -57.5t13 -46.5q15 -32 39.5 -49t67.5 -17q42 0 71.5 21t43.5 67q5 18 6 36.5t1 46.5q0 35 -4 60.5t-9 37.5q-14 33 -37 52.5t-70 19.5zM273 484q48 0 87 -17.5t65 -57.5q21 -32 29.5 -73.5t8.5 -97.5
q0 -50 -8 -86t-25 -65q-28 -48 -74 -70.5t-100 -22.5t-95.5 18.5t-67.5 56.5q-10 15 -18 34.5t-13.5 47t-8 65t-2.5 90.5q2 66 5.5 100.5t6.5 49.5q16 81 59.5 135t125.5 86q29 11 69.5 26t95.5 35l26 -62q-52 -23 -81.5 -34t-45.5 -17q-45 -17 -76.5 -35t-52.5 -41
t-32 -53.5t-15 -71.5q1 0 2 -1q26 30 62.5 45.5t72.5 15.5z" />
    <glyph glyph-name="afii10068" unicode="&#x433;" horiz-adv-x="421" 
d="M141 424v-424h-83v496h359v-72h-276z" />
    <glyph glyph-name="afii10069" unicode="&#x434;" horiz-adv-x="561" 
d="M213 424l-6 -136q-4 -78 -10.5 -129.5t-28.5 -85.5h238v351h-193zM65 74q20 13 32 29.5t18.5 41t9.5 58.5t6 82l10 211h349v-423h51v-208h-81v135h-364v-135h-81v200z" />
    <glyph glyph-name="afii10072" unicode="&#x436;" horiz-adv-x="715" 
d="M316 -1v215h-77q-34 0 -57 -14.5t-39 -62.5l-39 -137h-84l49 161q11 37 27 63.5t51 34.5q-28 8 -45 32.5t-28 60.5l-45 144h82l44 -143q7 -24 17.5 -38.5t23 -22t26.5 -9.5t28 -2h66v214h83v-214h66q14 0 28 2t26.5 9.5t23 22t17.5 38.5l44 143h82l-45 -144
q-11 -36 -28 -60.5t-45 -32.5q35 -8 51 -34.5t27 -63.5l49 -161h-84l-39 137q-16 48 -39 62.5t-57 14.5h-77v-215h-83z" />
    <glyph glyph-name="afii10073" unicode="&#x437;" horiz-adv-x="453" 
d="M317 359q0 31 -25.5 47.5t-67.5 16.5q-39 0 -75.5 -9t-59.5 -32l-51 58q32 31 80 46t99 15q50 0 84.5 -11t56 -29.5t31 -42.5t9.5 -51q0 -13 -4 -28t-12.5 -29.5t-22 -27.5t-32.5 -21q49 -20 65.5 -51.5t16.5 -59.5q0 -30 -12 -58.5t-36.5 -50t-61.5 -34.5t-88 -13
q-60 0 -109.5 14t-81.5 46l54 59q18 -20 55.5 -31t79.5 -11q54 0 85.5 22.5t31.5 59.5q0 18 -8.5 32t-22 23t-31 13.5t-36.5 4.5h-76v67h76q45 0 67 18t22 48z" />
    <glyph glyph-name="afii10074" unicode="&#x438;" horiz-adv-x="529" 
d="M147 135l69 101l184 260h69v-496h-84v352l-4 -1l-66 -95l-177 -256h-79v496h83v-361h5z" />
    <glyph glyph-name="afii10077" unicode="&#x43b;" horiz-adv-x="526" 
d="M192 424v-159q0 -77 -11.5 -127.5t-32.5 -81.5t-51.5 -46.5t-69.5 -22.5l-22 69q27 10 47.5 20t33.5 31.5t19.5 59.5t6.5 103v226h344v-496h-84v424h-180z" />
    <glyph glyph-name="afii10078" unicode="&#x43c;" horiz-adv-x="609" 
d="M467 0v319q-8 -17 -16 -32.5t-16 -31.5l-96 -184h-68l-99 189l-30 60v-320h-83v496h80l117 -235q14 -27 25.5 -53t25.5 -53q13 25 24.5 53t24.5 53l116 235h78v-496h-83z" />
    <glyph glyph-name="afii10079" unicode="&#x43d;" horiz-adv-x="510" 
d="M370 0v217h-229v-217h-83v496h83v-213h229v213h82v-496h-82z" />
    <glyph glyph-name="afii10086" unicode="&#x444;" horiz-adv-x="599" 
d="M340 504q53 0 101.5 -23t74.5 -63q21 -32 29 -75t8 -99q0 -50 -8 -89t-25 -68q-28 -48 -77 -73t-103 -25v-188h-83v188q-54 0 -101.5 21t-73.5 59q-22 32 -31 76.5t-9 100.5q0 42 5 77.5t19 64.5q24 54 77 85t114 31v223h83v-223zM340 66q40 0 74.5 22.5t48.5 68.5
q5 18 6 39.5t1 49.5q0 35 -3 61.5t-11 46.5q-15 37 -48 54t-68 17v-359zM257 425q-37 0 -70 -18t-48 -51q-10 -23 -12.5 -50.5t-2.5 -60.5t3 -59.5t13 -48.5q15 -32 47.5 -51.5t69.5 -19.5v359z" />
    <glyph glyph-name="afii10088" unicode="&#x446;" horiz-adv-x="548" 
d="M454 75h74v-210h-81v135h-387v496h84v-421h228v421h82v-421z" />
    <glyph glyph-name="afii10089" unicode="&#x447;" horiz-adv-x="483" 
d="M117 497v-148q0 -56 25.5 -76.5t70.5 -20.5q10 0 26.5 2t34.5 7t37 12.5t34 18.5v205h82v-497h-82v215h-3q-32 -21 -70.5 -31.5t-70.5 -10.5q-37 0 -67.5 9.5t-52.5 30t-34 53t-12 78.5v153h82z" />
    <glyph glyph-name="afii10090" unicode="&#x448;" horiz-adv-x="772" 
d="M712 496v-496h-652v496h83v-420h201v420h82v-420h203v420h83z" />
    <glyph glyph-name="afii10091" unicode="&#x449;" horiz-adv-x="806" 
d="M705 0h-645v496h84v-420h200v420h83v-420h202v420h83v-421h74v-210h-81v135z" />
    <glyph glyph-name="afii10092" unicode="&#x44a;" horiz-adv-x="584" 
d="M488 153q0 28 -21 51t-69 23l-137 1v-152h137q43 0 66.5 19.5t23.5 57.5zM262 303h139q42 0 74.5 -11.5t54 -31.5t32.5 -47.5t11 -59.5q0 -69 -44.5 -111t-128.5 -42h-222v424h-171v72h255v-193z" />
    <glyph glyph-name="afii10093" unicode="&#x44b;" horiz-adv-x="651" 
d="M508 0v495h83v-495h-83zM365 153q0 28 -21 51t-69 23l-137 1v-152h137q43 0 66.5 19.5t23.5 57.5zM139 303h139q42 0 74.5 -11.5t54 -31.5t32.5 -47.5t11 -59.5q0 -69 -44.5 -111t-128.5 -42h-221v496h83v-193z" />
    <glyph glyph-name="afii10094" unicode="&#x44c;" horiz-adv-x="459" 
d="M370 153q0 28 -21 51t-69 23l-137 1v-152h137q43 0 66.5 19.5t23.5 57.5zM144 303h139q42 0 74.5 -11.5t54 -31.5t32.5 -47.5t11 -59.5q0 -69 -44.5 -111t-128.5 -42h-222l1 496h83v-193z" />
    <glyph glyph-name="afii10095" unicode="&#x44d;" horiz-adv-x="446" 
d="M137 286h185q-2 64 -34 100t-95 36q-29 0 -62.5 -13.5t-53.5 -36.5l-53 60q32 31 77.5 50t95.5 19q42 0 79.5 -13t66.5 -41.5t46 -73.5t17 -110q0 -73 -19 -124t-50.5 -83.5t-72.5 -47t-85 -14.5q-51 0 -92.5 19t-73.5 51l54 59q18 -20 45.5 -35.5t59.5 -15.5
q138 0 150 148h-185v66z" />
    <glyph glyph-name="afii10096" unicode="&#x44e;" horiz-adv-x="650" 
d="M60 495h82v-212h69q3 61 22 105q23 54 67.5 83t104.5 29q51 0 92.5 -18.5t65.5 -58.5q20 -32 27.5 -77.5t7.5 -101.5q0 -50 -6.5 -90t-23.5 -69q-26 -48 -70.5 -69.5t-94.5 -21.5q-51 0 -91 19t-64 56q-15 23 -25 62.5t-12 85.5h-69v-217h-82v495zM405 426
q-35 0 -59.5 -18.5t-38.5 -51.5q-6 -14 -10.5 -46t-4.5 -65t4 -62.5t11 -45.5q14 -32 38.5 -50t59.5 -18q37 0 64.5 20t39.5 66q5 18 6 40.5t1 50.5q0 35 -2.5 63t-10.5 48q-14 37 -39.5 53t-58.5 16z" />
    <glyph glyph-name="afii10097" unicode="&#x44f;" horiz-adv-x="492" 
d="M46 342q0 32 11 60t31 48.5t48.5 32.5t63.5 12h236v-495h-82v205h-108q-16 -1 -32 -5t-30.5 -13t-25.5 -24t-16 -39l-27 -124h-86l32 134q7 30 22.5 53.5t53.5 36.5q-51 11 -71 45t-20 73zM128 344q0 -38 28 -55.5t70 -17.5h128v152h-141q-16 0 -31.5 -5t-27.5 -15
t-19 -25t-7 -34z" />
    <glyph glyph-name="afii10099" unicode="&#x452;" horiz-adv-x="549" 
d="M158 433q29 37 65 50t78 13q88 0 140.5 -60.5t52.5 -192.5q0 -50 -12.5 -95.5t-38.5 -80t-67 -55t-99 -20.5q-10 0 -15.5 0.5t-16.5 2.5v73q8 -2 16.5 -2h16.5q35 0 60 14t41.5 37.5t24 55t7.5 67.5q0 38 -7 71t-23.5 57.5t-43.5 38.5t-66 14q-18 0 -38.5 -8t-38 -25.5
t-28.5 -45t-11 -66.5v-276h-81v572h-61v66h61v88h81v-88h228v-66h-228v-139h3z" />
    <glyph glyph-name="afii10101" unicode="&#x454;" horiz-adv-x="431" 
d="M416 64q-32 -32 -72 -51t-91 -19q-42 0 -82.5 13.5t-72 43t-51 76.5t-19.5 113q0 70 19 120t50.5 81t72 45.5t83.5 14.5q50 0 90 -19t72 -50l-53 -60q-20 23 -48 36.5t-57 13.5q-63 0 -100 -34.5t-45 -104.5h187v-66h-188q7 -73 44.5 -109t101.5 -36q32 0 59.5 15.5
t45.5 35.5l54 -59v0z" />
    <glyph glyph-name="afii10106" unicode="&#x459;" horiz-adv-x="734" 
d="M411 303h139q42 0 74.5 -11.5t54 -31.5t32.5 -47.5t11 -59.5q0 -69 -44.5 -111t-128.5 -42h-222v424h-123v-159q0 -77 -11.5 -127t-33 -80.5t-52 -46t-68.5 -24.5l-22 69q27 10 47.5 21.5t33.5 34t19.5 60t6.5 98.5v226h287v-193zM637 153q0 28 -21 51.5t-69 23.5h-137
v-152h137q43 0 66.5 19.5t23.5 57.5z" />
    <glyph glyph-name="afii10107" unicode="&#x45a;" horiz-adv-x="752" 
d="M654 153q0 28 -21 51t-69 23l-137 1v-152h137q43 0 66.5 19.5t23.5 57.5zM428 496v-193h139q42 0 74.5 -11.5t54 -31.5t32.5 -47.5t11 -59.5q0 -69 -44.5 -111t-128.5 -42h-222v230h-200v-230h-83v496h83v-192h200v192h84z" />
    <glyph glyph-name="afii10108" unicode="&#x45b;" horiz-adv-x="521" 
d="M13 639h61v87h82v-87h216v-67h-216v-144h3q26 32 63.5 49.5t77.5 17.5q36 0 66.5 -10.5t53 -32t35 -54t12.5 -75.5v-323h-82v291q0 57 -23.5 90t-85.5 33q-25 0 -46.5 -8.5t-38 -24.5t-26 -39t-9.5 -51v-291h-82v572h-61v67z" />
    <glyph glyph-name="afii10193" unicode="&#x45f;" horiz-adv-x="510" 
d="M452 495v-495h-152v-141h-92v141h-150v495h83v-419h229v419h82z" />
    <glyph glyph-name="afii10050" unicode="&#x490;" horiz-adv-x="524" 
d="M516 615h-352v-615h-88v696h357v111h82z" />
    <glyph glyph-name="afii10098" unicode="&#x491;" horiz-adv-x="421" 
d="M417 424h-276v-424h-83v496h282v99h77v-171z" />
    <glyph glyph-name="afii10023" unicode="&#x401;" horiz-adv-x="543" 
d="M76 0v696h440v-81h-352v-225h300v-77h-300v-232h352v-81h-440zM344 770v88h88v-88h-88zM164 770v88h88v-88h-88z" />
    <glyph glyph-name="afii10054" unicode="&#x405;" horiz-adv-x="544" 
d="M519 198q0 -48 -18.5 -85.5t-51.5 -64t-79 -40.5t-101 -14q-33 0 -68.5 6t-71 18t-68 29.5t-59.5 41.5l56 71q42 -40 97 -61t118 -21q33 0 61.5 7t49 21.5t32.5 37.5t12 55q0 30 -13 49t-35 31.5t-51 20.5t-62 14q-41 8 -81 17.5t-72 29.5t-52 54.5t-20 91.5
q0 48 18.5 84.5t50.5 61.5t73.5 37.5t88.5 12.5q71 0 125 -16t98 -51l-49 -75q-38 26 -81.5 41t-92.5 15q-70 0 -107 -29t-37 -81q0 -27 12.5 -45.5t37.5 -31.5t61.5 -22.5t83.5 -18.5q33 -7 67.5 -17t63 -30.5t46.5 -54.5t18 -89z" />
    <glyph glyph-name="afii10055" unicode="&#x406;" horiz-adv-x="241" 
d="M76 0v696h88v-696h-88z" />
    <glyph glyph-name="afii10056" unicode="&#x407;" horiz-adv-x="241" 
d="M76 0v696h88v-696h-88zM166 776v88h88v-88h-88zM-14 776v88h88v-88h-88z" />
    <glyph glyph-name="afii10057" unicode="&#x408;" horiz-adv-x="467" 
d="M399 222q0 -64 -16.5 -107.5t-45.5 -70.5t-68 -38.5t-83 -11.5q-53 0 -98 20t-74 52l58 65q9 -9 22 -18.5t28 -17.5t31 -13t30 -5q25 0 48 6t41 22t28.5 44.5t10.5 73.5v473h88v-474z" />
    <glyph glyph-name="afii10017" unicode="&#x410;" horiz-adv-x="598" 
d="M499 0l-56 160h-289l-56 -160h-92l255 696h76l255 -696h-93zM351 431l-51 148h-3l-49 -144l-69 -199h239z" />
    <glyph glyph-name="afii10019" unicode="&#x412;" horiz-adv-x="598" 
d="M560 193q0 -44 -15.5 -80t-42 -61t-61 -38.5t-73.5 -13.5h-292v696h263q51 0 89 -13.5t64 -37.5t39 -57.5t13 -73.5q0 -21 -5.5 -43.5t-18.5 -43t-33 -38t-48 -27.5v-3q30 -7 53 -24t38 -40t22.5 -49.5t7.5 -52.5zM164 619v-225h164q64 0 96 32.5t32 80.5q0 47 -32 79.5
t-96 32.5h-164zM164 318v-237h179q33 0 57.5 10t40 26.5t23.5 38t8 44.5t-8 44.5t-23.5 38t-40 26t-57.5 9.5h-179z" />
    <glyph glyph-name="afii10020" unicode="&#x413;" horiz-adv-x="524" 
d="M164 615v-615h-88v696h440v-81h-352z" />
    <glyph glyph-name="afii10022" unicode="&#x415;" horiz-adv-x="543" 
d="M76 0v696h440v-81h-352v-225h300v-77h-300v-232h352v-81h-440z" />
    <glyph glyph-name="afii10028" unicode="&#x41a;" horiz-adv-x="578" 
d="M71 0v694h88v-302h113q16 0 34 3t35 13.5t32 31t26 54.5l64 200h87l-63 -203q-16 -51 -41 -85.5t-58 -45.5q44 -14 68 -50t39 -87l67 -223h-95l-61 209q-10 35 -24 56t-30.5 32.5t-35.5 15.5t-39 4h-118v-317h-88z" />
    <glyph glyph-name="afii10030" unicode="&#x41c;" horiz-adv-x="748" 
d="M595 0v496l-3 -2l-54 -131l-120 -260h-77l-122 268l-52 125l-3 -2v-494h-88v696h88l147 -325l69 -162h3l69 161l145 326h86v-696h-88z" />
    <glyph glyph-name="afii10031" unicode="&#x41d;" horiz-adv-x="636" 
d="M472 0v313h-308v-313h-88v696h88v-306h308v306h88v-696h-88z" />
    <glyph glyph-name="afii10032" unicode="&#x41e;" horiz-adv-x="595" 
d="M297 701q57 0 103 -19.5t78.5 -53.5t49.5 -81.5t17 -102.5v-192q0 -59 -17.5 -107t-50 -81.5t-78 -51.5t-102.5 -18q-62 0 -108.5 21t-77.5 56t-46 82t-15 99v192q0 51 15 97.5t46 82t77.5 56.5t108.5 21zM298 618q-41 0 -71 -15t-50 -39.5t-30 -56.5t-10 -65v-185
q0 -35 10 -67.5t30 -57.5t50 -40.5t71 -15.5q37 0 66.5 14t50 38t31.5 57t11 72v185q0 36 -11 68t-31.5 56t-50 38t-66.5 14z" />
    <glyph glyph-name="afii10033" unicode="&#x41f;" horiz-adv-x="636" 
d="M472 0v619h-308v-619h-88v696h484v-696h-88z" />
    <glyph glyph-name="afii10034" unicode="&#x420;" horiz-adv-x="572" 
d="M561 485q0 -36 -14.5 -73t-42 -66t-68 -47.5t-91.5 -18.5h-181v-280h-88v696h255q43 0 84.5 -12t73.5 -37.5t52 -65.5t20 -96zM469 488q0 64 -38.5 95.5t-97.5 31.5h-169v-254h173q33 0 58 11.5t41.5 29.5t24.5 40.5t8 45.5z" />
    <glyph glyph-name="afii10035" unicode="&#x421;" horiz-adv-x="543" 
d="M528 142q-26 -70 -85 -109t-144 -39q-62 0 -108.5 21t-77.5 56t-46 82t-15 99v192q0 51 15 97.5t46 82t77.5 56.5t108.5 21q85 0 143 -40t85 -107l-82 -37q-17 45 -54 72t-91 27q-41 0 -71 -15t-50 -39.5t-30 -56.5t-10 -65v-181q0 -35 10 -67.5t30 -57.5t50 -40.5
t71 -15.5q54 0 91.5 28.5t54.5 75.5z" />
    <glyph glyph-name="afii10036" unicode="&#x422;" horiz-adv-x="486" 
d="M287 619v-619h-88v619h-198v77h484v-77h-198z" />
    <glyph glyph-name="afii10038" unicode="&#x424;" horiz-adv-x="732" 
d="M692 355q0 -63 -18 -116.5t-54 -93t-89 -63.5t-123 -27v-55h-87v55q-67 4 -119.5 27t-89 62t-55.5 92.5t-19 118.5q0 63 18 117.5t54 95t89 65.5t122 30v33h87v-33q76 -4 130 -28.5t88 -65t50 -95.5t16 -119zM408 129q49 1 86 19t62 48.5t37.5 71.5t12.5 87
q0 49 -11.5 91.5t-36 74t-62 50t-88.5 20.5v-462zM321 592q-52 -3 -89.5 -24t-61.5 -54t-35 -74.5t-11 -84.5q0 -48 13.5 -88t39 -69t62 -47t82.5 -22v463z" />
    <glyph glyph-name="afii10039" unicode="&#x425;" horiz-adv-x="523" 
d="M426 0l-165 289l-164 -289h-98l214 357l-200 339h98l150 -271l151 271h98l-200 -339l214 -357h-98z" />
    <glyph glyph-name="afii10065" unicode="&#x430;" horiz-adv-x="482" 
d="M232 501q40 0 76.5 -7.5t64 -25.5t43.5 -49t16 -78v-341h-83v43l-1 1q-14 -22 -50 -36t-87 -14q-85 0 -130.5 41.5t-45.5 105.5q0 29 10 55.5t29.5 46.5t49 32t69.5 12h156v56q0 41 -27 61t-87 20q-47 0 -74 -11.5t-44 -31.5l-52 55q28 32 72 48.5t95 16.5zM113 146
q0 -35 26.5 -56t81.5 -21q24 0 47 4t41 14.5t29 28t11 45.5v58h-136q-48 0 -74 -19t-26 -54z" />
    <glyph glyph-name="afii10067" unicode="&#x432;" horiz-adv-x="480" 
d="M452 146q0 -32 -12.5 -58.5t-34 -46t-50.5 -30.5t-61 -11h-236v496h214q42 0 73.5 -10.5t52.5 -29t31.5 -43.5t10.5 -54t-15.5 -57t-53.5 -45q44 -14 62.5 -45t18.5 -66zM141 221v-145h134q48 0 71.5 21t23.5 50t-23.5 51.5t-71.5 22.5h-134zM141 424v-138h122
q52 0 73 20.5t21 49.5t-23 48.5t-71 19.5h-122z" />
    <glyph glyph-name="afii10070" unicode="&#x435;" horiz-adv-x="481" 
d="M125 220v-8q0 -29 8 -55t24 -45.5t40 -30.5t56 -11q24 0 55.5 12t56.5 35l53 -59q-35 -34 -79 -49t-90 -15q-38 0 -75.5 10.5t-67.5 38.5t-48.5 77t-18.5 126q0 73 19 122.5t49 79t67 42t72 12.5q41 0 77 -14.5t63 -42.5t42.5 -68.5t15.5 -92.5v-64h-319zM242 424
q-51 0 -82 -35t-35 -100h233q-3 67 -34 101t-82 34z" />
    <glyph glyph-name="afii10076" unicode="&#x43a;" horiz-adv-x="469" 
d="M50 0v496h83v-215h86q14 0 28 2t26.5 9.5t23 22t17.5 38.5l44 143h82l-45 -144q-11 -36 -28 -60.5t-45 -32.5q35 -8 51 -34.5t27 -63.5l49 -161h-84l-39 137q-16 48 -39 62.5t-57 14.5h-97v-214h-83z" />
    <glyph glyph-name="afii10080" unicode="&#x43e;" horiz-adv-x="514" 
d="M263 500q54 0 96 -21.5t68 -61.5q17 -27 25.5 -65.5t8.5 -86.5q0 -64 -7 -107.5t-24 -72.5q-26 -44 -72.5 -67.5t-105.5 -23.5q-54 0 -96 18.5t-68 56.5q-20 31 -28.5 74t-8.5 103q0 42 5.5 77.5t19.5 64.5q25 54 73.5 83t113.5 29zM260 426q-37 0 -65.5 -18.5
t-43.5 -51.5q-11 -23 -14 -50.5t-4 -60.5q0 -33 2.5 -59.5t12.5 -48.5q14 -32 41 -50t64 -18q40 0 71.5 21t45.5 67q5 18 6.5 41.5t1.5 63.5q0 29 -2.5 51.5t-10.5 40.5q-14 37 -42 54.5t-63 17.5z" />
    <glyph glyph-name="afii10083" unicode="&#x441;" horiz-adv-x="431" 
d="M416 64q-32 -32 -72 -51t-91 -19q-43 0 -83.5 14t-72 44.5t-50.5 78.5t-19 116q0 69 19 117t50.5 78.5t72 44.5t83.5 14q50 0 90 -19t72 -50l-53 -60q-20 23 -48 36.5t-57 13.5q-70 0 -108.5 -43t-38.5 -132q0 -88 38.5 -131.5t108.5 -43.5q32 0 59.5 15.5t45.5 35.5
l54 -59v0z" />
    <glyph glyph-name="afii10084" unicode="&#x442;" horiz-adv-x="396" 
d="M239 424v-424h-83v424h-155v71h394v-71h-156z" />
    <glyph glyph-name="afii10085" unicode="&#x443;" horiz-adv-x="438" 
d="M225 -105q-11 -30 -25 -49t-31 -29t-36 -13.5t-39 -3.5h-42v72h41q20 0 35.5 12t26.5 44l27 82l-182 486h91l79 -225l51 -156h3l51 155l77 226h86z" />
    <glyph glyph-name="afii10087" unicode="&#x445;" horiz-adv-x="463" 
d="M349 0l-117 193l-117 -193h-99l169 254l-161 242h98l110 -186l110 186h99l-162 -243l169 -253h-99z" />
    <glyph glyph-name="afii10071" unicode="&#x451;" horiz-adv-x="481" 
d="M125 220v-8q0 -29 8 -55t24 -45.5t40 -30.5t56 -11q24 0 55.5 12t56.5 35l53 -59q-35 -34 -79 -49t-90 -15q-38 0 -75.5 10.5t-67.5 38.5t-48.5 77t-18.5 126q0 73 19 122.5t49 79t67 42t72 12.5q41 0 77 -14.5t63 -42.5t42.5 -68.5t15.5 -92.5v-64h-319zM242 424
q-51 0 -82 -35t-35 -100h233q-3 67 -34 101t-82 34zM291 604v88h88v-88h-88zM111 604v88h88v-88h-88z" />
    <glyph glyph-name="afii10102" unicode="&#x455;" horiz-adv-x="457" 
d="M421 147q0 -35 -14.5 -63t-40.5 -48t-61.5 -31t-78.5 -11q-54 0 -108 17t-99 55l50 63q35 -30 73.5 -45.5t87.5 -15.5q45 0 77 19t32 58q0 38 -31.5 51.5t-82.5 18.5q-29 3 -60 8.5t-57 19.5t-42.5 39.5t-16.5 67.5q0 35 14.5 63t39.5 47.5t58 30t69 10.5q57 0 99.5 -14
t77.5 -40l-44 -66q-29 20 -61 32t-72 12q-48 0 -74.5 -20t-26.5 -53q0 -34 34 -47.5t102 -20.5q26 -3 54 -10.5t50.5 -23t37 -41t14.5 -62.5z" />
    <glyph glyph-name="afii10103" unicode="&#x456;" horiz-adv-x="224" 
d="M71 614v82h82v-82h-82zM71 0v496h82v-496h-82z" />
    <glyph glyph-name="afii10104" unicode="&#x457;" horiz-adv-x="200" 
d="M138 597v88h88v-88h-88zM-42 597v88h88v-88h-88zM56 0v495h88v-495h-88z" />
    <glyph glyph-name="afii10105" unicode="&#x458;" horiz-adv-x="243" 
d="M81 614v82h83v-82h-83zM164 -67q0 -60 -32 -97.5t-95 -37.5h-44v75h30q27 1 42.5 18t15.5 48v557h83v-563z" />
    <glyph glyph-name="afii10110" unicode="&#x45e;" horiz-adv-x="438" 
d="M225 -105q-11 -30 -25 -49t-31 -29t-36 -13.5t-39 -3.5h-42v72h41q20 0 35.5 12t26.5 44l27 82l-182 486h91l79 -225l51 -156h3l51 155l77 226h86zM150 697q1 -10 6 -21t14 -20.5t22 -15.5t29 -6q18 0 31.5 6t22.5 15.5t13.5 20.5t4.5 21h71q-2 -20 -9 -42.5t-23.5 -41.5
t-43 -32t-67.5 -13t-68.5 13t-44 32t-24 41.5t-7.5 42.5h73z" />
    <glyph glyph-name="uniF6D9" unicode="&#xf6d9;" horiz-adv-x="822" 
d="M768 0q-54 0 -88 25.5t-34 89.5v381h82v-374q0 -47 51 -47h14v-75h-25z" />
    <glyph glyph-name="uniF6DA" unicode="&#xf6da;" horiz-adv-x="516" 
d="M106 763l99 17l86 -210l-46 -16z" />
    <glyph glyph-name="uniF6DB" unicode="&#xf6db;" horiz-adv-x="516" 
d="M278 554l-46 16l90 210l95 -17z" />
    <glyph glyph-name="uniF6DC" unicode="&#xf6dc;" horiz-adv-x="518" 
d="M195 716q18 0 36.5 -7.5t35.5 -16t33 -16t29 -7.5q15 0 30 10.5t31 34.5l52 -29q-22 -46 -48.5 -67.5t-58.5 -21.5q-18 0 -36 7t-35.5 15.5t-34 15.5t-31.5 7q-17 0 -30.5 -8.5t-32.5 -31.5l-48 26q20 42 49 65.5t59 23.5z" />
    <glyph glyph-name="uni1FBD" unicode="&#x1fbd;" horiz-adv-x="505" 
d="M231 570q12 17 19 36t7 34q0 19 -12.5 35t-51.5 23l29 81q53 -10 84.5 -35.5t31.5 -70.5q0 -22 -14.5 -56t-49.5 -66z" />
    <glyph glyph-name="uni1FBE" unicode="&#x1fbe;" horiz-adv-x="505" 
d="M303 -57v-94q0 -44 48 -44h17v-70h-28q-51 0 -82.5 24t-31.5 84v100h77z" />
    <glyph glyph-name="uni1FC1" unicode="&#x1fc1;" horiz-adv-x="529" 
d="M295 589v89h87v-89h-87zM130 589v89h87v-89h-87zM189 838q18 0 36.5 -7.5t35.5 -16t33 -16t29 -7.5q15 0 30 10.5t31 34.5l52 -29q-22 -46 -48.5 -67.5t-58.5 -21.5q-18 0 -36 7t-35.5 15.5t-34 15.5t-31.5 7q-17 0 -30.5 -8.5t-32.5 -31.5l-48 26q20 42 49 65.5t59 23.5
z" />
    <glyph glyph-name="uni1FCD" unicode="&#x1fcd;" horiz-adv-x="505" 
d="M121 571q12 17 19 36t7 34q0 19 -12.5 35t-51.5 23l29 81q53 -10 84.5 -35.5t31.5 -70.5q0 -22 -14.5 -56t-49.5 -66zM236 763l99 17l86 -210l-46 -16z" />
    <glyph glyph-name="uni1FCE" unicode="&#x1fce;" horiz-adv-x="505" 
d="M115 569q12 17 19 36t7 34q0 19 -12.5 35t-51.5 23l29 81q53 -10 84.5 -35.5t31.5 -70.5q0 -22 -14.5 -56t-49.5 -66zM288 554l-46 16l90 210l95 -17z" />
    <glyph glyph-name="uni1FCF" unicode="&#x1fcf;" horiz-adv-x="505" 
d="M234 545q15 16 23.5 32.5t8.5 29.5q0 14 -12.5 24.5t-47.5 15.5l28 65q49 -7 77.5 -26t28.5 -51q0 -17 -13 -45t-52 -60zM209 845q18 0 36.5 -7.5t35.5 -16t33 -16t29 -7.5q15 0 30 10.5t31 34.5l52 -29q-22 -46 -48.5 -67.5t-58.5 -21.5q-18 0 -36 7t-35.5 15.5
t-34 15.5t-31.5 7q-17 0 -30.5 -8.5t-32.5 -31.5l-48 26q20 42 49 65.5t59 23.5z" />
    <glyph glyph-name="uni1FDD" unicode="&#x1fdd;" horiz-adv-x="505" 
d="M156 551q-35 32 -49.5 66t-14.5 56q0 45 31.5 70.5t84.5 35.5l29 -81q-39 -7 -51.5 -23t-12.5 -35q0 -15 7 -34t19 -36zM243 763l99 17l86 -210l-46 -16z" />
    <glyph glyph-name="uni1FDE" unicode="&#x1fde;" horiz-adv-x="505" 
d="M161 550q-35 32 -49.5 66t-14.5 56q0 45 31.5 70.5t84.5 35.5l29 -81q-39 -7 -51.5 -23t-12.5 -35q0 -15 7 -34t19 -36zM288 554l-46 16l90 210l95 -17z" />
    <glyph glyph-name="uni1FDF" unicode="&#x1fdf;" horiz-adv-x="505" 
d="M259 532q-39 32 -51.5 60t-12.5 45q0 32 28 51t77 26l28 -65q-35 -5 -47 -15.5t-12 -24.5q0 -13 8 -29.5t23 -32.5zM205 849q18 0 36.5 -7.5t35.5 -16t33 -16t29 -7.5q15 0 30 10.5t31 34.5l52 -29q-22 -46 -48.5 -67.5t-58.5 -21.5q-18 0 -36 7t-35.5 15.5t-34 15.5
t-31.5 7q-17 0 -30.5 -8.5t-32.5 -31.5l-48 26q20 42 49 65.5t59 23.5z" />
    <glyph glyph-name="uni1FED" unicode="&#x1fed;" horiz-adv-x="529" 
d="M90 589v89h87v-89h-87zM355 589v89h87v-89h-87zM151 763l99 17l86 -210l-46 -16z" />
    <glyph glyph-name="uni1FEE" unicode="&#x1fee;" horiz-adv-x="529" 
d="M355 589v89h87v-89h-87zM90 589v89h87v-89h-87zM248 554l-46 16l90 210l95 -17z" />
    <glyph glyph-name="uni1FFE" unicode="&#x1ffe;" horiz-adv-x="505" 
d="M258 551q-35 32 -49.5 66t-14.5 56q0 45 31.5 70.5t84.5 35.5l29 -81q-39 -7 -51.5 -23t-12.5 -35q0 -15 7 -34t19 -36z" />
    <glyph glyph-name="uni1F00" unicode="&#x1f00;" horiz-adv-x="505" 
d="M48 244q0 50 8.5 96t30 81.5t57.5 57t92 21.5q36 0 68.5 -13t55.5 -47l2 1v54h82v-495h-82v55l-2 1q-32 -35 -65.5 -48.5t-69.5 -13.5q-53 0 -87 20.5t-54 55t-28 79.5t-8 95zM133 247q0 -30 3.5 -60.5t15.5 -55t35 -40t61 -15.5q37 0 59.5 17t34.5 43t16 55.5t4 55.5
q0 27 -3.5 57.5t-15.5 56t-34.5 42.5t-60.5 17q-39 0 -62 -16t-34.5 -41.5t-15 -56t-3.5 -59.5zM231 570q12 17 19 36t7 34q0 19 -12.5 35t-51.5 23l29 81q53 -10 84.5 -35.5t31.5 -70.5q0 -22 -14.5 -56t-49.5 -66z" />
    <glyph glyph-name="uni1F01" unicode="&#x1f01;" horiz-adv-x="505" 
d="M48 244q0 50 8.5 96t30 81.5t57.5 57t92 21.5q36 0 68.5 -13t55.5 -47l2 1v54h82v-495h-82v55l-2 1q-32 -35 -65.5 -48.5t-69.5 -13.5q-53 0 -87 20.5t-54 55t-28 79.5t-8 95zM133 247q0 -30 3.5 -60.5t15.5 -55t35 -40t61 -15.5q37 0 59.5 17t34.5 43t16 55.5t4 55.5
q0 27 -3.5 57.5t-15.5 56t-34.5 42.5t-60.5 17q-39 0 -62 -16t-34.5 -41.5t-15 -56t-3.5 -59.5zM265 551q-35 32 -49.5 66t-14.5 56q0 45 31.5 70.5t84.5 35.5l29 -81q-39 -7 -51.5 -23t-12.5 -35q0 -15 7 -34t19 -36z" />
    <glyph glyph-name="uni1F02" unicode="&#x1f02;" horiz-adv-x="505" 
d="M48 244q0 50 8.5 96t30 81.5t57.5 57t92 21.5q36 0 68.5 -13t55.5 -47l2 1v54h82v-495h-82v55l-2 1q-32 -35 -65.5 -48.5t-69.5 -13.5q-53 0 -87 20.5t-54 55t-28 79.5t-8 95zM133 247q0 -30 3.5 -60.5t15.5 -55t35 -40t61 -15.5q37 0 59.5 17t34.5 43t16 55.5t4 55.5
q0 27 -3.5 57.5t-15.5 56t-34.5 42.5t-60.5 17q-39 0 -62 -16t-34.5 -41.5t-15 -56t-3.5 -59.5zM121 571q12 17 19 36t7 34q0 19 -12.5 35t-51.5 23l29 81q53 -10 84.5 -35.5t31.5 -70.5q0 -22 -14.5 -56t-49.5 -66zM236 763l99 17l86 -210l-46 -16z" />
    <glyph glyph-name="uni1F03" unicode="&#x1f03;" horiz-adv-x="505" 
d="M48 244q0 50 8.5 96t30 81.5t57.5 57t92 21.5q36 0 68.5 -13t55.5 -47l2 1v54h82v-495h-82v55l-2 1q-32 -35 -65.5 -48.5t-69.5 -13.5q-53 0 -87 20.5t-54 55t-28 79.5t-8 95zM133 247q0 -30 3.5 -60.5t15.5 -55t35 -40t61 -15.5q37 0 59.5 17t34.5 43t16 55.5t4 55.5
q0 27 -3.5 57.5t-15.5 56t-34.5 42.5t-60.5 17q-39 0 -62 -16t-34.5 -41.5t-15 -56t-3.5 -59.5zM156 551q-35 32 -49.5 66t-14.5 56q0 45 31.5 70.5t84.5 35.5l29 -81q-39 -7 -51.5 -23t-12.5 -35q0 -15 7 -34t19 -36zM243 763l99 17l86 -210l-46 -16z" />
    <glyph glyph-name="uni1F04" unicode="&#x1f04;" horiz-adv-x="505" 
d="M48 244q0 50 8.5 96t30 81.5t57.5 57t92 21.5q36 0 68.5 -13t55.5 -47l2 1v54h82v-495h-82v55l-2 1q-32 -35 -65.5 -48.5t-69.5 -13.5q-53 0 -87 20.5t-54 55t-28 79.5t-8 95zM133 247q0 -30 3.5 -60.5t15.5 -55t35 -40t61 -15.5q37 0 59.5 17t34.5 43t16 55.5t4 55.5
q0 27 -3.5 57.5t-15.5 56t-34.5 42.5t-60.5 17q-39 0 -62 -16t-34.5 -41.5t-15 -56t-3.5 -59.5zM115 569q12 17 19 36t7 34q0 19 -12.5 35t-51.5 23l29 81q53 -10 84.5 -35.5t31.5 -70.5q0 -22 -14.5 -56t-49.5 -66zM288 554l-46 16l90 210l95 -17z" />
    <glyph glyph-name="uni1F05" unicode="&#x1f05;" horiz-adv-x="505" 
d="M48 244q0 50 8.5 96t30 81.5t57.5 57t92 21.5q36 0 68.5 -13t55.5 -47l2 1v54h82v-495h-82v55l-2 1q-32 -35 -65.5 -48.5t-69.5 -13.5q-53 0 -87 20.5t-54 55t-28 79.5t-8 95zM133 247q0 -30 3.5 -60.5t15.5 -55t35 -40t61 -15.5q37 0 59.5 17t34.5 43t16 55.5t4 55.5
q0 27 -3.5 57.5t-15.5 56t-34.5 42.5t-60.5 17q-39 0 -62 -16t-34.5 -41.5t-15 -56t-3.5 -59.5zM161 550q-35 32 -49.5 66t-14.5 56q0 45 31.5 70.5t84.5 35.5l29 -81q-39 -7 -51.5 -23t-12.5 -35q0 -15 7 -34t19 -36zM288 554l-46 16l90 210l95 -17z" />
    <glyph glyph-name="uni1F06" unicode="&#x1f06;" horiz-adv-x="505" 
d="M48 244q0 50 8.5 96t30 81.5t57.5 57t92 21.5q36 0 68.5 -13t55.5 -47l2 1v54h82v-495h-82v55l-2 1q-32 -35 -65.5 -48.5t-69.5 -13.5q-53 0 -87 20.5t-54 55t-28 79.5t-8 95zM133 247q0 -30 3.5 -60.5t15.5 -55t35 -40t61 -15.5q37 0 59.5 17t34.5 43t16 55.5t4 55.5
q0 27 -3.5 57.5t-15.5 56t-34.5 42.5t-60.5 17q-39 0 -62 -16t-34.5 -41.5t-15 -56t-3.5 -59.5zM222 545q15 16 23.5 32.5t8.5 29.5q0 14 -12.5 24.5t-47.5 15.5l28 65q49 -7 77.5 -26t28.5 -51q0 -17 -13 -45t-52 -60zM197 845q18 0 36.5 -7.5t35.5 -16t33 -16t29 -7.5
q15 0 30 10.5t31 34.5l52 -29q-22 -46 -48.5 -67.5t-58.5 -21.5q-18 0 -36 7t-35.5 15.5t-34 15.5t-31.5 7q-17 0 -30.5 -8.5t-32.5 -31.5l-48 26q20 42 49 65.5t59 23.5z" />
    <glyph glyph-name="uni1F07" unicode="&#x1f07;" horiz-adv-x="505" 
d="M48 244q0 50 8.5 96t30 81.5t57.5 57t92 21.5q36 0 68.5 -13t55.5 -47l2 1v54h82v-495h-82v55l-2 1q-32 -35 -65.5 -48.5t-69.5 -13.5q-53 0 -87 20.5t-54 55t-28 79.5t-8 95zM133 247q0 -30 3.5 -60.5t15.5 -55t35 -40t61 -15.5q37 0 59.5 17t34.5 43t16 55.5t4 55.5
q0 27 -3.5 57.5t-15.5 56t-34.5 42.5t-60.5 17q-39 0 -62 -16t-34.5 -41.5t-15 -56t-3.5 -59.5zM259 532q-39 32 -51.5 60t-12.5 45q0 32 28 51t77 26l28 -65q-35 -5 -47 -15.5t-12 -24.5q0 -13 8 -29.5t23 -32.5zM205 849q18 0 36.5 -7.5t35.5 -16t33 -16t29 -7.5
q15 0 30 10.5t31 34.5l52 -29q-22 -46 -48.5 -67.5t-58.5 -21.5q-18 0 -36 7t-35.5 15.5t-34 15.5t-31.5 7q-17 0 -30.5 -8.5t-32.5 -31.5l-48 26q20 42 49 65.5t59 23.5z" />
    <glyph glyph-name="uni1F08" unicode="&#x1f08;" horiz-adv-x="598" 
d="M499 0l-56 160h-289l-56 -160h-92l255 696h76l255 -696h-93zM351 431l-51 148h-3l-49 -144l-69 -199h239zM17 514q12 17 19 36t7 34q0 19 -12.5 35t-51.5 23l29 81q53 -10 84.5 -35.5t31.5 -70.5q0 -22 -14.5 -56t-49.5 -66z" />
    <glyph glyph-name="uni1F09" unicode="&#x1f09;" horiz-adv-x="598" 
d="M499 0l-56 160h-289l-56 -160h-92l255 696h76l255 -696h-93zM351 431l-51 148h-3l-49 -144l-69 -199h239zM40 496q-35 32 -49.5 66t-14.5 56q0 45 31.5 70.5t84.5 35.5l29 -81q-39 -7 -51.5 -23t-12.5 -35q0 -15 7 -34t19 -36z" />
    <glyph glyph-name="uni1F0A" unicode="&#x1f0a;" horiz-adv-x="598" 
d="M499 0l-56 160h-289l-56 -160h-92l255 696h76l255 -696h-93zM351 431l-51 148h-3l-49 -144l-69 -199h239zM-164 515q12 17 19 36t7 34q0 19 -12.5 35t-51.5 23l29 81q53 -10 84.5 -35.5t31.5 -70.5q0 -22 -14.5 -56t-49.5 -66zM-49 707l99 17l86 -210l-46 -16z" />
    <glyph glyph-name="uni1F0B" unicode="&#x1f0b;" horiz-adv-x="598" 
d="M499 0l-56 160h-289l-56 -160h-92l255 696h76l255 -696h-93zM351 431l-51 148h-3l-49 -144l-69 -199h239zM-128 496q-35 32 -49.5 66t-14.5 56q0 45 31.5 70.5t84.5 35.5l29 -81q-39 -7 -51.5 -23t-12.5 -35q0 -15 7 -34t19 -36zM-41 708l99 17l86 -210l-46 -16z" />
    <glyph glyph-name="uni1F0C" unicode="&#x1f0c;" horiz-adv-x="598" 
d="M499 0l-56 160h-289l-56 -160h-92l255 696h76l255 -696h-93zM351 431l-51 148h-3l-49 -144l-69 -199h239zM-170 512q12 17 19 36t7 34q0 19 -12.5 35t-51.5 23l29 81q53 -10 84.5 -35.5t31.5 -70.5q0 -22 -14.5 -56t-49.5 -66zM3 497l-46 16l90 210l95 -17z" />
    <glyph glyph-name="uni1F0D" unicode="&#x1f0d;" horiz-adv-x="598" 
d="M499 0l-56 160h-289l-56 -160h-92l255 696h76l255 -696h-93zM351 431l-51 148h-3l-49 -144l-69 -199h239zM-123 495q-35 32 -49.5 66t-14.5 56q0 45 31.5 70.5t84.5 35.5l29 -81q-39 -7 -51.5 -23t-12.5 -35q0 -15 7 -34t19 -36zM4 499l-46 16l90 210l95 -17z" />
    <glyph glyph-name="uni1F0E" unicode="&#x1f0e;" horiz-adv-x="598" 
d="M499 0l-56 160h-289l-56 -160h-92l255 696h76l255 -696h-93zM351 431l-51 148h-3l-49 -144l-69 -199h239zM-48 435q15 16 23.5 32.5t8.5 29.5q0 14 -12.5 24.5t-47.5 15.5l28 65q49 -7 77.5 -26t28.5 -51q0 -17 -13 -45t-52 -60zM-73 735q18 0 36.5 -7.5t35.5 -16t33 -16
t29 -7.5q15 0 30 10.5t31 34.5l52 -29q-22 -46 -48.5 -67.5t-58.5 -21.5q-18 0 -36 7t-35.5 15.5t-34 15.5t-31.5 7q-17 0 -30.5 -8.5t-32.5 -31.5l-48 26q20 42 49 65.5t59 23.5z" />
    <glyph glyph-name="uni1F0F" unicode="&#x1f0f;" horiz-adv-x="598" 
d="M499 0l-56 160h-289l-56 -160h-92l255 696h76l255 -696h-93zM351 431l-51 148h-3l-49 -144l-69 -199h239zM-11 423q-39 32 -51.5 60t-12.5 45q0 32 28 51t77 26l28 -65q-35 -5 -47 -15.5t-12 -24.5q0 -13 8 -29.5t23 -32.5zM-65 740q18 0 36.5 -7.5t35.5 -16t33 -16
t29 -7.5q15 0 30 10.5t31 34.5l52 -29q-22 -46 -48.5 -67.5t-58.5 -21.5q-18 0 -36 7t-35.5 15.5t-34 15.5t-31.5 7q-17 0 -30.5 -8.5t-32.5 -31.5l-48 26q20 42 49 65.5t59 23.5z" />
    <glyph glyph-name="uni1F10" unicode="&#x1f10;" horiz-adv-x="440" 
d="M127 261q-38 14 -54 40t-16 58q0 27 11 53t33.5 45.5t56.5 31.5t79 12q51 0 96.5 -16t77.5 -47l-51 -62q-19 20 -53 32t-66 12q-50 0 -76 -20t-26 -47q0 -23 18 -40t61 -17h84v-73h-81q-42 0 -66.5 -21.5t-24.5 -53.5t30.5 -53.5t84.5 -21.5q16 0 33.5 3.5t35 10.5
t32.5 16t25 20l52 -59q-34 -32 -84 -50t-101 -18q-86 0 -137.5 38.5t-51.5 107.5q0 12 3.5 28.5t12.5 33t24 31.5t38 24v2zM221 570q12 17 19 36t7 34q0 19 -12.5 35t-51.5 23l29 81q53 -10 84.5 -35.5t31.5 -70.5q0 -22 -14.5 -56t-49.5 -66z" />
    <glyph glyph-name="uni1F11" unicode="&#x1f11;" horiz-adv-x="440" 
d="M127 261q-38 14 -54 40t-16 58q0 27 11 53t33.5 45.5t56.5 31.5t79 12q51 0 96.5 -16t77.5 -47l-51 -62q-19 20 -53 32t-66 12q-50 0 -76 -20t-26 -47q0 -23 18 -40t61 -17h84v-73h-81q-42 0 -66.5 -21.5t-24.5 -53.5t30.5 -53.5t84.5 -21.5q16 0 33.5 3.5t35 10.5
t32.5 16t25 20l52 -59q-34 -32 -84 -50t-101 -18q-86 0 -137.5 38.5t-51.5 107.5q0 12 3.5 28.5t12.5 33t24 31.5t38 24v2zM241 551q-35 32 -49.5 66t-14.5 56q0 45 31.5 70.5t84.5 35.5l29 -81q-39 -7 -51.5 -23t-12.5 -35q0 -15 7 -34t19 -36z" />
    <glyph glyph-name="uni1F12" unicode="&#x1f12;" horiz-adv-x="440" 
d="M127 261q-38 14 -54 40t-16 58q0 27 11 53t33.5 45.5t56.5 31.5t79 12q51 0 96.5 -16t77.5 -47l-51 -62q-19 20 -53 32t-66 12q-50 0 -76 -20t-26 -47q0 -23 18 -40t61 -17h84v-73h-81q-42 0 -66.5 -21.5t-24.5 -53.5t30.5 -53.5t84.5 -21.5q16 0 33.5 3.5t35 10.5
t32.5 16t25 20l52 -59q-34 -32 -84 -50t-101 -18q-86 0 -137.5 38.5t-51.5 107.5q0 12 3.5 28.5t12.5 33t24 31.5t38 24v2zM87 571q12 17 19 36t7 34q0 19 -12.5 35t-51.5 23l29 81q53 -10 84.5 -35.5t31.5 -70.5q0 -22 -14.5 -56t-49.5 -66zM202 763l99 17l86 -210l-46 -16
z" />
    <glyph glyph-name="uni1F13" unicode="&#x1f13;" horiz-adv-x="440" 
d="M127 261q-38 14 -54 40t-16 58q0 27 11 53t33.5 45.5t56.5 31.5t79 12q51 0 96.5 -16t77.5 -47l-51 -62q-19 20 -53 32t-66 12q-50 0 -76 -20t-26 -47q0 -23 18 -40t61 -17h84v-73h-81q-42 0 -66.5 -21.5t-24.5 -53.5t30.5 -53.5t84.5 -21.5q16 0 33.5 3.5t35 10.5
t32.5 16t25 20l52 -59q-34 -32 -84 -50t-101 -18q-86 0 -137.5 38.5t-51.5 107.5q0 12 3.5 28.5t12.5 33t24 31.5t38 24v2zM121 551q-35 32 -49.5 66t-14.5 56q0 45 31.5 70.5t84.5 35.5l29 -81q-39 -7 -51.5 -23t-12.5 -35q0 -15 7 -34t19 -36zM208 763l99 17l86 -210
l-46 -16z" />
    <glyph glyph-name="uni1F14" unicode="&#x1f14;" horiz-adv-x="440" 
d="M127 261q-38 14 -54 40t-16 58q0 27 11 53t33.5 45.5t56.5 31.5t79 12q51 0 96.5 -16t77.5 -47l-51 -62q-19 20 -53 32t-66 12q-50 0 -76 -20t-26 -47q0 -23 18 -40t61 -17h84v-73h-81q-42 0 -66.5 -21.5t-24.5 -53.5t30.5 -53.5t84.5 -21.5q16 0 33.5 3.5t35 10.5
t32.5 16t25 20l52 -59q-34 -32 -84 -50t-101 -18q-86 0 -137.5 38.5t-51.5 107.5q0 12 3.5 28.5t12.5 33t24 31.5t38 24v2zM133 569q12 17 19 36t7 34q0 19 -12.5 35t-51.5 23l29 81q53 -10 84.5 -35.5t31.5 -70.5q0 -22 -14.5 -56t-49.5 -66zM306 554l-46 16l90 210l95 -17
z" />
    <glyph glyph-name="uni1F15" unicode="&#x1f15;" horiz-adv-x="440" 
d="M127 261q-38 14 -54 40t-16 58q0 27 11 53t33.5 45.5t56.5 31.5t79 12q51 0 96.5 -16t77.5 -47l-51 -62q-19 20 -53 32t-66 12q-50 0 -76 -20t-26 -47q0 -23 18 -40t61 -17h84v-73h-81q-42 0 -66.5 -21.5t-24.5 -53.5t30.5 -53.5t84.5 -21.5q16 0 33.5 3.5t35 10.5
t32.5 16t25 20l52 -59q-34 -32 -84 -50t-101 -18q-86 0 -137.5 38.5t-51.5 107.5q0 12 3.5 28.5t12.5 33t24 31.5t38 24v2zM181 550q-35 32 -49.5 66t-14.5 56q0 45 31.5 70.5t84.5 35.5l29 -81q-39 -7 -51.5 -23t-12.5 -35q0 -15 7 -34t19 -36zM308 554l-46 16l90 210
l95 -17z" />
    <glyph glyph-name="uni1F18" unicode="&#x1f18;" horiz-adv-x="543" 
d="M76 0v696h440v-81h-352v-225h300v-77h-300v-232h352v-81h-440zM-103 520q12 17 19 36t7 34q0 19 -12.5 35t-51.5 23l29 81q53 -10 84.5 -35.5t31.5 -70.5q0 -22 -14.5 -56t-49.5 -66z" />
    <glyph glyph-name="uni1F19" unicode="&#x1f19;" horiz-adv-x="543" 
d="M76 0v696h440v-81h-352v-225h300v-77h-300v-232h352v-81h-440zM-80 501q-35 32 -49.5 66t-14.5 56q0 45 31.5 70.5t84.5 35.5l29 -81q-39 -7 -51.5 -23t-12.5 -35q0 -15 7 -34t19 -36z" />
    <glyph glyph-name="uni1F1A" unicode="&#x1f1a;" horiz-adv-x="543" 
d="M76 0v696h440v-81h-352v-225h300v-77h-300v-232h352v-81h-440zM-273 521q12 17 19 36t7 34q0 19 -12.5 35t-51.5 23l29 81q53 -10 84.5 -35.5t31.5 -70.5q0 -22 -14.5 -56t-49.5 -66zM-158 713l99 17l86 -210l-46 -16z" />
    <glyph glyph-name="uni1F1B" unicode="&#x1f1b;" horiz-adv-x="543" 
d="M76 0v696h440v-81h-352v-225h300v-77h-300v-232h352v-81h-440zM-251 501q-35 32 -49.5 66t-14.5 56q0 45 31.5 70.5t84.5 35.5l29 -81q-39 -7 -51.5 -23t-12.5 -35q0 -15 7 -34t19 -36zM-164 713l99 17l86 -210l-46 -16z" />
    <glyph glyph-name="uni1F1C" unicode="&#x1f1c;" horiz-adv-x="543" 
d="M76 0v696h440v-81h-352v-225h300v-77h-300v-232h352v-81h-440zM-288 519q12 17 19 36t7 34q0 19 -12.5 35t-51.5 23l29 81q53 -10 84.5 -35.5t31.5 -70.5q0 -22 -14.5 -56t-49.5 -66zM-115 504l-46 16l90 210l95 -17z" />
    <glyph glyph-name="uni1F1D" unicode="&#x1f1d;" horiz-adv-x="543" 
d="M76 0v696h440v-81h-352v-225h300v-77h-300v-232h352v-81h-440zM-243 500q-35 32 -49.5 66t-14.5 56q0 45 31.5 70.5t84.5 35.5l29 -81q-39 -7 -51.5 -23t-12.5 -35q0 -15 7 -34t19 -36zM-116 504l-46 16l90 210l95 -17z" />
    <glyph glyph-name="uni1F20" unicode="&#x1f20;" horiz-adv-x="524" 
d="M376 0v297q0 57 -24 90t-89 33q-50 0 -83 -33t-33 -90v-297h-82v497h82v-63h3q26 32 62 49.5t76 17.5q36 0 67 -10.5t54 -32t36 -54t13 -75.5v-329h-82zM219 570q12 17 19 36t7 34q0 19 -12.5 35t-51.5 23l29 81q53 -10 84.5 -35.5t31.5 -70.5q0 -22 -14.5 -56t-49.5 -66
z" />
    <glyph glyph-name="uni1F21" unicode="&#x1f21;" horiz-adv-x="524" 
d="M376 0v297q0 57 -24 90t-89 33q-50 0 -83 -33t-33 -90v-297h-82v497h82v-63h3q26 32 62 49.5t76 17.5q36 0 67 -10.5t54 -32t36 -54t13 -75.5v-329h-82zM246 551q-35 32 -49.5 66t-14.5 56q0 45 31.5 70.5t84.5 35.5l29 -81q-39 -7 -51.5 -23t-12.5 -35q0 -15 7 -34
t19 -36z" />
    <glyph glyph-name="uni1F22" unicode="&#x1f22;" horiz-adv-x="524" 
d="M376 0v297q0 57 -24 90t-89 33q-50 0 -83 -33t-33 -90v-297h-82v497h82v-63h3q26 32 62 49.5t76 17.5q36 0 67 -10.5t54 -32t36 -54t13 -75.5v-329h-82zM110 571q12 17 19 36t7 34q0 19 -12.5 35t-51.5 23l29 81q53 -10 84.5 -35.5t31.5 -70.5q0 -22 -14.5 -56t-49.5 -66
zM225 763l99 17l86 -210l-46 -16z" />
    <glyph glyph-name="uni1F23" unicode="&#x1f23;" horiz-adv-x="524" 
d="M376 0v297q0 57 -24 90t-89 33q-50 0 -83 -33t-33 -90v-297h-82v497h82v-63h3q26 32 62 49.5t76 17.5q36 0 67 -10.5t54 -32t36 -54t13 -75.5v-329h-82zM149 551q-35 32 -49.5 66t-14.5 56q0 45 31.5 70.5t84.5 35.5l29 -81q-39 -7 -51.5 -23t-12.5 -35q0 -15 7 -34
t19 -36zM236 763l99 17l86 -210l-46 -16z" />
    <glyph glyph-name="uni1F24" unicode="&#x1f24;" horiz-adv-x="524" 
d="M376 0v297q0 57 -24 90t-89 33q-50 0 -83 -33t-33 -90v-297h-82v497h82v-63h3q26 32 62 49.5t76 17.5q36 0 67 -10.5t54 -32t36 -54t13 -75.5v-329h-82zM128 569q12 17 19 36t7 34q0 19 -12.5 35t-51.5 23l29 81q53 -10 84.5 -35.5t31.5 -70.5q0 -22 -14.5 -56t-49.5 -66
zM301 554l-46 16l90 210l95 -17z" />
    <glyph glyph-name="uni1F25" unicode="&#x1f25;" horiz-adv-x="524" 
d="M376 0v297q0 57 -24 90t-89 33q-50 0 -83 -33t-33 -90v-297h-82v497h82v-63h3q26 32 62 49.5t76 17.5q36 0 67 -10.5t54 -32t36 -54t13 -75.5v-329h-82zM174 550q-35 32 -49.5 66t-14.5 56q0 45 31.5 70.5t84.5 35.5l29 -81q-39 -7 -51.5 -23t-12.5 -35q0 -15 7 -34
t19 -36zM301 554l-46 16l90 210l95 -17z" />
    <glyph glyph-name="uni1F26" unicode="&#x1f26;" horiz-adv-x="524" 
d="M376 0v297q0 57 -24 90t-89 33q-50 0 -83 -33t-33 -90v-297h-82v497h82v-63h3q26 32 62 49.5t76 17.5q36 0 67 -10.5t54 -32t36 -54t13 -75.5v-329h-82zM200 545q15 16 23.5 32.5t8.5 29.5q0 14 -12.5 24.5t-47.5 15.5l28 65q49 -7 77.5 -26t28.5 -51q0 -17 -13 -45
t-52 -60zM175 845q18 0 36.5 -7.5t35.5 -16t33 -16t29 -7.5q15 0 30 10.5t31 34.5l52 -29q-22 -46 -48.5 -67.5t-58.5 -21.5q-18 0 -36 7t-35.5 15.5t-34 15.5t-31.5 7q-17 0 -30.5 -8.5t-32.5 -31.5l-48 26q20 42 49 65.5t59 23.5z" />
    <glyph glyph-name="uni1F27" unicode="&#x1f27;" horiz-adv-x="524" 
d="M376 0v297q0 57 -24 90t-89 33q-50 0 -83 -33t-33 -90v-297h-82v497h82v-63h3q26 32 62 49.5t76 17.5q36 0 67 -10.5t54 -32t36 -54t13 -75.5v-329h-82zM235 531q-39 32 -51.5 60t-12.5 45q0 32 28 51t77 26l28 -65q-35 -5 -47 -15.5t-12 -24.5q0 -13 8 -29.5t23 -32.5z
M181 848q18 0 36.5 -7.5t35.5 -16t33 -16t29 -7.5q15 0 30 10.5t31 34.5l52 -29q-22 -46 -48.5 -67.5t-58.5 -21.5q-18 0 -36 7t-35.5 15.5t-34 15.5t-31.5 7q-17 0 -30.5 -8.5t-32.5 -31.5l-48 26q20 42 49 65.5t59 23.5z" />
    <glyph glyph-name="uni1F28" unicode="&#x1f28;" horiz-adv-x="636" 
d="M472 0v313h-308v-313h-88v696h88v-306h308v306h88v-696h-88zM-99 520q12 17 19 36t7 34q0 19 -12.5 35t-51.5 23l29 81q53 -10 84.5 -35.5t31.5 -70.5q0 -22 -14.5 -56t-49.5 -66z" />
    <glyph glyph-name="uni1F29" unicode="&#x1f29;" horiz-adv-x="636" 
d="M472 0v313h-308v-313h-88v696h88v-306h308v306h88v-696h-88zM-76 501q-35 32 -49.5 66t-14.5 56q0 45 31.5 70.5t84.5 35.5l29 -81q-39 -7 -51.5 -23t-12.5 -35q0 -15 7 -34t19 -36z" />
    <glyph glyph-name="uni1F2A" unicode="&#x1f2a;" horiz-adv-x="636" 
d="M472 0v313h-308v-313h-88v696h88v-306h308v306h88v-696h-88zM-296 521q12 17 19 36t7 34q0 19 -12.5 35t-51.5 23l29 81q53 -10 84.5 -35.5t31.5 -70.5q0 -22 -14.5 -56t-49.5 -66zM-181 713l99 17l86 -210l-46 -16z" />
    <glyph glyph-name="uni1F2B" unicode="&#x1f2b;" horiz-adv-x="636" 
d="M472 0v313h-308v-313h-88v696h88v-306h308v306h88v-696h-88zM-268 501q-35 32 -49.5 66t-14.5 56q0 45 31.5 70.5t84.5 35.5l29 -81q-39 -7 -51.5 -23t-12.5 -35q0 -15 7 -34t19 -36zM-181 713l99 17l86 -210l-46 -16z" />
    <glyph glyph-name="uni1F2C" unicode="&#x1f2c;" horiz-adv-x="636" 
d="M472 0v313h-308v-313h-88v696h88v-306h308v306h88v-696h-88zM-306 519q12 17 19 36t7 34q0 19 -12.5 35t-51.5 23l29 81q53 -10 84.5 -35.5t31.5 -70.5q0 -22 -14.5 -56t-49.5 -66zM-133 504l-46 16l90 210l95 -17z" />
    <glyph glyph-name="uni1F2D" unicode="&#x1f2d;" horiz-adv-x="636" 
d="M472 0v313h-308v-313h-88v696h88v-306h308v306h88v-696h-88zM-253 500q-35 32 -49.5 66t-14.5 56q0 45 31.5 70.5t84.5 35.5l29 -81q-39 -7 -51.5 -23t-12.5 -35q0 -15 7 -34t19 -36zM-126 504l-46 16l90 210l95 -17z" />
    <glyph glyph-name="uni1F2E" unicode="&#x1f2e;" horiz-adv-x="636" 
d="M472 0v313h-308v-313h-88v696h88v-306h308v306h88v-696h-88zM-200 436q15 16 23.5 32.5t8.5 29.5q0 14 -12.5 24.5t-47.5 15.5l28 65q49 -7 77.5 -26t28.5 -51q0 -17 -13 -45t-52 -60zM-225 736q18 0 36.5 -7.5t35.5 -16t33 -16t29 -7.5q15 0 30 10.5t31 34.5l52 -29
q-22 -46 -48.5 -67.5t-58.5 -21.5q-18 0 -36 7t-35.5 15.5t-34 15.5t-31.5 7q-17 0 -30.5 -8.5t-32.5 -31.5l-48 26q20 42 49 65.5t59 23.5z" />
    <glyph glyph-name="uni1F2F" unicode="&#x1f2f;" horiz-adv-x="636" 
d="M472 0v313h-308v-313h-88v696h88v-306h308v306h88v-696h-88zM-175 423q-39 32 -51.5 60t-12.5 45q0 32 28 51t77 26l28 -65q-35 -5 -47 -15.5t-12 -24.5q0 -13 8 -29.5t23 -32.5zM-229 740q18 0 36.5 -7.5t35.5 -16t33 -16t29 -7.5q15 0 30 10.5t31 34.5l52 -29
q-22 -46 -48.5 -67.5t-58.5 -21.5q-18 0 -36 7t-35.5 15.5t-34 15.5t-31.5 7q-17 0 -30.5 -8.5t-32.5 -31.5l-48 26q20 42 49 65.5t59 23.5z" />
    <glyph glyph-name="uni1F30" unicode="&#x1f30;" horiz-adv-x="225" 
d="M193 0q-8 -1 -11.5 -1h-9.5q-60 0 -82 25.5t-22 86.5v383h82v-379q0 -16 2 -25t7 -13.5t13.5 -5.5t22.5 -1zM81 570q12 17 19 36t7 34q0 19 -12.5 35t-51.5 23l29 81q53 -10 84.5 -35.5t31.5 -70.5q0 -22 -14.5 -56t-49.5 -66z" />
    <glyph glyph-name="uni1F31" unicode="&#x1f31;" horiz-adv-x="225" 
d="M193 0q-8 -1 -11.5 -1h-9.5q-60 0 -82 25.5t-22 86.5v383h82v-379q0 -16 2 -25t7 -13.5t13.5 -5.5t22.5 -1zM105 551q-35 32 -49.5 66t-14.5 56q0 45 31.5 70.5t84.5 35.5l29 -81q-39 -7 -51.5 -23t-12.5 -35q0 -15 7 -34t19 -36z" />
    <glyph glyph-name="uni1F32" unicode="&#x1f32;" horiz-adv-x="225" 
d="M193 0q-8 -1 -11.5 -1h-9.5q-60 0 -82 25.5t-22 86.5v383h82v-379q0 -16 2 -25t7 -13.5t13.5 -5.5t22.5 -1zM-27 571q12 17 19 36t7 34q0 19 -12.5 35t-51.5 23l29 81q53 -10 84.5 -35.5t31.5 -70.5q0 -22 -14.5 -56t-49.5 -66zM88 763l99 17l86 -210l-46 -16z" />
    <glyph glyph-name="uni1F33" unicode="&#x1f33;" horiz-adv-x="225" 
d="M193 0q-8 -1 -11.5 -1h-9.5q-60 0 -82 25.5t-22 86.5v383h82v-379q0 -16 2 -25t7 -13.5t13.5 -5.5t22.5 -1zM5 553q-35 32 -49.5 66t-14.5 56q0 45 31.5 70.5t84.5 35.5l29 -81q-39 -7 -51.5 -23t-12.5 -35q0 -15 7 -34t19 -36zM92 765l99 17l86 -210l-46 -16z" />
    <glyph glyph-name="uni1F34" unicode="&#x1f34;" horiz-adv-x="225" 
d="M193 0q-8 -1 -11.5 -1h-9.5q-60 0 -82 25.5t-22 86.5v383h82v-379q0 -16 2 -25t7 -13.5t13.5 -5.5t22.5 -1zM18 569q12 17 19 36t7 34q0 19 -12.5 35t-51.5 23l29 81q53 -10 84.5 -35.5t31.5 -70.5q0 -22 -14.5 -56t-49.5 -66zM191 554l-46 16l90 210l95 -17z" />
    <glyph glyph-name="uni1F35" unicode="&#x1f35;" horiz-adv-x="225" 
d="M193 0q-8 -1 -11.5 -1h-9.5q-60 0 -82 25.5t-22 86.5v383h82v-379q0 -16 2 -25t7 -13.5t13.5 -5.5t22.5 -1zM55 550q-35 32 -49.5 66t-14.5 56q0 45 31.5 70.5t84.5 35.5l29 -81q-39 -7 -51.5 -23t-12.5 -35q0 -15 7 -34t19 -36zM182 554l-46 16l90 210l95 -17z" />
    <glyph glyph-name="uni1F36" unicode="&#x1f36;" horiz-adv-x="225" 
d="M193 0q-8 -1 -11.5 -1h-9.5q-60 0 -82 25.5t-22 86.5v383h82v-379q0 -16 2 -25t7 -13.5t13.5 -5.5t22.5 -1zM78 545q15 16 23.5 32.5t8.5 29.5q0 14 -12.5 24.5t-47.5 15.5l28 65q49 -7 77.5 -26t28.5 -51q0 -17 -13 -45t-52 -60zM53 845q18 0 36.5 -7.5t35.5 -16t33 -16
t29 -7.5q15 0 30 10.5t31 34.5l52 -29q-22 -46 -48.5 -67.5t-58.5 -21.5q-18 0 -36 7t-35.5 15.5t-34 15.5t-31.5 7q-17 0 -30.5 -8.5t-32.5 -31.5l-48 26q20 42 49 65.5t59 23.5z" />
    <glyph glyph-name="uni1F37" unicode="&#x1f37;" horiz-adv-x="225" 
d="M193 0q-8 -1 -11.5 -1h-9.5q-60 0 -82 25.5t-22 86.5v383h82v-379q0 -16 2 -25t7 -13.5t13.5 -5.5t22.5 -1zM106 532q-39 32 -51.5 60t-12.5 45q0 32 28 51t77 26l28 -65q-35 -5 -47 -15.5t-12 -24.5q0 -13 8 -29.5t23 -32.5zM52 849q18 0 36.5 -7.5t35.5 -16t33 -16
t29 -7.5q15 0 30 10.5t31 34.5l52 -29q-22 -46 -48.5 -67.5t-58.5 -21.5q-18 0 -36 7t-35.5 15.5t-34 15.5t-31.5 7q-17 0 -30.5 -8.5t-32.5 -31.5l-48 26q20 42 49 65.5t59 23.5z" />
    <glyph glyph-name="uni1F38" unicode="&#x1f38;" horiz-adv-x="241" 
d="M76 0v696h88v-696h-88zM-104 520q12 17 19 36t7 34q0 19 -12.5 35t-51.5 23l29 81q53 -10 84.5 -35.5t31.5 -70.5q0 -22 -14.5 -56t-49.5 -66z" />
    <glyph glyph-name="uni1F39" unicode="&#x1f39;" horiz-adv-x="241" 
d="M76 0v696h88v-696h-88zM-77 501q-35 32 -49.5 66t-14.5 56q0 45 31.5 70.5t84.5 35.5l29 -81q-39 -7 -51.5 -23t-12.5 -35q0 -15 7 -34t19 -36z" />
    <glyph glyph-name="uni1F3A" unicode="&#x1f3a;" horiz-adv-x="241" 
d="M76 0v696h88v-696h-88zM-265 521q12 17 19 36t7 34q0 19 -12.5 35t-51.5 23l29 81q53 -10 84.5 -35.5t31.5 -70.5q0 -22 -14.5 -56t-49.5 -66zM-150 713l99 17l86 -210l-46 -16z" />
    <glyph glyph-name="uni1F3B" unicode="&#x1f3b;" horiz-adv-x="241" 
d="M76 0v696h88v-696h-88zM-235 501q-35 32 -49.5 66t-14.5 56q0 45 31.5 70.5t84.5 35.5l29 -81q-39 -7 -51.5 -23t-12.5 -35q0 -15 7 -34t19 -36zM-148 713l99 17l86 -210l-46 -16z" />
    <glyph glyph-name="uni1F3C" unicode="&#x1f3c;" horiz-adv-x="241" 
d="M76 0v696h88v-696h-88zM-266 519q12 17 19 36t7 34q0 19 -12.5 35t-51.5 23l29 81q53 -10 84.5 -35.5t31.5 -70.5q0 -22 -14.5 -56t-49.5 -66zM-93 504l-46 16l90 210l95 -17z" />
    <glyph glyph-name="uni1F3D" unicode="&#x1f3d;" horiz-adv-x="241" 
d="M76 0v696h88v-696h-88zM-221 500q-35 32 -49.5 66t-14.5 56q0 45 31.5 70.5t84.5 35.5l29 -81q-39 -7 -51.5 -23t-12.5 -35q0 -15 7 -34t19 -36zM-94 504l-46 16l90 210l95 -17z" />
    <glyph glyph-name="uni1F3E" unicode="&#x1f3e;" horiz-adv-x="241" 
d="M76 0v696h88v-696h-88zM-190 435q15 16 23.5 32.5t8.5 29.5q0 14 -12.5 24.5t-47.5 15.5l28 65q49 -7 77.5 -26t28.5 -51q0 -17 -13 -45t-52 -60zM-215 735q18 0 36.5 -7.5t35.5 -16t33 -16t29 -7.5q15 0 30 10.5t31 34.5l52 -29q-22 -46 -48.5 -67.5t-58.5 -21.5
q-18 0 -36 7t-35.5 15.5t-34 15.5t-31.5 7q-17 0 -30.5 -8.5t-32.5 -31.5l-48 26q20 42 49 65.5t59 23.5z" />
    <glyph glyph-name="uni1F3F" unicode="&#x1f3f;" horiz-adv-x="241" 
d="M76 0v696h88v-696h-88zM-161 422q-39 32 -51.5 60t-12.5 45q0 32 28 51t77 26l28 -65q-35 -5 -47 -15.5t-12 -24.5q0 -13 8 -29.5t23 -32.5zM-215 739q18 0 36.5 -7.5t35.5 -16t33 -16t29 -7.5q15 0 30 10.5t31 34.5l52 -29q-22 -46 -48.5 -67.5t-58.5 -21.5q-18 0 -36 7
t-35.5 15.5t-34 15.5t-31.5 7q-17 0 -30.5 -8.5t-32.5 -31.5l-48 26q20 42 49 65.5t59 23.5z" />
    <glyph glyph-name="uni1F40" unicode="&#x1f40;" horiz-adv-x="514" 
d="M263 500q54 0 96 -21.5t68 -61.5q17 -27 25.5 -65.5t8.5 -86.5q0 -64 -7 -107.5t-24 -72.5q-26 -44 -72.5 -67.5t-105.5 -23.5q-54 0 -96 18.5t-68 56.5q-20 31 -28.5 74t-8.5 103q0 42 5.5 77.5t19.5 64.5q25 54 73.5 83t113.5 29zM260 426q-37 0 -65.5 -18.5
t-43.5 -51.5q-11 -23 -14 -50.5t-4 -60.5q0 -33 2.5 -59.5t12.5 -48.5q14 -32 41 -50t64 -18q40 0 71.5 21t45.5 67q5 18 6.5 41.5t1.5 63.5q0 29 -2.5 51.5t-10.5 40.5q-14 37 -42 54.5t-63 17.5zM224 570q12 17 19 36t7 34q0 19 -12.5 35t-51.5 23l29 81
q53 -10 84.5 -35.5t31.5 -70.5q0 -22 -14.5 -56t-49.5 -66z" />
    <glyph glyph-name="uni1F41" unicode="&#x1f41;" horiz-adv-x="514" 
d="M263 500q54 0 96 -21.5t68 -61.5q17 -27 25.5 -65.5t8.5 -86.5q0 -64 -7 -107.5t-24 -72.5q-26 -44 -72.5 -67.5t-105.5 -23.5q-54 0 -96 18.5t-68 56.5q-20 31 -28.5 74t-8.5 103q0 42 5.5 77.5t19.5 64.5q25 54 73.5 83t113.5 29zM260 426q-37 0 -65.5 -18.5
t-43.5 -51.5q-11 -23 -14 -50.5t-4 -60.5q0 -33 2.5 -59.5t12.5 -48.5q14 -32 41 -50t64 -18q40 0 71.5 21t45.5 67q5 18 6.5 41.5t1.5 63.5q0 29 -2.5 51.5t-10.5 40.5q-14 37 -42 54.5t-63 17.5zM255 551q-35 32 -49.5 66t-14.5 56q0 45 31.5 70.5t84.5 35.5l29 -81
q-39 -7 -51.5 -23t-12.5 -35q0 -15 7 -34t19 -36z" />
    <glyph glyph-name="uni1F42" unicode="&#x1f42;" horiz-adv-x="514" 
d="M263 500q54 0 96 -21.5t68 -61.5q17 -27 25.5 -65.5t8.5 -86.5q0 -64 -7 -107.5t-24 -72.5q-26 -44 -72.5 -67.5t-105.5 -23.5q-54 0 -96 18.5t-68 56.5q-20 31 -28.5 74t-8.5 103q0 42 5.5 77.5t19.5 64.5q25 54 73.5 83t113.5 29zM260 426q-37 0 -65.5 -18.5
t-43.5 -51.5q-11 -23 -14 -50.5t-4 -60.5q0 -33 2.5 -59.5t12.5 -48.5q14 -32 41 -50t64 -18q40 0 71.5 21t45.5 67q5 18 6.5 41.5t1.5 63.5q0 29 -2.5 51.5t-10.5 40.5q-14 37 -42 54.5t-63 17.5zM106 571q12 17 19 36t7 34q0 19 -12.5 35t-51.5 23l29 81
q53 -10 84.5 -35.5t31.5 -70.5q0 -22 -14.5 -56t-49.5 -66zM221 763l99 17l86 -210l-46 -16z" />
    <glyph glyph-name="uni1F43" unicode="&#x1f43;" horiz-adv-x="514" 
d="M263 500q54 0 96 -21.5t68 -61.5q17 -27 25.5 -65.5t8.5 -86.5q0 -64 -7 -107.5t-24 -72.5q-26 -44 -72.5 -67.5t-105.5 -23.5q-54 0 -96 18.5t-68 56.5q-20 31 -28.5 74t-8.5 103q0 42 5.5 77.5t19.5 64.5q25 54 73.5 83t113.5 29zM260 426q-37 0 -65.5 -18.5
t-43.5 -51.5q-11 -23 -14 -50.5t-4 -60.5q0 -33 2.5 -59.5t12.5 -48.5q14 -32 41 -50t64 -18q40 0 71.5 21t45.5 67q5 18 6.5 41.5t1.5 63.5q0 29 -2.5 51.5t-10.5 40.5q-14 37 -42 54.5t-63 17.5zM152 551q-35 32 -49.5 66t-14.5 56q0 45 31.5 70.5t84.5 35.5l29 -81
q-39 -7 -51.5 -23t-12.5 -35q0 -15 7 -34t19 -36zM239 763l99 17l86 -210l-46 -16z" />
    <glyph glyph-name="uni1F44" unicode="&#x1f44;" horiz-adv-x="514" 
d="M263 500q54 0 96 -21.5t68 -61.5q17 -27 25.5 -65.5t8.5 -86.5q0 -64 -7 -107.5t-24 -72.5q-26 -44 -72.5 -67.5t-105.5 -23.5q-54 0 -96 18.5t-68 56.5q-20 31 -28.5 74t-8.5 103q0 42 5.5 77.5t19.5 64.5q25 54 73.5 83t113.5 29zM260 426q-37 0 -65.5 -18.5
t-43.5 -51.5q-11 -23 -14 -50.5t-4 -60.5q0 -33 2.5 -59.5t12.5 -48.5q14 -32 41 -50t64 -18q40 0 71.5 21t45.5 67q5 18 6.5 41.5t1.5 63.5q0 29 -2.5 51.5t-10.5 40.5q-14 37 -42 54.5t-63 17.5zM164 569q12 17 19 36t7 34q0 19 -12.5 35t-51.5 23l29 81
q53 -10 84.5 -35.5t31.5 -70.5q0 -22 -14.5 -56t-49.5 -66zM337 554l-46 16l90 210l95 -17z" />
    <glyph glyph-name="uni1F45" unicode="&#x1f45;" horiz-adv-x="514" 
d="M263 500q54 0 96 -21.5t68 -61.5q17 -27 25.5 -65.5t8.5 -86.5q0 -64 -7 -107.5t-24 -72.5q-26 -44 -72.5 -67.5t-105.5 -23.5q-54 0 -96 18.5t-68 56.5q-20 31 -28.5 74t-8.5 103q0 42 5.5 77.5t19.5 64.5q25 54 73.5 83t113.5 29zM260 426q-37 0 -65.5 -18.5
t-43.5 -51.5q-11 -23 -14 -50.5t-4 -60.5q0 -33 2.5 -59.5t12.5 -48.5q14 -32 41 -50t64 -18q40 0 71.5 21t45.5 67q5 18 6.5 41.5t1.5 63.5q0 29 -2.5 51.5t-10.5 40.5q-14 37 -42 54.5t-63 17.5zM204 550q-35 32 -49.5 66t-14.5 56q0 45 31.5 70.5t84.5 35.5l29 -81
q-39 -7 -51.5 -23t-12.5 -35q0 -15 7 -34t19 -36zM331 554l-46 16l90 210l95 -17z" />
    <glyph glyph-name="uni1F48" unicode="&#x1f48;" horiz-adv-x="595" 
d="M297 701q57 0 103 -19.5t78.5 -53.5t49.5 -81.5t17 -102.5v-192q0 -59 -17.5 -107t-50 -81.5t-78 -51.5t-102.5 -18q-62 0 -108.5 21t-77.5 56t-46 82t-15 99v192q0 51 15 97.5t46 82t77.5 56.5t108.5 21zM298 618q-41 0 -71 -15t-50 -39.5t-30 -56.5t-10 -65v-185
q0 -35 10 -67.5t30 -57.5t50 -40.5t71 -15.5q37 0 66.5 14t50 38t31.5 57t11 72v185q0 36 -11 68t-31.5 56t-50 38t-66.5 14zM-99 520q12 17 19 36t7 34q0 19 -12.5 35t-51.5 23l29 81q53 -10 84.5 -35.5t31.5 -70.5q0 -22 -14.5 -56t-49.5 -66z" />
    <glyph glyph-name="uni1F49" unicode="&#x1f49;" horiz-adv-x="595" 
d="M297 701q57 0 103 -19.5t78.5 -53.5t49.5 -81.5t17 -102.5v-192q0 -59 -17.5 -107t-50 -81.5t-78 -51.5t-102.5 -18q-62 0 -108.5 21t-77.5 56t-46 82t-15 99v192q0 51 15 97.5t46 82t77.5 56.5t108.5 21zM298 618q-41 0 -71 -15t-50 -39.5t-30 -56.5t-10 -65v-185
q0 -35 10 -67.5t30 -57.5t50 -40.5t71 -15.5q37 0 66.5 14t50 38t31.5 57t11 72v185q0 36 -11 68t-31.5 56t-50 38t-66.5 14zM-70 501q-35 32 -49.5 66t-14.5 56q0 45 31.5 70.5t84.5 35.5l29 -81q-39 -7 -51.5 -23t-12.5 -35q0 -15 7 -34t19 -36z" />
    <glyph glyph-name="uni1F4A" unicode="&#x1f4a;" horiz-adv-x="595" 
d="M297 701q57 0 103 -19.5t78.5 -53.5t49.5 -81.5t17 -102.5v-192q0 -59 -17.5 -107t-50 -81.5t-78 -51.5t-102.5 -18q-62 0 -108.5 21t-77.5 56t-46 82t-15 99v192q0 51 15 97.5t46 82t77.5 56.5t108.5 21zM298 618q-41 0 -71 -15t-50 -39.5t-30 -56.5t-10 -65v-185
q0 -35 10 -67.5t30 -57.5t50 -40.5t71 -15.5q37 0 66.5 14t50 38t31.5 57t11 72v185q0 36 -11 68t-31.5 56t-50 38t-66.5 14zM-294 521q12 17 19 36t7 34q0 19 -12.5 35t-51.5 23l29 81q53 -10 84.5 -35.5t31.5 -70.5q0 -22 -14.5 -56t-49.5 -66zM-179 713l99 17l86 -210
l-46 -16z" />
    <glyph glyph-name="uni1F4B" unicode="&#x1f4b;" horiz-adv-x="595" 
d="M297 701q57 0 103 -19.5t78.5 -53.5t49.5 -81.5t17 -102.5v-192q0 -59 -17.5 -107t-50 -81.5t-78 -51.5t-102.5 -18q-62 0 -108.5 21t-77.5 56t-46 82t-15 99v192q0 51 15 97.5t46 82t77.5 56.5t108.5 21zM298 618q-41 0 -71 -15t-50 -39.5t-30 -56.5t-10 -65v-185
q0 -35 10 -67.5t30 -57.5t50 -40.5t71 -15.5q37 0 66.5 14t50 38t31.5 57t11 72v185q0 36 -11 68t-31.5 56t-50 38t-66.5 14zM-261 501q-35 32 -49.5 66t-14.5 56q0 45 31.5 70.5t84.5 35.5l29 -81q-39 -7 -51.5 -23t-12.5 -35q0 -15 7 -34t19 -36zM-174 713l99 17l86 -210
l-46 -16z" />
    <glyph glyph-name="uni1F4C" unicode="&#x1f4c;" horiz-adv-x="595" 
d="M297 701q57 0 103 -19.5t78.5 -53.5t49.5 -81.5t17 -102.5v-192q0 -59 -17.5 -107t-50 -81.5t-78 -51.5t-102.5 -18q-62 0 -108.5 21t-77.5 56t-46 82t-15 99v192q0 51 15 97.5t46 82t77.5 56.5t108.5 21zM298 618q-41 0 -71 -15t-50 -39.5t-30 -56.5t-10 -65v-185
q0 -35 10 -67.5t30 -57.5t50 -40.5t71 -15.5q37 0 66.5 14t50 38t31.5 57t11 72v185q0 36 -11 68t-31.5 56t-50 38t-66.5 14zM-277 519q12 17 19 36t7 34q0 19 -12.5 35t-51.5 23l29 81q53 -10 84.5 -35.5t31.5 -70.5q0 -22 -14.5 -56t-49.5 -66zM-104 504l-46 16l90 210
l95 -17z" />
    <glyph glyph-name="uni1F4D" unicode="&#x1f4d;" horiz-adv-x="595" 
d="M297 701q57 0 103 -19.5t78.5 -53.5t49.5 -81.5t17 -102.5v-192q0 -59 -17.5 -107t-50 -81.5t-78 -51.5t-102.5 -18q-62 0 -108.5 21t-77.5 56t-46 82t-15 99v192q0 51 15 97.5t46 82t77.5 56.5t108.5 21zM298 618q-41 0 -71 -15t-50 -39.5t-30 -56.5t-10 -65v-185
q0 -35 10 -67.5t30 -57.5t50 -40.5t71 -15.5q37 0 66.5 14t50 38t31.5 57t11 72v185q0 36 -11 68t-31.5 56t-50 38t-66.5 14zM-230 500q-35 32 -49.5 66t-14.5 56q0 45 31.5 70.5t84.5 35.5l29 -81q-39 -7 -51.5 -23t-12.5 -35q0 -15 7 -34t19 -36zM-103 504l-46 16l90 210
l95 -17z" />
    <glyph glyph-name="uni1F50" unicode="&#x1f50;" horiz-adv-x="529" 
d="M462 173q0 -40 -14.5 -73t-41 -56.5t-63 -36.5t-79.5 -13q-44 0 -80 13t-62 37t-40 57t-14 72v323h82v-298q0 -57 32.5 -91t82.5 -34t82.5 34t32.5 91v298h82v-323zM231 570q12 17 19 36t7 34q0 19 -12.5 35t-51.5 23l29 81q53 -10 84.5 -35.5t31.5 -70.5
q0 -22 -14.5 -56t-49.5 -66z" />
    <glyph glyph-name="uni1F51" unicode="&#x1f51;" horiz-adv-x="529" 
d="M462 173q0 -40 -14.5 -73t-41 -56.5t-63 -36.5t-79.5 -13q-44 0 -80 13t-62 37t-40 57t-14 72v323h82v-298q0 -57 32.5 -91t82.5 -34t82.5 34t32.5 91v298h82v-323zM262 551q-35 32 -49.5 66t-14.5 56q0 45 31.5 70.5t84.5 35.5l29 -81q-39 -7 -51.5 -23t-12.5 -35
q0 -15 7 -34t19 -36z" />
    <glyph glyph-name="uni1F52" unicode="&#x1f52;" horiz-adv-x="529" 
d="M462 173q0 -40 -14.5 -73t-41 -56.5t-63 -36.5t-79.5 -13q-44 0 -80 13t-62 37t-40 57t-14 72v323h82v-298q0 -57 32.5 -91t82.5 -34t82.5 34t32.5 91v298h82v-323zM116 571q12 17 19 36t7 34q0 19 -12.5 35t-51.5 23l29 81q53 -10 84.5 -35.5t31.5 -70.5
q0 -22 -14.5 -56t-49.5 -66zM231 763l99 17l86 -210l-46 -16z" />
    <glyph glyph-name="uni1F53" unicode="&#x1f53;" horiz-adv-x="529" 
d="M462 173q0 -40 -14.5 -73t-41 -56.5t-63 -36.5t-79.5 -13q-44 0 -80 13t-62 37t-40 57t-14 72v323h82v-298q0 -57 32.5 -91t82.5 -34t82.5 34t32.5 91v298h82v-323zM166 551q-35 32 -49.5 66t-14.5 56q0 45 31.5 70.5t84.5 35.5l29 -81q-39 -7 -51.5 -23t-12.5 -35
q0 -15 7 -34t19 -36zM253 763l99 17l86 -210l-46 -16z" />
    <glyph glyph-name="uni1F54" unicode="&#x1f54;" horiz-adv-x="529" 
d="M462 173q0 -40 -14.5 -73t-41 -56.5t-63 -36.5t-79.5 -13q-44 0 -80 13t-62 37t-40 57t-14 72v323h82v-298q0 -57 32.5 -91t82.5 -34t82.5 34t32.5 91v298h82v-323zM172 569q12 17 19 36t7 34q0 19 -12.5 35t-51.5 23l29 81q53 -10 84.5 -35.5t31.5 -70.5
q0 -22 -14.5 -56t-49.5 -66zM345 554l-46 16l90 210l95 -17z" />
    <glyph glyph-name="uni1F55" unicode="&#x1f55;" horiz-adv-x="529" 
d="M462 173q0 -40 -14.5 -73t-41 -56.5t-63 -36.5t-79.5 -13q-44 0 -80 13t-62 37t-40 57t-14 72v323h82v-298q0 -57 32.5 -91t82.5 -34t82.5 34t32.5 91v298h82v-323zM210 550q-35 32 -49.5 66t-14.5 56q0 45 31.5 70.5t84.5 35.5l29 -81q-39 -7 -51.5 -23t-12.5 -35
q0 -15 7 -34t19 -36zM337 554l-46 16l90 210l95 -17z" />
    <glyph glyph-name="uni1F56" unicode="&#x1f56;" horiz-adv-x="529" 
d="M462 173q0 -40 -14.5 -73t-41 -56.5t-63 -36.5t-79.5 -13q-44 0 -80 13t-62 37t-40 57t-14 72v323h82v-298q0 -57 32.5 -91t82.5 -34t82.5 34t32.5 91v298h82v-323zM229 545q15 16 23.5 32.5t8.5 29.5q0 14 -12.5 24.5t-47.5 15.5l28 65q49 -7 77.5 -26t28.5 -51
q0 -17 -13 -45t-52 -60zM204 845q18 0 36.5 -7.5t35.5 -16t33 -16t29 -7.5q15 0 30 10.5t31 34.5l52 -29q-22 -46 -48.5 -67.5t-58.5 -21.5q-18 0 -36 7t-35.5 15.5t-34 15.5t-31.5 7q-17 0 -30.5 -8.5t-32.5 -31.5l-48 26q20 42 49 65.5t59 23.5z" />
    <glyph glyph-name="uni1F57" unicode="&#x1f57;" horiz-adv-x="529" 
d="M462 173q0 -40 -14.5 -73t-41 -56.5t-63 -36.5t-79.5 -13q-44 0 -80 13t-62 37t-40 57t-14 72v323h82v-298q0 -57 32.5 -91t82.5 -34t82.5 34t32.5 91v298h82v-323zM247 532q-39 32 -51.5 60t-12.5 45q0 32 28 51t77 26l28 -65q-35 -5 -47 -15.5t-12 -24.5q0 -13 8 -29.5
t23 -32.5zM193 849q18 0 36.5 -7.5t35.5 -16t33 -16t29 -7.5q15 0 30 10.5t31 34.5l52 -29q-22 -46 -48.5 -67.5t-58.5 -21.5q-18 0 -36 7t-35.5 15.5t-34 15.5t-31.5 7q-17 0 -30.5 -8.5t-32.5 -31.5l-48 26q20 42 49 65.5t59 23.5z" />
    <glyph glyph-name="uni1F59" unicode="&#x1f59;" horiz-adv-x="508" 
d="M295 276v-276h-84v276l-209 420h93l97 -193l62 -133l65 139l94 187h91zM-97 501q-35 32 -49.5 66t-14.5 56q0 45 31.5 70.5t84.5 35.5l29 -81q-39 -7 -51.5 -23t-12.5 -35q0 -15 7 -34t19 -36z" />
    <glyph glyph-name="uni1F5B" unicode="&#x1f5b;" horiz-adv-x="508" 
d="M295 276v-276h-84v276l-209 420h93l97 -193l62 -133l65 139l94 187h91zM-289 501q-35 32 -49.5 66t-14.5 56q0 45 31.5 70.5t84.5 35.5l29 -81q-39 -7 -51.5 -23t-12.5 -35q0 -15 7 -34t19 -36zM-202 713l99 17l86 -210l-46 -16z" />
    <glyph glyph-name="uni1F5D" unicode="&#x1f5d;" horiz-adv-x="508" 
d="M295 276v-276h-84v276l-209 420h93l97 -193l62 -133l65 139l94 187h91zM-274 500q-35 32 -49.5 66t-14.5 56q0 45 31.5 70.5t84.5 35.5l29 -81q-39 -7 -51.5 -23t-12.5 -35q0 -15 7 -34t19 -36zM-147 504l-46 16l90 210l95 -17z" />
    <glyph glyph-name="uni1F5F" unicode="&#x1f5f;" horiz-adv-x="508" 
d="M295 276v-276h-84v276l-209 420h93l97 -193l62 -133l65 139l94 187h91zM-230 424q-39 32 -51.5 60t-12.5 45q0 32 28 51t77 26l28 -65q-35 -5 -47 -15.5t-12 -24.5q0 -13 8 -29.5t23 -32.5zM-284 741q18 0 36.5 -7.5t35.5 -16t33 -16t29 -7.5q15 0 30 10.5t31 34.5
l52 -29q-22 -46 -48.5 -67.5t-58.5 -21.5q-18 0 -36 7t-35.5 15.5t-34 15.5t-31.5 7q-17 0 -30.5 -8.5t-32.5 -31.5l-48 26q20 42 49 65.5t59 23.5z" />
    <glyph glyph-name="uni1F60" unicode="&#x1f60;" horiz-adv-x="752" 
d="M540 500q48 -3 81 -22.5t53.5 -53t29.5 -78.5t9 -99q0 -57 -10.5 -103.5t-33 -79.5t-58.5 -51t-87 -18q-47 0 -82.5 18t-63.5 56q-29 -35 -63.5 -55t-81.5 -20q-51 0 -87 18t-58.5 51t-33 79.5t-10.5 103.5q0 55 10 100.5t31.5 78.5t55 52.5t81.5 22.5l9 -77
q-54 -6 -78.5 -53t-24.5 -125q0 -77 24.5 -125t78.5 -48q51 0 77 33.5t26 89.5v185h82v-185q0 -56 28 -89t82 -33t78.5 48t24.5 125q0 78 -24 124t-77 53zM344 570q12 17 19 36t7 34q0 19 -12.5 35t-51.5 23l29 81q53 -10 84.5 -35.5t31.5 -70.5q0 -22 -14.5 -56t-49.5 -66z
" />
    <glyph glyph-name="uni1F61" unicode="&#x1f61;" horiz-adv-x="752" 
d="M540 500q48 -3 81 -22.5t53.5 -53t29.5 -78.5t9 -99q0 -57 -10.5 -103.5t-33 -79.5t-58.5 -51t-87 -18q-47 0 -82.5 18t-63.5 56q-29 -35 -63.5 -55t-81.5 -20q-51 0 -87 18t-58.5 51t-33 79.5t-10.5 103.5q0 55 10 100.5t31.5 78.5t55 52.5t81.5 22.5l9 -77
q-54 -6 -78.5 -53t-24.5 -125q0 -77 24.5 -125t78.5 -48q51 0 77 33.5t26 89.5v185h82v-185q0 -56 28 -89t82 -33t78.5 48t24.5 125q0 78 -24 124t-77 53zM370 551q-35 32 -49.5 66t-14.5 56q0 45 31.5 70.5t84.5 35.5l29 -81q-39 -7 -51.5 -23t-12.5 -35q0 -15 7 -34
t19 -36z" />
    <glyph glyph-name="uni1F62" unicode="&#x1f62;" horiz-adv-x="752" 
d="M540 500q48 -3 81 -22.5t53.5 -53t29.5 -78.5t9 -99q0 -57 -10.5 -103.5t-33 -79.5t-58.5 -51t-87 -18q-47 0 -82.5 18t-63.5 56q-29 -35 -63.5 -55t-81.5 -20q-51 0 -87 18t-58.5 51t-33 79.5t-10.5 103.5q0 55 10 100.5t31.5 78.5t55 52.5t81.5 22.5l9 -77
q-54 -6 -78.5 -53t-24.5 -125q0 -77 24.5 -125t78.5 -48q51 0 77 33.5t26 89.5v185h82v-185q0 -56 28 -89t82 -33t78.5 48t24.5 125q0 78 -24 124t-77 53zM231 571q12 17 19 36t7 34q0 19 -12.5 35t-51.5 23l29 81q53 -10 84.5 -35.5t31.5 -70.5q0 -22 -14.5 -56t-49.5 -66z
M346 763l99 17l86 -210l-46 -16z" />
    <glyph glyph-name="uni1F63" unicode="&#x1f63;" horiz-adv-x="752" 
d="M540 500q48 -3 81 -22.5t53.5 -53t29.5 -78.5t9 -99q0 -57 -10.5 -103.5t-33 -79.5t-58.5 -51t-87 -18q-47 0 -82.5 18t-63.5 56q-29 -35 -63.5 -55t-81.5 -20q-51 0 -87 18t-58.5 51t-33 79.5t-10.5 103.5q0 55 10 100.5t31.5 78.5t55 52.5t81.5 22.5l9 -77
q-54 -6 -78.5 -53t-24.5 -125q0 -77 24.5 -125t78.5 -48q51 0 77 33.5t26 89.5v185h82v-185q0 -56 28 -89t82 -33t78.5 48t24.5 125q0 78 -24 124t-77 53zM283 551q-35 32 -49.5 66t-14.5 56q0 45 31.5 70.5t84.5 35.5l29 -81q-39 -7 -51.5 -23t-12.5 -35q0 -15 7 -34
t19 -36zM370 763l99 17l86 -210l-46 -16z" />
    <glyph glyph-name="uni1F64" unicode="&#x1f64;" horiz-adv-x="752" 
d="M540 500q48 -3 81 -22.5t53.5 -53t29.5 -78.5t9 -99q0 -57 -10.5 -103.5t-33 -79.5t-58.5 -51t-87 -18q-47 0 -82.5 18t-63.5 56q-29 -35 -63.5 -55t-81.5 -20q-51 0 -87 18t-58.5 51t-33 79.5t-10.5 103.5q0 55 10 100.5t31.5 78.5t55 52.5t81.5 22.5l9 -77
q-54 -6 -78.5 -53t-24.5 -125q0 -77 24.5 -125t78.5 -48q51 0 77 33.5t26 89.5v185h82v-185q0 -56 28 -89t82 -33t78.5 48t24.5 125q0 78 -24 124t-77 53zM282 569q12 17 19 36t7 34q0 19 -12.5 35t-51.5 23l29 81q53 -10 84.5 -35.5t31.5 -70.5q0 -22 -14.5 -56t-49.5 -66z
M455 554l-46 16l90 210l95 -17z" />
    <glyph glyph-name="uni1F65" unicode="&#x1f65;" horiz-adv-x="752" 
d="M540 500q48 -3 81 -22.5t53.5 -53t29.5 -78.5t9 -99q0 -57 -10.5 -103.5t-33 -79.5t-58.5 -51t-87 -18q-47 0 -82.5 18t-63.5 56q-29 -35 -63.5 -55t-81.5 -20q-51 0 -87 18t-58.5 51t-33 79.5t-10.5 103.5q0 55 10 100.5t31.5 78.5t55 52.5t81.5 22.5l9 -77
q-54 -6 -78.5 -53t-24.5 -125q0 -77 24.5 -125t78.5 -48q51 0 77 33.5t26 89.5v185h82v-185q0 -56 28 -89t82 -33t78.5 48t24.5 125q0 78 -24 124t-77 53zM326 550q-35 32 -49.5 66t-14.5 56q0 45 31.5 70.5t84.5 35.5l29 -81q-39 -7 -51.5 -23t-12.5 -35q0 -15 7 -34
t19 -36zM453 554l-46 16l90 210l95 -17z" />
    <glyph glyph-name="uni1F66" unicode="&#x1f66;" horiz-adv-x="752" 
d="M540 500q48 -3 81 -22.5t53.5 -53t29.5 -78.5t9 -99q0 -57 -10.5 -103.5t-33 -79.5t-58.5 -51t-87 -18q-47 0 -82.5 18t-63.5 56q-29 -35 -63.5 -55t-81.5 -20q-51 0 -87 18t-58.5 51t-33 79.5t-10.5 103.5q0 55 10 100.5t31.5 78.5t55 52.5t81.5 22.5l9 -77
q-54 -6 -78.5 -53t-24.5 -125q0 -77 24.5 -125t78.5 -48q51 0 77 33.5t26 89.5v185h82v-185q0 -56 28 -89t82 -33t78.5 48t24.5 125q0 78 -24 124t-77 53zM346 545q15 16 23.5 32.5t8.5 29.5q0 14 -12.5 24.5t-47.5 15.5l28 65q49 -7 77.5 -26t28.5 -51q0 -17 -13 -45
t-52 -60zM321 845q18 0 36.5 -7.5t35.5 -16t33 -16t29 -7.5q15 0 30 10.5t31 34.5l52 -29q-22 -46 -48.5 -67.5t-58.5 -21.5q-18 0 -36 7t-35.5 15.5t-34 15.5t-31.5 7q-17 0 -30.5 -8.5t-32.5 -31.5l-48 26q20 42 49 65.5t59 23.5z" />
    <glyph glyph-name="uni1F67" unicode="&#x1f67;" horiz-adv-x="752" 
d="M540 500q48 -3 81 -22.5t53.5 -53t29.5 -78.5t9 -99q0 -57 -10.5 -103.5t-33 -79.5t-58.5 -51t-87 -18q-47 0 -82.5 18t-63.5 56q-29 -35 -63.5 -55t-81.5 -20q-51 0 -87 18t-58.5 51t-33 79.5t-10.5 103.5q0 55 10 100.5t31.5 78.5t55 52.5t81.5 22.5l9 -77
q-54 -6 -78.5 -53t-24.5 -125q0 -77 24.5 -125t78.5 -48q51 0 77 33.5t26 89.5v185h82v-185q0 -56 28 -89t82 -33t78.5 48t24.5 125q0 78 -24 124t-77 53zM364 532q-39 32 -51.5 60t-12.5 45q0 32 28 51t77 26l28 -65q-35 -5 -47 -15.5t-12 -24.5q0 -13 8 -29.5t23 -32.5z
M310 849q18 0 36.5 -7.5t35.5 -16t33 -16t29 -7.5q15 0 30 10.5t31 34.5l52 -29q-22 -46 -48.5 -67.5t-58.5 -21.5q-18 0 -36 7t-35.5 15.5t-34 15.5t-31.5 7q-17 0 -30.5 -8.5t-32.5 -31.5l-48 26q20 42 49 65.5t59 23.5z" />
    <glyph glyph-name="uni1F68" unicode="&#x1f68;" horiz-adv-x="580" 
d="M346 95q50 17 76 64.5t26 110.5v173q0 36 -10 68.5t-30 57t-50 38.5t-69 14q-43 0 -73.5 -15.5t-50 -40.5t-28.5 -57t-9 -65v-173q0 -28 6.5 -55t19.5 -50t32.5 -41.5t46.5 -28.5l-1 -95h-205v81h88q-21 13 -35.5 34.5t-23 47.5t-12 54.5t-3.5 57.5v170q0 51 15 97.5
t46 82t77.5 56.5t108.5 21q57 0 103 -19.5t78.5 -53.5t49.5 -81.5t17 -102.5v-170q0 -62 -16 -112t-58 -82h89v-81h-205v95zM-103 520q12 17 19 36t7 34q0 19 -12.5 35t-51.5 23l29 81q53 -10 84.5 -35.5t31.5 -70.5q0 -22 -14.5 -56t-49.5 -66z" />
    <glyph glyph-name="uni1F69" unicode="&#x1f69;" horiz-adv-x="580" 
d="M346 95q50 17 76 64.5t26 110.5v173q0 36 -10 68.5t-30 57t-50 38.5t-69 14q-43 0 -73.5 -15.5t-50 -40.5t-28.5 -57t-9 -65v-173q0 -28 6.5 -55t19.5 -50t32.5 -41.5t46.5 -28.5l-1 -95h-205v81h88q-21 13 -35.5 34.5t-23 47.5t-12 54.5t-3.5 57.5v170q0 51 15 97.5
t46 82t77.5 56.5t108.5 21q57 0 103 -19.5t78.5 -53.5t49.5 -81.5t17 -102.5v-170q0 -62 -16 -112t-58 -82h89v-81h-205v95zM-76 501q-35 32 -49.5 66t-14.5 56q0 45 31.5 70.5t84.5 35.5l29 -81q-39 -7 -51.5 -23t-12.5 -35q0 -15 7 -34t19 -36z" />
    <glyph glyph-name="uni1F6A" unicode="&#x1f6a;" horiz-adv-x="580" 
d="M346 95q50 17 76 64.5t26 110.5v173q0 36 -10 68.5t-30 57t-50 38.5t-69 14q-43 0 -73.5 -15.5t-50 -40.5t-28.5 -57t-9 -65v-173q0 -28 6.5 -55t19.5 -50t32.5 -41.5t46.5 -28.5l-1 -95h-205v81h88q-21 13 -35.5 34.5t-23 47.5t-12 54.5t-3.5 57.5v170q0 51 15 97.5
t46 82t77.5 56.5t108.5 21q57 0 103 -19.5t78.5 -53.5t49.5 -81.5t17 -102.5v-170q0 -62 -16 -112t-58 -82h89v-81h-205v95zM-294 521q12 17 19 36t7 34q0 19 -12.5 35t-51.5 23l29 81q53 -10 84.5 -35.5t31.5 -70.5q0 -22 -14.5 -56t-49.5 -66zM-179 713l99 17l86 -210
l-46 -16z" />
    <glyph glyph-name="uni1F6B" unicode="&#x1f6b;" horiz-adv-x="580" 
d="M346 95q50 17 76 64.5t26 110.5v173q0 36 -10 68.5t-30 57t-50 38.5t-69 14q-43 0 -73.5 -15.5t-50 -40.5t-28.5 -57t-9 -65v-173q0 -28 6.5 -55t19.5 -50t32.5 -41.5t46.5 -28.5l-1 -95h-205v81h88q-21 13 -35.5 34.5t-23 47.5t-12 54.5t-3.5 57.5v170q0 51 15 97.5
t46 82t77.5 56.5t108.5 21q57 0 103 -19.5t78.5 -53.5t49.5 -81.5t17 -102.5v-170q0 -62 -16 -112t-58 -82h89v-81h-205v95zM-270 501q-35 32 -49.5 66t-14.5 56q0 45 31.5 70.5t84.5 35.5l29 -81q-39 -7 -51.5 -23t-12.5 -35q0 -15 7 -34t19 -36zM-183 713l99 17l86 -210
l-46 -16z" />
    <glyph glyph-name="uni1F6C" unicode="&#x1f6c;" horiz-adv-x="580" 
d="M346 95q50 17 76 64.5t26 110.5v173q0 36 -10 68.5t-30 57t-50 38.5t-69 14q-43 0 -73.5 -15.5t-50 -40.5t-28.5 -57t-9 -65v-173q0 -28 6.5 -55t19.5 -50t32.5 -41.5t46.5 -28.5l-1 -95h-205v81h88q-21 13 -35.5 34.5t-23 47.5t-12 54.5t-3.5 57.5v170q0 51 15 97.5
t46 82t77.5 56.5t108.5 21q57 0 103 -19.5t78.5 -53.5t49.5 -81.5t17 -102.5v-170q0 -62 -16 -112t-58 -82h89v-81h-205v95zM-267 519q12 17 19 36t7 34q0 19 -12.5 35t-51.5 23l29 81q53 -10 84.5 -35.5t31.5 -70.5q0 -22 -14.5 -56t-49.5 -66zM-94 504l-46 16l90 210
l95 -17z" />
    <glyph glyph-name="uni1F6D" unicode="&#x1f6d;" horiz-adv-x="580" 
d="M346 95q50 17 76 64.5t26 110.5v173q0 36 -10 68.5t-30 57t-50 38.5t-69 14q-43 0 -73.5 -15.5t-50 -40.5t-28.5 -57t-9 -65v-173q0 -28 6.5 -55t19.5 -50t32.5 -41.5t46.5 -28.5l-1 -95h-205v81h88q-21 13 -35.5 34.5t-23 47.5t-12 54.5t-3.5 57.5v170q0 51 15 97.5
t46 82t77.5 56.5t108.5 21q57 0 103 -19.5t78.5 -53.5t49.5 -81.5t17 -102.5v-170q0 -62 -16 -112t-58 -82h89v-81h-205v95zM-215 500q-35 32 -49.5 66t-14.5 56q0 45 31.5 70.5t84.5 35.5l29 -81q-39 -7 -51.5 -23t-12.5 -35q0 -15 7 -34t19 -36zM-88 504l-46 16l90 210
l95 -17z" />
    <glyph glyph-name="uni1F6E" unicode="&#x1f6e;" horiz-adv-x="580" 
d="M346 95q50 17 76 64.5t26 110.5v173q0 36 -10 68.5t-30 57t-50 38.5t-69 14q-43 0 -73.5 -15.5t-50 -40.5t-28.5 -57t-9 -65v-173q0 -28 6.5 -55t19.5 -50t32.5 -41.5t46.5 -28.5l-1 -95h-205v81h88q-21 13 -35.5 34.5t-23 47.5t-12 54.5t-3.5 57.5v170q0 51 15 97.5
t46 82t77.5 56.5t108.5 21q57 0 103 -19.5t78.5 -53.5t49.5 -81.5t17 -102.5v-170q0 -62 -16 -112t-58 -82h89v-81h-205v95zM-164 434q15 16 23.5 32.5t8.5 29.5q0 14 -12.5 24.5t-47.5 15.5l28 65q49 -7 77.5 -26t28.5 -51q0 -17 -13 -45t-52 -60zM-189 734q18 0 36.5 -7.5
t35.5 -16t33 -16t29 -7.5q15 0 30 10.5t31 34.5l52 -29q-22 -46 -48.5 -67.5t-58.5 -21.5q-18 0 -36 7t-35.5 15.5t-34 15.5t-31.5 7q-17 0 -30.5 -8.5t-32.5 -31.5l-48 26q20 42 49 65.5t59 23.5z" />
    <glyph glyph-name="uni1F6F" unicode="&#x1f6f;" horiz-adv-x="580" 
d="M346 95q50 17 76 64.5t26 110.5v173q0 36 -10 68.5t-30 57t-50 38.5t-69 14q-43 0 -73.5 -15.5t-50 -40.5t-28.5 -57t-9 -65v-173q0 -28 6.5 -55t19.5 -50t32.5 -41.5t46.5 -28.5l-1 -95h-205v81h88q-21 13 -35.5 34.5t-23 47.5t-12 54.5t-3.5 57.5v170q0 51 15 97.5
t46 82t77.5 56.5t108.5 21q57 0 103 -19.5t78.5 -53.5t49.5 -81.5t17 -102.5v-170q0 -62 -16 -112t-58 -82h89v-81h-205v95zM-132 422q-39 32 -51.5 60t-12.5 45q0 32 28 51t77 26l28 -65q-35 -5 -47 -15.5t-12 -24.5q0 -13 8 -29.5t23 -32.5zM-186 739q18 0 36.5 -7.5
t35.5 -16t33 -16t29 -7.5q15 0 30 10.5t31 34.5l52 -29q-22 -46 -48.5 -67.5t-58.5 -21.5q-18 0 -36 7t-35.5 15.5t-34 15.5t-31.5 7q-17 0 -30.5 -8.5t-32.5 -31.5l-48 26q20 42 49 65.5t59 23.5z" />
    </font>
</defs>
</svg>
